<?xml version="1.0" encoding="UTF-8" standalone="no"?>
<!-- Created with Inkscape (http://www.inkscape.org/) -->

<svg
   version="1.1"
   id="svg9"
   width="522"
   height="68"
   viewBox="0 0 522 68"
   sodipodi:docname="stv-lang.svg"
   inkscape:version="1.2.1 (9c6d41e410, 2022-07-14)"
   xmlns:inkscape="http://www.inkscape.org/namespaces/inkscape"
   xmlns:sodipodi="http://sodipodi.sourceforge.net/DTD/sodipodi-0.dtd"
   xmlns="http://www.w3.org/2000/svg"
   xmlns:svg="http://www.w3.org/2000/svg">
  <defs
     id="defs13" />
  <sodipodi:namedview
     id="namedview11"
     pagecolor="#ffffff"
     bordercolor="#000000"
     borderopacity="0.25"
     inkscape:showpageshadow="2"
     inkscape:pageopacity="0.0"
     inkscape:pagecheckerboard="0"
     inkscape:deskcolor="#d1d1d1"
     showgrid="false"
     inkscape:zoom="1"
     inkscape:cx="141"
     inkscape:cy="156"
     inkscape:window-width="2560"
     inkscape:window-height="1369"
     inkscape:window-x="-8"
     inkscape:window-y="-8"
     inkscape:window-maximized="1"
     inkscape:current-layer="g15" />
  <g
     inkscape:groupmode="layer"
     inkscape:label="Image"
     id="g15">
    <path
       style="fill:#000000;stroke-width:0.32"
       d="m 11.454892,47.630675 v -6.57645 l 7.5203,0.0964 c 4.1362,0.053 7.5161,0.0245 7.511,-0.0636 -0.01,-0.088 -2.8278,-3.976 -6.2726,-8.64 -3.4448,-4.664 -7.9788,-10.8168 -10.0756,-13.6729 l -3.8123997,-5.1929 3.1519,-5.6870995 3.1519997,-5.6871 13.1727,-0.0835 13.1727,-0.0836 v 6.55776 6.5577595 l -7.5082,0.0858 -7.5083,0.0858 9.2803,12.42418 9.2804,12.42419 -5.0014,7.01582 -5.0014,7.01582 h -10.5307 -10.5307 z"
       id="path647" />
    <path
       style="fill:#000000;stroke-width:0.32"
       d="M 321.85489,28.447105 V 2.3671055 l 9.52,0.006 9.52,0.006 2.4557,3.75388 c 1.3505,2.06463 5.2508,8.0018695 8.6671,13.1938695 3.4164,5.192 7.8807,11.98832 9.9207,15.10294 l 3.7091,5.66295 -5.0163,7.20676 -5.0163,7.20676 -16.88,0.0103 -16.88,0.0103 z m 23.46,5.36 c -2.7526,-4.18 -6.2253,-9.472 -7.7173,-11.76 -1.4919,-2.288 -2.8364,-4.2968 -2.9877,-4.464 -0.1538,-0.1701 -0.275,5.00964 -0.275,11.76 v 12.064 h 7.9923 7.9923 z"
       id="path645" />
    <path
       style="fill:#000000;stroke-width:0.32"
       d="m 271.06019,50.761395 c -2.857,-2.06486 -5.197,-3.84297 -5.2,-3.95137 0,-0.10839 2.6587,-3.61777 5.9147,-7.79862 3.256,-4.18084 5.92,-7.69533 5.92,-7.80998 0,-0.11465 -1.2103,-1.41247 -2.6896,-2.88406 l -2.6896,-2.67562 4.1963,-5.24395 4.1962,-5.24394 2.6524,2.63865 c 2.6272,2.61348 2.6583,2.63262 3.2587,2.00663 0.5394,-0.56233 9.0618,-11.4050895 12.3668,-15.7337995 l 1.2688,-1.66178 7.76,-0.0182 7.76,-0.0182 v 26.0799995 26.08 h -6.7378 -6.7379 l -7.2621,-7.03228 -7.2622,-7.03229 -0.8,0.89369 c -0.44,0.49153 -2.95,3.65606 -5.5778,7.03229 -2.6279,3.37623 -4.8599,6.13602 -4.96,6.13288 -0.1002,-0.003 -2.5198,-1.69515 -5.3769,-3.76 z m 32.0747,-22.15445 c 0,-4.57598 -0.072,-8.31379 -0.16,-8.30624 -0.088,0.008 -1.834,2.14363 -3.8799,4.74683 l -3.72,4.73309 3.72,3.55606 c 2.0459,1.95583 3.7919,3.56375 3.8799,3.57315 0.088,0.009 0.16,-3.7269 0.16,-8.30289 z"
       id="path643" />
    <path
       style="fill:#000000;stroke-width:0.32"
       d="m 200.33489,48.735275 c -1.98,-3.18241 -3.6,-6.13149 -3.6,-6.55351 v -0.76731 l 12.6153,-0.0837 12.6153,-0.0837 -4.3753,-5.93478 c -13.6279,-18.48536 -15.7353,-21.37683 -15.7353,-21.58987 0,-0.12876 1.3839,-2.73639 3.0753,-5.7947295 l 3.0754,-5.56063 h 13.2346 13.2346 l -0.07,6.48 -0.07,6.4799995 h -7.4403 c -4.0921,0 -7.4397,0.072 -7.4392,0.16 7e-4,0.088 4.1003,5.632 9.1104,12.32 5.0102,6.688 9.113,12.304 9.1174,12.48 0,0.176 -2.1945,3.41601 -4.8862,7.20001 l -4.8942,6.88 -11.984,0.0772 -11.9839,0.0772 z"
       id="path641" />
    <path
       style="fill:#000000;stroke-width:0.32"
       d="m 75.774892,50.651855 c -2.904,-2.1145 -5.2458,-3.97424 -5.204,-4.13275 0.042,-0.15851 2.7501,-3.71356 6.0183,-7.9001 l 5.9422,-7.6119 -2.7382,-2.65334 c -1.5061,-1.45934 -2.7383,-2.73837 -2.7383,-2.84227 0,-0.1798 6.9666,-9.027 7.8862,-10.01515 0.3798,-0.40805 0.7956,-0.11521 3.1215,2.1986 l 2.6833,2.66935 1.8745,-2.37311 c 1.031,-1.30522 4.2505,-5.42447 7.1545,-9.1538895 l 5.279998,-6.78078 7.76,-0.005 7.76,-0.005 v 26.0799995 26.08001 l -6.96,-0.0105 -6.96,-0.0105 -7.039998,-6.85537 c -3.872,-3.77045 -7.1381,-6.86174 -7.2579,-6.86953 -0.1199,-0.008 -2.5495,2.97384 -5.3992,6.62584 -2.8497,3.652 -5.3437,6.81309 -5.5421,7.02464 -0.2761,0.29437 -1.5999,-0.5176 -5.6408,-3.45992 z m 31.929198,-26.54315 -0.089,-4.14014 -3.7988,4.82573 -3.7987,4.82572 3.7987,3.60732 3.7988,3.60732 0.089,-4.29291 c 0.049,-2.3611 0.049,-6.15596 0,-8.43304 z"
       id="path639" />
    <path
       style="fill:#000000;stroke-width:0.32"
       d="m 251.13529,36.230565 3e-4,-20.90346 -6.0803,0.0934 -6.0804,0.0934 v -6.5733795 -6.57338 h 19.36 19.36 v 6.57139 6.5713895 l -6.8,-0.0359 -6.8,-0.0359 -0.087,17.22453 -0.087,17.22454 -5.9705,3.52 c -3.2838,1.936 -6.1608,3.56656 -6.3934,3.62346 -0.3471,0.085 -0.4227,-3.63724 -0.4224,-20.80001 z"
       id="path637" />
    <path
       style="fill:#000000;stroke-width:0.32"
       d="m 169.45819,55.257395 c -0.087,-1.01766 -0.083,-13.40629 0.01,-27.53029 l 0.165,-25.6799995 h 6.1922 6.1922 v 19.8332395 19.83323 l 6.3116,0.0868 6.3117,0.0868 3.6046,6.08001 c 1.9826,3.344 3.6063,6.18813 3.6084,6.3203 0,0.13216 -6.2655,0.2295 -13.9278,0.21631 l -13.9315,-0.024 -1.5085,0.87663 c -0.8297,0.48215 -1.8143,1.07344 -2.188,1.31397 -0.6601,0.42483 -0.6841,0.38441 -0.8372,-1.41294 z"
       id="path635" />
    <path
       style="fill:#000000;stroke-width:0.32"
       d="m 153.93689,53.306785 -6.158,-3.73967 v -8.88001 -8.88 h -4.32 -4.32 v 11.20001 11.2 h -6.4 -6.4 V 28.127105 2.0471055 h 6.4 6.4 v 9.2799995 9.28 h 4.32 4.32 v -9.28 -9.2799995 h 6.3951 6.3951 l 0.085,9.1999995 0.085,9.2 3.44,0.0908 c 2.1379,0.0564 3.44,0.21837 3.44,0.42778 0,0.18532 -1.584,2.40634 -3.52,4.93559 l -3.52,4.59864 v 13.29359 c 0,7.31147 -0.108,13.28443 -0.24,13.27326 -0.132,-0.0112 -3.0111,-1.70318 -6.398,-3.76 z"
       id="path633" />
    <path
       style="fill:#000000;stroke-width:0.32"
       d="m 55.934892,36.145995 v -20.97889 h -6.24 -6.24 v -6.5599995 -6.56 h 19.52 19.52 v 6.55376 6.5537595 l -6.8912,0.0862 -6.8912,0.0862 0.01,16.96 c 0,9.328 -0.098,17.10941 -0.2288,17.29201 -0.1747,0.24359 -8.5122,5.25911 -12.3181,7.41012 -0.132,0.0746 -0.24,-9.30485 -0.24,-20.84324 z"
       id="path631" />
    <path
       style="fill:#000000;stroke-width:0.32"
       d="m 369.45719,36.390055 -0.082,-20.94378 -6.08,-0.0596 -6.08,-0.0596 -0.087,-6.4799995 -0.087,-6.48 h 18.4066 18.4066 v 6.57396 6.5739595 l -5.7577,-0.094 -5.7576,-0.094 -0.082,17.25667 -0.082,17.25668 -2.24,1.33641 c -1.232,0.73502 -4.075,2.42103 -6.3177,3.74669 l -4.0778,2.41028 z"
       id="path629" />
    <path
       style="fill:#000000;stroke-width:0.0858292"
       d="m 402.35208,9.1351026 c -0.0773,-0.090265 -0.19276,-0.1440697 -0.25663,-0.1195601 -0.0686,0.026312 -0.11613,-0.013169 -0.11613,-0.096386 0,-0.1079812 0.0354,-0.122025 0.15116,-0.060048 0.17399,0.093117 0.50449,0.4401159 0.4192,0.4401159 -0.0314,0 -0.1203,-0.073853 -0.1976,-0.1641218 z"
       id="path627" />
    <path
       style="fill:#000000;stroke-width:0.0858292"
       d="m 401.29268,9.4708824 c 0,-0.1565578 0.0356,-0.2456056 0.0858,-0.2145729 0.0472,0.029174 0.0858,0.1257316 0.0858,0.2145729 0,0.088841 -0.0386,0.185399 -0.0858,0.2145729 -0.0502,0.031033 -0.0858,-0.058015 -0.0858,-0.2145729 z"
       id="path625" />
    <path
       style="fill:#000000;stroke-width:0.0858292"
       d="m 404.55419,10.503525 c 0,-0.04572 0.0579,-0.0609 0.12874,-0.03373 0.0708,0.02717 0.12875,0.06458 0.12875,0.08314 0,0.01856 -0.0579,0.03373 -0.12875,0.03373 -0.0708,0 -0.12874,-0.03741 -0.12874,-0.08314 z"
       id="path623" />
    <path
       style="fill:#000000;stroke-width:0.0858292"
       d="m 398.0018,10.543028 c -0.12169,-0.08898 -0.13781,-0.151279 -0.0703,-0.271928 0.0792,-0.141559 0.0966,-0.132831 0.18185,0.09143 0.11394,0.299699 0.0945,0.331174 -0.11158,0.180493 z"
       id="path621" />
    <path
       style="fill:#000000;stroke-width:0.0858292"
       d="m 399.80497,10.958589 c -0.11598,-0.115998 -0.0597,-0.543586 0.0715,-0.543586 0.0899,0 0.12874,0.0906 0.12874,0.300402 0,0.284028 -0.072,0.371453 -0.20027,0.243184 z"
       id="path619" />
    <path
       style="fill:#000000;stroke-width:0.0858292"
       d="m 406.76429,11.481712 c -0.0354,-0.03595 -0.0632,-0.184457 -0.0618,-0.330007 0.003,-0.224041 0.0164,-0.241218 0.0915,-0.111973 0.0981,0.168582 0.0727,0.546029 -0.0297,0.44198 z"
       id="path617" />
    <path
       style="fill:#000000;stroke-width:0.0858292"
       d="m 403.49742,11.732838 c -0.1215,-0.121491 -0.0527,-0.287885 0.11895,-0.287885 0.11998,0 0.1689,0.04661 0.1502,0.143088 -0.0306,0.157969 -0.17715,0.236792 -0.26915,0.144797 z"
       id="path615" />
    <path
       style="fill:#000000;stroke-width:0.0858292"
       d="m 401.60738,11.816881 c -0.0315,-0.03147 -0.0572,-0.09713 -0.0572,-0.14591 0,-0.05378 0.04,-0.04871 0.10157,0.01287 0.0558,0.05586 0.0816,0.121518 0.0572,0.14591 -0.0244,0.02438 -0.0701,0.01859 -0.10157,-0.01287 z"
       id="path613" />
    <path
       style="fill:#000000;stroke-width:0.0858292"
       d="m 402.29168,12.415353 c -0.0774,-0.07741 -0.0686,-0.780159 0.0105,-0.82898 0.0359,-0.02221 0.13633,0.01156 0.22313,0.07502 0.13824,0.101074 0.14532,0.153218 0.0572,0.420337 -0.10538,0.319262 -0.19837,0.42598 -0.29074,0.33362 z"
       id="path611" />
    <path
       style="fill:#000000;stroke-width:0.0858292"
       d="m 402.72852,12.680538 c -0.0344,-0.03442 -0.0626,-0.121808 -0.0626,-0.194189 0,-0.09661 0.0255,-0.106213 0.0955,-0.03612 0.0525,0.05252 0.0807,0.139901 0.0626,0.194188 -0.018,0.05429 -0.061,0.07054 -0.0955,0.03612 z"
       id="path609" />
    <path
       style="fill:#000000;stroke-width:0.0858292"
       d="m 402.80387,13.884067 c -0.0287,-0.07467 -0.0504,-0.258131 -0.0483,-0.407689 l 0.004,-0.271925 0.17128,0.324525 c 0.1611,0.305243 0.15994,0.490852 -0.003,0.490852 -0.0394,0 -0.095,-0.06109 -0.1237,-0.135763 z"
       id="path607" />
    <path
       style="fill:#000000;stroke-width:0.0858292"
       d="m 398.46032,14.148574 c 0,-0.07081 0.0374,-0.128744 0.0831,-0.128744 0.0457,0 0.0609,0.05793 0.0337,0.128744 -0.0272,0.07081 -0.0646,0.128743 -0.0831,0.128743 -0.0185,0 -0.0337,-0.05793 -0.0337,-0.128743 z"
       id="path605" />
    <path
       style="fill:#000000;stroke-width:0.0858292"
       d="m 417.5144,15.597161 c 0,-0.114051 0.0233,-0.119914 0.12874,-0.03241 0.0708,0.05877 0.12874,0.121429 0.12874,0.139252 0,0.01784 -0.0579,0.03241 -0.12874,0.03241 -0.0708,0 -0.12874,-0.06266 -0.12874,-0.139252 z"
       id="path603" />
    <path
       style="fill:#000000;stroke-width:0.0858292"
       d="m 415.9117,16.286503 c -0.0288,-0.0751 0.011,-0.269273 0.0882,-0.431493 0.1395,-0.292546 0.14272,-0.293873 0.39519,-0.163314 l 0.25454,0.13163 -0.17692,0.29986 c -0.18764,0.318043 -0.47013,0.40027 -0.56105,0.163317 z"
       id="path601" />
    <path
       style="fill:#000000;stroke-width:0.0858292"
       d="m 398.68562,16.354576 c -0.0233,-0.03766 -0.008,-0.124237 0.0343,-0.192397 0.0579,-0.09368 0.10077,-0.09974 0.17568,-0.02484 0.0545,0.0545 0.0731,0.141079 0.0414,0.192399 -0.0677,0.109663 -0.1914,0.121878 -0.25137,0.02484 z"
       id="path599" />
    <path
       style="fill:#000000;stroke-width:0.0858292"
       d="m 416.74193,16.696109 c 0,-0.216233 0.13602,-0.318075 0.20049,-0.150101 0.0257,0.06709 -0.009,0.168152 -0.0768,0.22459 -0.10085,0.08369 -0.12365,0.06996 -0.12365,-0.07449 z"
       id="path597" />
    <path
       style="fill:#000000;stroke-width:0.0858292"
       d="m 397.5162,16.852192 c 0,-0.04721 0.0409,-0.08583 0.0909,-0.08583 0.05,0 0.067,0.03862 0.0378,0.08583 -0.0292,0.04721 -0.0701,0.08583 -0.0909,0.08583 -0.0209,0 -0.0378,-0.03862 -0.0378,-0.08583 z"
       id="path595" />
    <path
       style="fill:#000000;stroke-width:0.0858292"
       d="m 422.69759,17.244676 c -0.17152,-0.446934 0.2705,-0.778423 0.46597,-0.349448 0.16536,0.362926 0.12867,0.47195 -0.15878,0.47195 -0.1462,0 -0.2808,-0.05366 -0.30719,-0.122502 z"
       id="path593" />
    <path
       style="fill:#000000;stroke-width:0.0858292"
       d="m 432.59096,17.586123 c -0.0319,-0.08313 -0.006,-0.108547 0.0767,-0.07665 0.0684,0.02626 0.12437,0.08222 0.12437,0.124374 0,0.123391 -0.14892,0.08803 -0.20103,-0.04773 z"
       id="path591" />
    <path
       style="fill:#000000;stroke-width:0.0858292"
       d="m 431.57531,17.595671 c -0.13376,-0.101707 -0.13293,-0.116164 0.0121,-0.206792 0.17916,-0.111889 0.26035,-0.06067 0.26035,0.164251 0,0.183309 -0.0725,0.194631 -0.27256,0.04254 z"
       id="path589" />
    <path
       style="fill:#000000;stroke-width:0.0858292"
       d="m 401.03519,17.810617 c 0,-0.218022 0.0915,-0.288099 0.22815,-0.174708 0.1715,0.142337 0.13923,0.332063 -0.0565,0.332063 -0.10924,0 -0.17166,-0.05722 -0.17166,-0.157355 z"
       id="path587" />
    <path
       style="fill:#000000;stroke-width:0.0858292"
       d="m 440.82866,17.913277 c -0.11544,-0.124495 -0.31937,-0.443136 -0.45316,-0.708091 -0.21588,-0.427609 -0.24332,-0.573349 -0.24418,-1.297112 0,-0.723559 0.0265,-0.87141 0.24341,-1.31298 0.48794,-0.993711 1.88108,-2.206539 2.53343,-2.205536 1.14652,0.0019 1.98574,0.925499 1.98574,2.18571 0,1.303871 -0.90276,2.789561 -2.01698,3.319363 -0.42805,0.20353 -0.62669,0.244878 -1.17667,0.244935 -0.60477,6.1e-5 -0.67977,-0.01942 -0.87159,-0.226289 z"
       id="path585" />
    <path
       style="fill:#000000;stroke-width:0.0858292"
       d="m 399.03787,18.087778 c -0.0344,-0.03443 -0.0626,-0.121815 -0.0626,-0.194196 0,-0.09661 0.0255,-0.106214 0.0955,-0.03612 0.0525,0.05252 0.0807,0.139902 0.0626,0.194189 -0.018,0.05429 -0.061,0.07054 -0.0955,0.03612 z"
       id="path583" />
    <path
       style="fill:#000000;stroke-width:0.0858292"
       d="m 421.08985,18.101082 c -0.0319,-0.08313 -0.006,-0.108547 0.0767,-0.07665 0.0684,0.02626 0.12437,0.08222 0.12437,0.124374 0,0.12339 -0.14891,0.08803 -0.20103,-0.04773 z"
       id="path581" />
    <path
       style="fill:#000000;stroke-width:0.0858292"
       d="m 417.30323,18.402637 c -0.0767,-0.124028 0.0662,-0.297028 0.20663,-0.250221 0.067,0.02232 0.0602,0.08151 -0.0223,0.194317 -0.0881,0.120459 -0.13553,0.134848 -0.18432,0.0559 z"
       id="path579" />
    <path
       style="fill:#000000;stroke-width:0.0858292"
       d="m 419.5743,18.606042 c 0,-0.137788 0.19357,-0.380588 0.30343,-0.380588 0.17066,0 0.15808,0.115759 -0.0312,0.287098 -0.15862,0.143558 -0.27218,0.182562 -0.27218,0.09349 z"
       id="path577" />
    <path
       style="fill:#000000;stroke-width:0.0858292"
       d="m 414.55372,18.569449 c -0.0289,-0.04683 -0.0131,-0.153044 0.0352,-0.23603 0.0754,-0.129425 0.0882,-0.117318 0.0905,0.08515 0.003,0.246824 -0.037,0.29447 -0.12571,0.15088 z"
       id="path575" />
    <path
       style="fill:#000000;stroke-width:0.0858292"
       d="m 416.43799,18.648889 c -0.0311,-0.05035 -0.0382,-0.109947 -0.0156,-0.132445 0.0225,-0.0225 0.0638,0.0187 0.0917,0.09154 0.058,0.151239 0.009,0.177843 -0.076,0.04091 z"
       id="path573" />
    <path
       style="fill:#000000;stroke-width:0.0858292"
       d="m 433.70011,18.696149 c -0.15435,-0.116787 -0.1557,-0.134637 -0.0215,-0.282973 0.0788,-0.08708 0.14328,-0.180564 0.14328,-0.207745 0,-0.02718 -0.20572,-0.165524 -0.45715,-0.307426 -0.51841,-0.292562 -0.69618,-0.52057 -0.83463,-1.070475 -0.27493,-1.091793 0.97611,-3.281574 2.42499,-4.244671 0.30378,-0.201932 0.34678,-0.207401 0.97285,-0.123744 0.36024,0.04814 0.66477,0.10035 0.67673,0.116027 0.61438,0.805252 0.91859,1.562499 0.91859,2.286468 0,1.072084 -0.58289,1.805575 -2.55701,3.217677 -0.57433,0.410834 -1.05712,0.745742 -1.07287,0.74424 -0.0158,-0.0016 -0.10272,-0.05882 -0.19333,-0.127378 z"
       id="path571" />
    <path
       style="fill:#000000;stroke-width:0.0858292"
       d="m 401.88254,18.761886 c -0.10675,-0.13613 -0.10372,-0.139167 0.0324,-0.03241 0.0826,0.06479 0.1502,0.132378 0.1502,0.150201 0,0.07064 -0.0705,0.02519 -0.1826,-0.117795 z"
       id="path569" />
    <path
       style="fill:#000000;stroke-width:0.0858292"
       d="m 418.25824,19.026527 c -0.10426,-0.104256 -0.0593,-0.195683 0.0715,-0.145478 0.0708,0.02717 0.12875,0.08389 0.12875,0.126051 0,0.08998 -0.11823,0.101453 -0.20028,0.01942 z"
       id="path567" />
    <path
       style="fill:#000000;stroke-width:0.0858292"
       d="m 434.33691,19.092929 c 0,-0.07902 0.20318,-0.180842 0.36086,-0.180842 0.0541,0 0.0471,0.05079 -0.0174,0.128744 -0.11662,0.1405 -0.34332,0.174904 -0.34332,0.0521 z"
       id="path565" />
    <path
       style="fill:#000000;stroke-width:0.0858292"
       d="m 416.82776,19.045897 c 0,-0.06802 0.0386,-0.147551 0.0858,-0.176724 0.0472,-0.02917 0.0858,0.02647 0.0858,0.123677 0,0.0972 -0.0386,0.176725 -0.0858,0.176725 -0.0472,0 -0.0858,-0.05565 -0.0858,-0.123678 z"
       id="path563" />
    <path
       style="fill:#000000;stroke-width:0.0858292"
       d="m 420.56855,19.286168 c -0.0452,-0.117798 -0.0326,-0.123108 0.0766,-0.03241 0.14894,0.123605 0.16442,0.173289 0.0541,0.173289 -0.0421,0 -0.10096,-0.0634 -0.1307,-0.140883 z"
       id="path561" />
    <path
       style="fill:#000000;stroke-width:0.0858292"
       d="m 399.06112,19.298318 c 0,-0.07152 0.0763,-0.128743 0.17166,-0.128743 0.0954,0 0.17166,0.05722 0.17166,0.128743 0,0.07153 -0.0763,0.128744 -0.17166,0.128744 -0.0953,0 -0.17166,-0.05722 -0.17166,-0.128744 z"
       id="path559" />
    <path
       style="fill:#000000;stroke-width:0.0858292"
       d="m 422.23631,19.466911 c 0.003,-0.147758 0.15927,-0.337038 0.22496,-0.271349 0.0352,0.03516 -0.003,0.129221 -0.0812,0.209021 -0.0798,0.0798 -0.14451,0.107847 -0.14379,0.06233 z"
       id="path557" />
    <path
       style="fill:#000000;stroke-width:0.0858292"
       d="m 414.93952,19.215761 c 0,-0.286157 0.0134,-0.302515 0.17686,-0.215058 0.21334,0.114174 0.19508,0.453883 -0.0265,0.496149 -0.12059,0.02299 -0.1502,-0.03243 -0.1502,-0.281091 z"
       id="path555" />
    <path
       style="fill:#000000;stroke-width:0.0858292"
       d="m 396.14293,19.59872 c 0,-0.04721 0.0409,-0.08583 0.0909,-0.08583 0.05,0 0.067,0.03862 0.0378,0.08583 -0.0292,0.04721 -0.0701,0.08583 -0.0909,0.08583 -0.0209,0 -0.0379,-0.03862 -0.0379,-0.08583 z"
       id="path553" />
    <path
       style="fill:#000000;stroke-width:0.0858292"
       d="m 416.3093,19.59223 c -0.0875,-0.163494 -0.0805,-0.170202 0.0852,-0.08152 0.0993,0.05315 0.1579,0.13332 0.13019,0.178155 -0.0732,0.118433 -0.10884,0.102437 -0.2154,-0.09663 z"
       id="path551" />
    <path
       style="fill:#000000;stroke-width:0.0858292"
       d="m 414.74461,19.762499 c -0.0836,-0.04867 -0.1296,-0.124742 -0.10222,-0.169049 0.0801,-0.129656 0.1984,-0.0934 0.29713,0.0911 0.10096,0.188615 0.0383,0.213688 -0.19491,0.07794 z"
       id="path549" />
    <path
       style="fill:#000000;stroke-width:0.0858292"
       d="m 432.96638,20.178073 c 0.003,-0.106214 0.0579,-0.265953 0.12526,-0.354974 0.11756,-0.155278 0.12676,-0.152604 0.22629,0.06581 0.0897,0.196784 0.0814,0.244572 -0.0609,0.352245 -0.22981,0.173882 -0.2938,0.159991 -0.29064,-0.06308 z"
       id="path547" />
    <path
       style="fill:#000000;stroke-width:0.0858292"
       d="m 419.01287,20.451307 c -0.0311,-0.05035 -0.0382,-0.109947 -0.0156,-0.132445 0.0225,-0.0225 0.0638,0.0187 0.0917,0.09154 0.058,0.151239 0.009,0.177843 -0.076,0.0409 z"
       id="path545" />
    <path
       style="fill:#000000;stroke-width:0.0858292"
       d="m 414.93952,20.414103 c 0,-0.07081 0.0627,-0.128744 0.13926,-0.128744 0.11404,0 0.11992,0.02331 0.0324,0.128744 -0.0588,0.07081 -0.12142,0.128744 -0.13926,0.128744 -0.0177,0 -0.0324,-0.05793 -0.0324,-0.128744 z"
       id="path543" />
    <path
       style="fill:#000000;stroke-width:0.0858292"
       d="m 429.44465,20.616196 c 0,-0.342365 0.20242,-0.591902 0.35574,-0.438574 0.0641,0.06409 0.0249,0.188146 -0.13237,0.419686 l -0.22337,0.328704 z"
       id="path541" />
    <path
       style="fill:#000000;stroke-width:0.0858292"
       d="m 402.69556,20.753718 c -0.0279,-0.07285 -0.0276,-0.155595 0,-0.183889 0.0742,-0.07421 0.32022,0.149515 0.26417,0.240231 -0.0732,0.118527 -0.20873,0.0897 -0.26479,-0.05634 z"
       id="path539" />
    <path
       style="fill:#000000;stroke-width:0.0858292"
       d="m 433.73611,21.098679 c 0,-0.02716 0.0604,-0.166066 0.13408,-0.308679 0.10927,-0.21129 0.15693,-0.240338 0.25749,-0.156888 0.18182,0.150904 0.15285,0.233415 -0.13408,0.381795 -0.14162,0.07323 -0.25749,0.110932 -0.25749,0.08377 z"
       id="path537" />
    <path
       style="fill:#000000;stroke-width:0.0858292"
       d="m 430.52462,21.155171 c -0.037,-0.05982 -0.044,-0.131949 -0.0158,-0.160278 0.0768,-0.07681 0.16058,0.03616 0.11909,0.160624 -0.0291,0.08722 -0.0493,0.08715 -0.10337,-2.68e-4 z"
       id="path535" />
    <path
       style="fill:#000000;stroke-width:0.0858292"
       d="m 413.58589,21.207079 c -0.0471,-0.05849 -0.11445,-0.240813 -0.14964,-0.405168 l -0.064,-0.298822 0.22575,0.268299 c 0.12416,0.147565 0.22576,0.308722 0.22576,0.358131 0,0.145349 -0.14513,0.192675 -0.23785,0.07756 z"
       id="path533" />
    <path
       style="fill:#000000;stroke-width:0.0858292"
       d="m 414.5962,21.572797 c 0,-0.09441 0.018,-0.171659 0.0399,-0.171659 0.022,0 0.0812,0.07725 0.13177,0.171659 0.0733,0.13701 0.0653,0.171658 -0.0399,0.171658 -0.0746,0 -0.13178,-0.07454 -0.13178,-0.171658 z"
       id="path531" />
    <path
       style="fill:#000000;stroke-width:0.0858292"
       d="m 416.82776,21.705867 c 0,-0.202616 0.1,-0.391942 0.18065,-0.342086 0.12375,0.07649 0.0883,0.357921 -0.0519,0.411712 -0.0763,0.02928 -0.12875,8.05e-4 -0.12875,-0.06963 z"
       id="path529" />
    <path
       style="fill:#000000;stroke-width:0.0858292"
       d="m 433.38979,21.955391 c -0.0808,-0.09737 -0.0846,-0.157695 -0.0142,-0.228102 0.11373,-0.113731 0.36048,0.05209 0.36048,0.242248 0,0.15877 -0.20995,0.150195 -0.34634,-0.01413 z"
       id="path527" />
    <path
       style="fill:#000000;stroke-width:0.0858292"
       d="m 417.99013,22.007873 c -0.0272,-0.04395 -0.0102,-0.104159 0.0378,-0.133808 0.048,-0.02965 0.0872,0.0063 0.0872,0.0799 0,0.150762 -0.0515,0.17296 -0.12507,0.05391 z"
       id="path525" />
    <path
       style="fill:#000000;stroke-width:0.0858292"
       d="m 412.9238,22.089808 c -0.0285,-0.04609 0.006,-0.190925 0.0773,-0.32186 l 0.12912,-0.238066 0.003,0.32186 c 0.003,0.305696 -0.0975,0.419954 -0.20988,0.238066 z"
       id="path523" />
    <path
       style="fill:#000000;stroke-width:0.0858292"
       d="m 430.53897,22.252397 c -0.0898,-0.05223 -0.1502,-0.189977 -0.1502,-0.342753 v -0.255428 l 0.2628,0.135906 c 0.18829,0.09736 0.25523,0.187362 0.23603,0.317339 -0.032,0.216754 -0.1446,0.263568 -0.34863,0.144936 z"
       id="path521" />
    <path
       style="fill:#000000;stroke-width:0.0858292"
       d="m 413.56625,22.559832 c 0,-0.07081 0.0567,-0.128744 0.12607,-0.128744 0.0768,0 0.10672,0.05032 0.0766,0.128744 -0.0272,0.07081 -0.0839,0.128744 -0.12603,0.128744 -0.0422,0 -0.0767,-0.05794 -0.0767,-0.128744 z"
       id="path519" />
    <path
       style="fill:#000000;stroke-width:0.0858292"
       d="m 401.82536,22.801506 c -0.15428,-0.279382 -0.13462,-0.438282 0.0335,-0.270209 0.0753,0.07534 0.12193,0.209144 0.10353,0.297336 -0.0309,0.147964 -0.0415,0.145869 -0.137,-0.02713 z"
       id="path517" />
    <path
       style="fill:#000000;stroke-width:0.0858292"
       d="m 416.66442,22.999001 c -0.076,-0.09155 -0.0686,-0.130219 0.0324,-0.168965 0.09,-0.03455 0.13094,0.0024 0.13094,0.11872 0,0.200082 -0.0311,0.209635 -0.16334,0.05025 z"
       id="path515" />
    <path
       style="fill:#000000;stroke-width:0.0858292"
       d="m 398.26208,23.080316 c -0.092,-0.06972 -0.12,-0.139625 -0.0687,-0.171331 0.0477,-0.02946 0.12858,0.02478 0.17981,0.120504 0.10887,0.203391 0.0971,0.208745 -0.11112,0.05083 z"
       id="path513" />
    <path
       style="fill:#000000;stroke-width:0.0858292"
       d="m 398.84655,23.28938 c -0.0292,-0.04721 -0.0121,-0.08583 0.0379,-0.08583 0.05,0 0.0909,0.03862 0.0909,0.08583 0,0.04721 -0.0169,0.08583 -0.0378,0.08583 -0.0209,0 -0.0617,-0.03862 -0.0909,-0.08583 z"
       id="path511" />
    <path
       style="fill:#000000;stroke-width:0.0858292"
       d="m 415.34184,23.405606 c -0.1179,-0.117916 -0.0567,-0.300037 0.0912,-0.271544 0.0826,0.01591 0.1502,0.08311 0.1502,0.149342 0,0.135511 -0.15144,0.21217 -0.2414,0.122202 z"
       id="path509" />
    <path
       style="fill:#000000;stroke-width:0.0858292"
       d="m 428.53475,23.598102 c -0.0255,-0.06623 0.0434,-0.288313 0.15291,-0.493517 l 0.1991,-0.373094 0.0268,0.371117 c 0.0342,0.474818 -0.24598,0.841359 -0.37869,0.495494 z"
       id="path507" />
    <path
       style="fill:#000000;stroke-width:0.0858292"
       d="m 397.94534,23.718526 c 0,-0.160214 0.0228,-0.183103 0.103,-0.102995 0.0801,0.08011 0.0801,0.125882 0,0.20599 -0.0801,0.08011 -0.103,0.05722 -0.103,-0.102995 z"
       id="path505" />
    <path
       style="fill:#000000;stroke-width:0.0858292"
       d="m 412.97401,23.629835 c -0.22206,-0.426035 -0.22262,-0.469716 -0.009,-0.683772 0.31733,-0.317321 0.64957,-0.198893 0.77778,0.277231 0.0683,0.253604 0.0671,0.371024 -0.004,0.441777 -0.0722,0.07143 -0.12075,0.05499 -0.18759,-0.06352 -0.16208,-0.287404 -0.44301,-0.525894 -0.48193,-0.409129 -0.0196,0.05879 0.0263,0.175285 0.10193,0.25888 0.15124,0.167136 0.18096,0.401925 0.0603,0.476507 -0.0425,0.02626 -0.15835,-0.10782 -0.25748,-0.297977 z"
       id="path503" />
    <path
       style="fill:#000000;stroke-width:0.0858292"
       d="m 414.56758,24.176282 c -0.10452,-0.104534 -0.0591,-0.286098 0.0715,-0.286098 0.0715,0 0.12874,0.07629 0.12874,0.171659 0,0.170993 -0.0915,0.223252 -0.20028,0.114439 z"
       id="path501" />
    <path
       style="fill:#000000;stroke-width:0.0858292"
       d="m 412.25736,24.140797 c -0.17665,-0.102885 -0.18815,-0.262208 -0.0471,-0.652207 0.15455,-0.427395 0.24024,-0.345374 0.24024,0.229936 0,0.283236 -0.01,0.5138 -0.0215,0.512365 -0.0118,-0.0013 -0.089,-0.04198 -0.17166,-0.09009 z"
       id="path499" />
    <path
       style="fill:#000000;stroke-width:0.0858292"
       d="m 428.02678,24.402434 c -0.0333,-0.05393 -0.0201,-0.138448 0.0292,-0.187807 0.11534,-0.115347 0.38428,-0.01472 0.33734,0.126206 -0.0478,0.14348 -0.29064,0.184302 -0.36649,0.0616 z"
       id="path497" />
    <path
       style="fill:#000000;stroke-width:0.0858292"
       d="m 395.93753,24.441055 c -0.10154,-0.264628 -0.0597,-0.548392 0.0734,-0.497332 0.15583,0.0598 0.23946,0.305249 0.16768,0.49226 -0.0684,0.178286 -0.17375,0.180501 -0.24107,0.0051 z"
       id="path495" />
    <path
       style="fill:#000000;stroke-width:0.0858292"
       d="m 400.2799,24.73131 c -0.1192,-0.119211 -0.13666,-0.381038 -0.0298,-0.447079 0.14945,-0.09238 0.3791,0.170288 0.31778,0.363498 -0.0671,0.211367 -0.13926,0.23231 -0.28798,0.08358 z"
       id="path493" />
    <path
       style="fill:#000000;stroke-width:0.0858292"
       d="m 414.08123,24.834305 c 0,-0.204638 0.1318,-0.227672 0.2054,-0.0359 0.0736,0.191833 0.0678,0.207554 -0.0767,0.207554 -0.0715,0 -0.12874,-0.07629 -0.12874,-0.171659 z"
       id="path491" />
    <path
       style="fill:#000000;stroke-width:0.0858292"
       d="m 397.43037,24.968116 c 0,-0.279522 0.14025,-0.352852 0.25717,-0.134441 0.10637,0.198802 0.05,0.343947 -0.1335,0.343947 -0.0739,0 -0.12367,-0.08431 -0.12367,-0.209506 z"
       id="path489" />
    <path
       style="fill:#000000;stroke-width:0.0858292"
       d="m 396.01505,25.090393 c 0.0297,-0.04798 0.0899,-0.06501 0.13381,-0.03785 0.11906,0.07357 0.0968,0.125077 -0.0539,0.125077 -0.0736,0 -0.10954,-0.03925 -0.0799,-0.08723 z"
       id="path487" />
    <path
       style="fill:#000000;stroke-width:0.0858292"
       d="m 411.60203,25.443014 c -0.0787,-0.04985 -0.0999,-0.150947 -0.0627,-0.299088 0.0635,-0.252874 0.11563,-0.268361 0.3375,-0.100182 0.13392,0.101542 0.14006,0.143373 0.0437,0.297672 -0.12542,0.200827 -0.14962,0.208544 -0.31848,0.101598 z"
       id="path485" />
    <path
       style="fill:#000000;stroke-width:0.0858292"
       d="m 416.88497,25.549555 c -0.0315,-0.03147 -0.0572,-0.110076 -0.0572,-0.174679 0,-0.0914 0.0386,-0.09679 0.17407,-0.0243 0.0957,0.05123 0.15139,0.12984 0.12368,0.174675 -0.0589,0.09521 -0.15946,0.105377 -0.24054,0.0243 z"
       id="path483" />
    <path
       style="fill:#000000;stroke-width:0.0858292"
       d="m 412.16617,25.894658 c -0.12151,-0.121492 -0.0527,-0.287885 0.11895,-0.287885 0.11997,0 0.16889,0.04661 0.1502,0.143088 -0.0306,0.157969 -0.17716,0.236792 -0.26915,0.144797 z"
       id="path481" />
    <path
       style="fill:#000000;stroke-width:0.0858292"
       d="m 415.54032,25.955156 c 0,-0.138834 0.0375,-0.275594 0.0833,-0.303913 0.0997,-0.06162 0.21439,0.336027 0.13427,0.465626 -0.10651,0.172364 -0.21758,0.08982 -0.21758,-0.161713 z"
       id="path479" />
    <path
       style="fill:#000000;stroke-width:0.0858292"
       d="m 413.69586,26.120348 c 0.0297,-0.04798 0.0899,-0.06501 0.13381,-0.03785 0.11906,0.07357 0.0968,0.125077 -0.0539,0.125077 -0.0736,0 -0.10954,-0.03925 -0.0799,-0.08723 z"
       id="path477" />
    <path
       style="fill:#000000;stroke-width:0.0858292"
       d="m 426.74471,26.299337 c -0.0272,-0.04395 -0.0142,-0.101657 0.0289,-0.128251 0.043,-0.02661 0.10036,0.0094 0.12743,0.0799 0.0534,0.139054 -0.0756,0.178943 -0.15629,0.04835 z"
       id="path475" />
    <path
       style="fill:#000000;stroke-width:0.0858292"
       d="m 399.31861,26.257645 c 0,-0.07474 0.0611,-0.135897 0.13591,-0.135897 0.0747,0 0.12059,0.04586 0.10192,0.101922 -0.053,0.159146 -0.23783,0.185541 -0.23783,0.03398 z"
       id="path473" />
    <path
       style="fill:#000000;stroke-width:0.0858292"
       d="m 426.23794,26.507971 c 0.0272,-0.07081 0.0798,-0.128743 0.11686,-0.128743 0.0371,0 0.0897,0.05793 0.11686,0.128743 0.0335,0.08714 -0.004,0.128744 -0.11686,0.128744 -0.11254,0 -0.15031,-0.04161 -0.11686,-0.128744 z"
       id="path471" />
    <path
       style="fill:#000000;stroke-width:0.0858292"
       d="m 412.73642,26.501212 c -0.0286,-0.07453 -0.0293,-0.379062 -0.003,-0.676736 l 0.0505,-0.541225 -0.25333,-0.05067 c -0.24054,-0.0481 -0.25336,-0.07266 -0.25336,-0.484978 0,-0.387575 0.0161,-0.425509 0.1502,-0.352506 0.14481,0.07887 0.56167,0.503697 0.77947,0.794357 0.0795,0.106107 0.0832,0.242905 0.015,0.55789 -0.17088,0.78918 -0.36073,1.083046 -0.48706,0.753864 z"
       id="path469" />
    <path
       style="fill:#000000;stroke-width:0.0858292"
       d="m 399.83359,26.631657 c 0,-0.04999 0.0386,-0.06702 0.0858,-0.03785 0.0472,0.02917 0.0858,0.07008 0.0858,0.09089 0,0.02081 -0.0386,0.03785 -0.0858,0.03785 -0.0472,0 -0.0858,-0.0409 -0.0858,-0.09089 z"
       id="path467" />
    <path
       style="fill:#000000;stroke-width:0.0858292"
       d="m 411.00785,26.642278 c 0.11216,-0.179616 0.24102,-0.156933 0.24102,0.04243 0,0.06802 -0.0776,0.123677 -0.17239,0.123677 -0.14896,0 -0.1583,-0.02256 -0.0686,-0.166106 z"
       id="path465" />
    <path
       style="fill:#000000;stroke-width:0.0858292"
       d="m 417.8148,26.894213 c -0.0292,-0.04721 0.009,-0.08583 0.0858,-0.08583 0.0764,0 0.11501,0.03862 0.0858,0.08583 -0.0292,0.04721 -0.0678,0.08583 -0.0858,0.08583 -0.018,0 -0.0566,-0.03862 -0.0858,-0.08583 z"
       id="path463" />
    <path
       style="fill:#000000;stroke-width:0.0858292"
       d="m 399.23278,26.813451 c 0,-0.215871 0.13856,-0.300984 0.20559,-0.126298 0.0822,0.214273 0.0616,0.29289 -0.0768,0.29289 -0.0708,0 -0.12875,-0.07497 -0.12875,-0.166592 z"
       id="path461" />
    <path
       style="fill:#000000;stroke-width:0.0858292"
       d="m 411.59218,27.280445 c -0.0596,-0.07182 -0.0689,-0.128744 -0.0209,-0.128744 0.0472,0 0.13392,0.05794 0.19269,0.128744 0.0596,0.07182 0.0689,0.128743 0.0209,0.128743 -0.0472,0 -0.13392,-0.05793 -0.19269,-0.128743 z"
       id="path459" />
    <path
       style="fill:#000000;stroke-width:0.0858292"
       d="m 416.91491,27.430646 c 0,-0.08261 0.0331,-0.20031 0.072,-0.261551 0.0564,-0.08894 0.0928,-0.08462 0.18083,0.02146 0.0881,0.106141 0.0888,0.158658 0.003,0.261551 -0.14304,0.172374 -0.25779,0.162764 -0.25618,-0.02146 z"
       id="path457" />
    <path
       style="fill:#000000;stroke-width:0.0858292"
       d="m 413.88328,27.697623 c -0.0794,-0.07945 0.0164,-0.202603 0.15739,-0.202603 0.0723,0 0.10112,0.05183 0.0716,0.128744 -0.0524,0.136519 -0.13851,0.164304 -0.22898,0.07386 z"
       id="path455" />
    <path
       style="fill:#000000;stroke-width:0.0858292"
       d="m 415.34005,28.038606 c -0.10882,-0.108818 -0.0565,-0.200272 0.11445,-0.200272 0.0954,0 0.17165,0.05722 0.17165,0.128744 0,0.130667 -0.18155,0.176057 -0.2861,0.07152 z"
       id="path453" />
    <path
       style="fill:#000000;stroke-width:0.0858292"
       d="m 412.0857,28.046652 c -0.12636,-0.12811 -0.061,-0.539946 0.14237,-0.898103 l 0.20677,-0.363993 0.18547,0.363548 c 0.102,0.199953 0.16543,0.383581 0.14095,0.408069 -0.0244,0.02449 -0.16029,0.0042 -0.30177,-0.04515 -0.25596,-0.08923 -0.25736,-0.08796 -0.28332,0.255615 -0.0142,0.189908 -0.0551,0.315916 -0.0905,0.280015 z"
       id="path451" />
    <path
       style="fill:#000000;stroke-width:0.0858292"
       d="m 410.60995,28.103568 c -0.0686,-0.110913 0.0407,-0.359592 0.13293,-0.302591 0.10221,0.06317 0.0989,0.380674 -0.004,0.380674 -0.0444,0 -0.10246,-0.03514 -0.12901,-0.07808 z"
       id="path449" />
    <path
       style="fill:#000000;stroke-width:0.0858292"
       d="m 416.63285,28.215626 c -0.0344,-0.03442 -0.0626,-0.121808 -0.0626,-0.194189 0,-0.09661 0.0255,-0.106213 0.0955,-0.03612 0.0525,0.05252 0.0807,0.139901 0.0626,0.194188 -0.0182,0.05429 -0.061,0.07054 -0.0955,0.03612 z"
       id="path447" />
    <path
       style="fill:#000000;stroke-width:0.0858292"
       d="m 428.80104,28.439315 c -0.0657,-0.106304 0.20548,-0.579164 0.36786,-0.641481 0.35656,-0.136826 0.37976,0.371197 0.0265,0.579883 -0.28999,0.171315 -0.32331,0.176516 -0.39433,0.0616 z"
       id="path445" />
    <path
       style="fill:#000000;stroke-width:0.0858292"
       d="m 410.61944,28.725237 c -0.0315,-0.03147 -0.0572,-0.110076 -0.0572,-0.174679 0,-0.0914 0.0386,-0.09679 0.17407,-0.0243 0.0957,0.05123 0.15139,0.12984 0.12368,0.174675 -0.0589,0.09521 -0.15946,0.105377 -0.24054,0.0243 z"
       id="path443" />
    <path
       style="fill:#000000;stroke-width:0.0858292"
       d="m 399.74776,28.696626 c 0,-0.04721 0.0409,-0.08583 0.0909,-0.08583 0.05,0 0.067,0.03862 0.0378,0.08583 -0.0292,0.04721 -0.0701,0.08583 -0.0909,0.08583 -0.0209,0 -0.0378,-0.03862 -0.0378,-0.08583 z"
       id="path441" />
    <path
       style="fill:#000000;stroke-width:0.0858292"
       d="m 414.42935,28.745307 c -0.0872,-0.10502 -0.0926,-0.16683 -0.0212,-0.238337 0.0715,-0.07151 0.1105,-0.06017 0.15036,0.04372 0.0878,0.228711 0.004,0.355019 -0.12923,0.194618 z"
       id="path439" />
    <path
       style="fill:#000000;stroke-width:0.0858292"
       d="m 411.56735,28.782216 c -0.0786,-0.112192 -0.12352,-0.223327 -0.0999,-0.246968 0.0737,-0.07371 0.31829,0.22436 0.27954,0.340648 -0.0244,0.07291 -0.0852,0.04115 -0.17965,-0.09368 z"
       id="path437" />
    <path
       style="fill:#000000;stroke-width:0.0858292"
       d="m 425.66817,28.821054 c 0,-0.159658 0.12308,-0.348751 0.40822,-0.627113 0.22453,-0.219192 0.49041,-0.514399 0.59083,-0.656017 0.22812,-0.321709 0.33749,-0.237237 0.20655,0.159524 -0.13188,0.399632 -0.60622,1.005122 -0.93782,1.197138 l -0.26778,0.155053 z"
       id="path435" />
    <path
       style="fill:#000000;stroke-width:0.0858292"
       d="m 425.15319,28.968409 c 0,-0.120783 0.0966,-0.176432 0.22249,-0.12814 0.0659,0.02529 0.0985,0.08057 0.0724,0.12283 -0.0599,0.09693 -0.29485,0.101163 -0.29485,0.0053 z"
       id="path433" />
    <path
       style="fill:#000000;stroke-width:0.0858292"
       d="m 412.27882,28.954113 c 0.0505,-0.09441 0.14845,-0.171658 0.2176,-0.171658 0.0691,0 0.12571,0.07725 0.12571,0.171658 0,0.126518 -0.0572,0.171659 -0.21757,0.171659 -0.191,0 -0.20637,-0.02097 -0.12574,-0.171659 z"
       id="path431" />
    <path
       style="fill:#000000;stroke-width:0.0858292"
       d="m 415.96947,29.335278 c 0,-0.07359 0.0386,-0.109936 0.0858,-0.08076 0.0472,0.02917 0.0858,0.08939 0.0858,0.13381 0,0.04442 -0.0386,0.08076 -0.0858,0.08076 -0.0472,0 -0.0858,-0.06021 -0.0858,-0.13381 z"
       id="path429" />
    <path
       style="fill:#000000;stroke-width:0.0858292"
       d="m 410.66523,29.623581 c -0.1641,-0.164095 -0.11928,-0.251941 0.0687,-0.134575 0.1734,0.108298 0.22946,0.23757 0.103,0.23757 -0.0378,0 -0.11502,-0.04635 -0.17166,-0.102995 z"
       id="path427" />
    <path
       style="fill:#000000;stroke-width:0.0858292"
       d="m 414.38126,29.72597 c -0.0294,-0.04754 0.009,-0.110245 0.0845,-0.139347 0.16433,-0.06306 0.25593,0.0064 0.17694,0.134243 -0.0713,0.115319 -0.19183,0.117671 -0.2614,0.0051 z"
       id="path425" />
    <path
       style="fill:#000000;stroke-width:0.0858292"
       d="m 411.3347,29.651255 c 0,-0.100192 0.0363,-0.182167 0.0808,-0.182167 0.1487,0 0.17622,0.151068 0.047,0.258271 -0.10635,0.08826 -0.1278,0.07549 -0.1278,-0.0761 z"
       id="path423" />
    <path
       style="fill:#000000;stroke-width:0.0858292"
       d="m 424.72405,29.819341 c 0,-0.09661 0.53957,-0.350253 0.7451,-0.350253 0.16831,0 0.053,0.166421 -0.1741,0.251322 -0.43488,0.162574 -0.571,0.186155 -0.571,0.09893 z"
       id="path421" />
    <path
       style="fill:#000000;stroke-width:0.0858292"
       d="m 413.87583,29.93413 c -0.11442,-0.298198 -0.0656,-0.381683 0.16248,-0.277768 0.24113,0.109864 0.25993,0.162191 0.11158,0.310536 -0.13842,0.138431 -0.21173,0.129671 -0.27406,-0.03277 z"
       id="path419" />
    <path
       style="fill:#000000;stroke-width:0.0858292"
       d="m 416.55933,30.005521 c -0.10678,-0.136131 -0.10372,-0.139167 0.0324,-0.03241 0.0826,0.06479 0.1502,0.132378 0.1502,0.150201 0,0.07064 -0.0705,0.02519 -0.1826,-0.117795 z"
       id="path417" />
    <path
       style="fill:#000000;stroke-width:0.0858292"
       d="m 410.17965,29.905304 c -0.0728,-0.140818 -0.13239,-0.279065 -0.13239,-0.307217 0,-0.09882 0.42378,0.258386 0.42646,0.359453 0.006,0.221256 -0.16865,0.190259 -0.29407,-0.05224 z"
       id="path415" />
    <path
       style="fill:#000000;stroke-width:0.0858292"
       d="m 411.67495,30.169827 c 0.0565,-0.110255 0.12633,-0.176926 0.15511,-0.148157 0.0288,0.02877 -0.0174,0.118981 -0.1028,0.200467 -0.1483,0.141637 -0.15061,0.139336 -0.0523,-0.05231 z"
       id="path413" />
    <path
       style="fill:#000000;stroke-width:0.0858292"
       d="m 425.25619,30.481873 c -0.22193,-0.22192 -0.0632,-0.671109 0.23603,-0.668154 0.32432,0.0032 0.3715,0.13616 0.1627,0.458366 -0.22294,0.344008 -0.25017,0.358342 -0.39873,0.209788 z"
       id="path411" />
    <path
       style="fill:#000000;stroke-width:0.0858292"
       d="m 395.54213,30.599172 c 0,-0.120934 0.0967,-0.176412 0.22297,-0.127953 0.17911,0.06874 0.14548,0.199478 -0.0513,0.199478 -0.0944,0 -0.17166,-0.03219 -0.17166,-0.07153 z"
       id="path409" />
    <path
       style="fill:#000000;stroke-width:0.0858292"
       d="m 412.5363,30.867294 c -0.36751,-0.135135 -0.51725,-0.467903 -0.37609,-0.835791 0.0473,-0.123331 0.0856,-0.119029 0.35493,0.03985 l 0.30185,0.178104 -0.0571,-0.357227 c -0.0568,-0.355003 -0.0557,-0.356861 0.1763,-0.298645 0.12837,0.03222 0.35163,0.141052 0.49612,0.241853 0.46138,0.32187 0.52069,0.513497 0.13499,0.436358 -0.29997,-0.05999 -0.79064,0.196372 -0.60064,0.313811 0.0603,0.03727 0.0859,0.129602 0.0569,0.205177 -0.0525,0.13682 -0.24222,0.166613 -0.48727,0.07651 z"
       id="path407" />
    <path
       style="fill:#000000;stroke-width:0.0858292"
       d="m 411.38823,30.882019 c -0.0546,-0.142222 0.13934,-0.261395 0.28192,-0.173268 0.11351,0.07016 0.0204,0.30526 -0.12088,0.30526 -0.0607,0 -0.13317,-0.0594 -0.16104,-0.131992 z"
       id="path405" />
    <path
       style="fill:#000000;stroke-width:0.0858292"
       d="m 399.0136,31.092362 c -0.0317,-0.05132 -0.0148,-0.136291 0.0378,-0.188824 0.0701,-0.07014 0.0955,-0.04534 0.0955,0.09331 0,0.207235 -0.0446,0.239168 -0.13335,0.09552 z"
       id="path403" />
    <path
       style="fill:#000000;stroke-width:0.0858292"
       d="m 423.99243,31.182341 c -0.0886,-0.1433 0.1583,-0.356988 0.33436,-0.289427 0.0815,0.03128 0.13625,0.119597 0.12164,0.19627 -0.0315,0.165717 -0.36859,0.234574 -0.456,0.09316 z"
       id="path401" />
    <path
       style="fill:#000000;stroke-width:0.0858292"
       d="m 410.90555,31.132246 c 0,-0.114051 0.0233,-0.119914 0.12874,-0.03241 0.0708,0.05877 0.12875,0.121429 0.12875,0.139252 0,0.01784 -0.0579,0.03241 -0.12875,0.03241 -0.0708,0 -0.12874,-0.06266 -0.12874,-0.139252 z"
       id="path399" />
    <path
       style="fill:#000000;stroke-width:0.0858292"
       d="m 410.2655,31.277429 c -0.0586,-0.09486 0.0768,-0.197292 0.15603,-0.118037 0.0816,0.0816 0.0664,0.197936 -0.0258,0.197936 -0.0444,0 -0.103,-0.03595 -0.13014,-0.0799 z"
       id="path397" />
    <path
       style="fill:#000000;stroke-width:0.0858292"
       d="m 413.90944,31.528905 c -0.10227,-0.06321 -0.10295,-0.107723 -0.004,-0.291811 0.1354,-0.253003 0.26205,-0.215637 0.26205,0.07732 0,0.241832 -0.0909,0.317522 -0.25762,0.214492 z"
       id="path395" />
    <path
       style="fill:#000000;stroke-width:0.0858292"
       d="m 423.20058,31.72963 c -0.059,-0.02382 -0.10729,-0.153183 -0.10729,-0.287495 0,-0.249457 0.14208,-0.446148 0.43585,-0.603363 0.1494,-0.07996 0.16469,-0.05763 0.16211,0.236591 -0.003,0.268768 -0.23533,0.73197 -0.35423,0.704335 -0.0161,-0.0037 -0.0774,-0.02626 -0.13644,-0.05007 z"
       id="path393" />
    <path
       style="fill:#000000;stroke-width:0.0858292"
       d="m 411.26603,31.769308 c -0.14017,-0.140178 -0.12944,-0.240322 0.0258,-0.240322 0.0715,0 0.12874,0.07629 0.12874,0.171658 0,0.200071 -0.0161,0.207173 -0.15449,0.06866 z"
       id="path391" />
    <path
       style="fill:#000000;stroke-width:0.0858292"
       d="m 412.02133,31.826368 c 0,-0.189621 0.0217,-0.206004 0.16846,-0.127435 0.18405,0.09851 0.14913,0.345028 -0.0489,0.345028 -0.0708,0 -0.11957,-0.08882 -0.11957,-0.217593 z"
       id="path389" />
    <path
       style="fill:#000000;stroke-width:0.0858292"
       d="m 415.4545,31.99598 c 0,-0.07359 0.0393,-0.109548 0.0872,-0.0799 0.048,0.02965 0.065,0.08986 0.0378,0.133808 -0.0736,0.119048 -0.12506,0.09685 -0.12506,-0.05391 z"
       id="path387" />
    <path
       style="fill:#000000;stroke-width:0.0858292"
       d="m 410.58369,32.416264 c -0.059,-0.02382 -0.10729,-0.13799 -0.10729,-0.253733 0,-0.183843 0.0217,-0.198828 0.17166,-0.11857 0.0944,0.05053 0.17166,0.167756 0.17166,0.260507 0,0.170565 -0.0416,0.190257 -0.23603,0.111796 z"
       id="path385" />
    <path
       style="fill:#000000;stroke-width:0.0858292"
       d="m 409.92055,32.505802 c -0.0764,-0.07643 -0.1211,-0.156802 -0.0993,-0.17861 0.0598,-0.05975 0.39766,0.139735 0.39766,0.234764 0,0.125995 -0.14315,0.09905 -0.29837,-0.05615 z"
       id="path383" />
    <path
       style="fill:#000000;stroke-width:0.0858292"
       d="m 412.73787,32.604817 c 0.0308,-0.08016 0.0559,-0.181215 0.0559,-0.224559 0,-0.126485 0.14873,-0.09072 0.20221,0.04863 0.0293,0.07649 -0.0236,0.166259 -0.13258,0.224559 -0.15591,0.08345 -0.17362,0.07659 -0.12555,-0.04863 z"
       id="path381" />
    <path
       style="fill:#000000;stroke-width:0.0858292"
       d="m 421.85636,32.74287 c -0.0779,-0.125999 0.0378,-0.355592 0.17922,-0.355592 0.08,0 0.1156,0.06755 0.0981,0.186391 -0.0297,0.201868 -0.19488,0.302631 -0.27733,0.169201 z"
       id="path379" />
    <path
       style="fill:#000000;stroke-width:0.0858292"
       d="m 413.30877,32.68768 c 0,-0.07081 0.0567,-0.128744 0.12606,-0.128744 0.0768,0 0.10672,0.05032 0.0766,0.128744 -0.0272,0.07081 -0.0839,0.128743 -0.12604,0.128743 -0.0422,0 -0.0767,-0.05793 -0.0767,-0.128743 z"
       id="path377" />
    <path
       style="fill:#000000;stroke-width:0.0858292"
       d="m 410.4764,33.15974 c -0.0733,-0.13701 -0.0652,-0.171658 0.0399,-0.171658 0.0745,0 0.13175,0.07455 0.13175,0.171658 0,0.09441 -0.018,0.171658 -0.0399,0.171658 -0.022,0 -0.0812,-0.07725 -0.13178,-0.171658 z"
       id="path375" />
    <path
       style="fill:#000000;stroke-width:0.0858292"
       d="m 396.22876,33.508123 c 0,-0.143887 0.15221,-0.179517 0.20288,-0.04749 0.0299,0.0779 -2.7e-4,0.12825 -0.0768,0.12825 -0.0693,0 -0.12606,-0.03634 -0.12606,-0.08076 z"
       id="path373" />
    <path
       style="fill:#000000;stroke-width:0.0858292"
       d="m 412.21444,33.617872 c -0.059,-0.02382 -0.10728,-0.117318 -0.10728,-0.207798 0,-0.176258 0.21149,-0.218143 0.42362,-0.0839 0.10213,0.06462 0.10401,0.101142 0.011,0.213259 -0.11738,0.141438 -0.15112,0.149525 -0.32728,0.07844 z"
       id="path371" />
    <path
       style="fill:#000000;stroke-width:0.0858292"
       d="m 414.81837,34.201966 c -0.0779,-0.126 0.0378,-0.355593 0.17922,-0.355593 0.08,0 0.1156,0.06755 0.0981,0.186392 -0.0297,0.201867 -0.19488,0.302631 -0.27733,0.169201 z"
       id="path369" />
    <path
       style="fill:#000000;stroke-width:0.0858292"
       d="m 395.45185,34.484706 c -0.10198,-0.122851 -0.0927,-0.136235 0.0763,-0.110143 0.10581,0.01633 0.19379,0.06736 0.19545,0.113383 0.005,0.144459 -0.15076,0.1426 -0.27178,-0.0032 z"
       id="path367" />
    <path
       style="fill:#000000;stroke-width:0.0858292"
       d="m 411.67801,35.000001 c 0,-0.07359 0.0393,-0.109548 0.0872,-0.0799 0.048,0.02965 0.065,0.08986 0.0378,0.133808 -0.0736,0.119048 -0.12507,0.09685 -0.12507,-0.05391 z"
       id="path365" />
    <path
       style="fill:#000000;stroke-width:0.0858292"
       d="m 410.13639,35.054127 c -0.14189,-0.265094 -0.10976,-0.52112 0.0654,-0.52112 0.085,0 0.19942,-0.04491 0.2543,-0.09981 0.0759,-0.07585 0.12118,-0.04362 0.18882,0.134331 0.12848,0.337922 0.11641,0.376049 -0.16517,0.521664 -0.2371,0.122604 -0.26019,0.120247 -0.34331,-0.03507 z"
       id="path363" />
    <path
       style="fill:#000000;stroke-width:0.0858292"
       d="m 414.08123,35.138878 c 0,-0.355607 0.13735,-0.398604 0.24912,-0.07799 0.12029,0.345039 0.12373,0.330408 -0.0775,0.330408 -0.13274,0 -0.17166,-0.05722 -0.17166,-0.252421 z"
       id="path361" />
    <path
       style="fill:#000000;stroke-width:0.0858292"
       d="m 408.33067,35.434213 c 0,-0.07081 0.0374,-0.128744 0.0831,-0.128744 0.0457,0 0.0609,0.05794 0.0337,0.128744 -0.0272,0.07081 -0.0646,0.128744 -0.0831,0.128744 -0.0185,0 -0.0337,-0.05794 -0.0337,-0.128744 z"
       id="path359" />
    <path
       style="fill:#000000;stroke-width:0.0858292"
       d="m 409.96274,35.67425 c 0.003,-0.265904 0.1097,-0.367901 0.26666,-0.253137 0.12368,0.09042 0.11686,0.117069 -0.0649,0.254178 -0.19502,0.147098 -0.20301,0.147058 -0.20175,-0.0011 z"
       id="path357" />
    <path
       style="fill:#000000;stroke-width:0.0858292"
       d="m 411.7529,35.756072 c -0.10675,-0.13613 -0.10372,-0.139166 0.0324,-0.03241 0.0826,0.06479 0.1502,0.132378 0.1502,0.150201 0,0.07064 -0.0705,0.02519 -0.1826,-0.117796 z"
       id="path355" />
    <path
       style="fill:#000000;stroke-width:0.0858292"
       d="m 411.24887,35.906274 c 0,-0.112533 0.0416,-0.150303 0.12874,-0.116868 0.0708,0.02717 0.12874,0.07976 0.12874,0.116868 0,0.0371 -0.0579,0.08969 -0.12874,0.116867 -0.0871,0.03343 -0.12874,-0.0043 -0.12874,-0.116867 z"
       id="path353" />
    <path
       style="fill:#000000;stroke-width:0.0858292"
       d="m 409.12459,36.017361 c -0.16503,-0.03179 -0.19311,-0.09159 -0.19311,-0.411173 0,-0.33578 0.0283,-0.38812 0.27758,-0.512448 0.25826,-0.128846 0.28514,-0.128141 0.38623,0.01011 0.13,0.177798 0.13915,0.453583 0.0249,0.753916 -0.083,0.218411 -0.12316,0.231331 -0.49564,0.159588 z"
       id="path351" />
    <path
       style="fill:#000000;stroke-width:0.0858292"
       d="m 421.60193,36.054425 c -0.0807,-0.30104 -0.0659,-0.33351 0.13867,-0.304323 0.24697,0.03524 0.29705,0.289604 0.0799,0.405816 -0.13931,0.07456 -0.17592,0.05756 -0.21857,-0.101493 z"
       id="path349" />
    <path
       style="fill:#000000;stroke-width:0.0858292"
       d="m 412.6422,36.45443 c 0.0562,-0.123372 0.11694,-0.180032 0.13499,-0.125915 0.0456,0.136836 -0.0461,0.350221 -0.15052,0.350221 -0.0544,0 -0.0486,-0.08354 0.0156,-0.224306 z"
       id="path347" />
    <path
       style="fill:#000000;stroke-width:0.0858292"
       d="m 411.373,36.585429 c -0.0317,-0.05132 -0.0241,-0.126957 0.0172,-0.168086 0.1015,-0.101506 0.32492,0.04625 0.25092,0.165967 -0.075,0.121314 -0.19379,0.122253 -0.26803,0.0021 z"
       id="path345" />
    <path
       style="fill:#000000;stroke-width:0.0858292"
       d="m 420.32096,36.649495 c -0.0664,-0.172948 0.0755,-0.346318 0.23367,-0.285615 0.11718,0.04497 0.12209,0.08107 0.0309,0.22708 -0.1263,0.20224 -0.20293,0.219191 -0.26459,0.05853 z"
       id="path343" />
    <path
       style="fill:#000000;stroke-width:0.0858292"
       d="m 412.19299,36.764565 c 0,-0.04721 0.0409,-0.08583 0.0909,-0.08583 0.05,0 0.067,0.03862 0.0378,0.08583 -0.0292,0.04721 -0.0701,0.08583 -0.0909,0.08583 -0.0209,0 -0.0378,-0.03862 -0.0378,-0.08583 z"
       id="path341" />
    <path
       style="fill:#000000;stroke-width:0.0858292"
       d="m 420.6113,36.942403 c -0.0951,-0.06022 -0.0577,-0.116094 0.17166,-0.256165 0.25215,-0.153986 0.29737,-0.160361 0.32207,-0.0454 0.0702,0.3268 -0.19652,0.489683 -0.49373,0.301561 z"
       id="path339" />
    <path
       style="fill:#000000;stroke-width:0.0858292"
       d="m 410.7675,37.071673 c -0.0257,-0.06712 0,-0.208477 0.056,-0.314124 0.091,-0.170084 0.11187,-0.175899 0.1819,-0.05076 0.05,0.08938 0.0451,0.204847 -0.0134,0.314127 -0.10938,0.204391 -0.16107,0.216074 -0.2245,0.05076 z"
       id="path337" />
    <path
       style="fill:#000000;stroke-width:0.0858292"
       d="m 412.87962,37.14573 c 0,-0.07359 0.0393,-0.109548 0.0872,-0.0799 0.048,0.02965 0.065,0.08986 0.0378,0.133807 -0.0736,0.119048 -0.12507,0.09685 -0.12507,-0.05391 z"
       id="path335" />
    <path
       style="fill:#000000;stroke-width:0.0858292"
       d="m 411.3347,37.14573 c 0,-0.07359 0.0386,-0.109937 0.0858,-0.08076 0.0472,0.02917 0.0858,0.08939 0.0858,0.133811 0,0.04442 -0.0386,0.08076 -0.0858,0.08076 -0.0472,0 -0.0858,-0.06021 -0.0858,-0.13381 z"
       id="path333" />
    <path
       style="fill:#000000;stroke-width:0.0858292"
       d="m 409.40016,37.099409 c 0.0326,-0.113356 0.16262,-0.418527 0.28887,-0.67816 0.17434,-0.358605 0.28106,-0.479297 0.44406,-0.502171 0.11801,-0.01655 0.24423,-0.07449 0.2805,-0.128744 0.085,-0.127182 0.49196,0.319078 0.49196,0.539458 0,0.217749 -0.49853,0.427333 -0.6074,0.255355 -0.0421,-0.06654 -0.0772,-0.191793 -0.0779,-0.278338 0,-0.0879 -0.0487,-0.141141 -0.1086,-0.12062 -0.0721,0.02468 -0.098,0.178281 -0.0789,0.468174 0.0263,0.398567 0.0121,0.435527 -0.18515,0.485029 -0.11742,0.02947 -0.27948,0.07891 -0.36013,0.109851 -0.12148,0.04662 -0.13644,0.02095 -0.0873,-0.149834 z"
       id="path331" />
    <path
       style="fill:#000000;stroke-width:0.0858292"
       d="m 411.20244,37.445488 c -0.0311,-0.05035 -0.0382,-0.109947 -0.0156,-0.132445 0.0225,-0.0225 0.0638,0.0187 0.0917,0.09154 0.058,0.151239 0.009,0.177843 -0.0761,0.0409 z"
       id="path329" />
    <path
       style="fill:#000000;stroke-width:0.0858292"
       d="m 410.7017,37.554387 c -0.0233,-0.03766 -0.0105,-0.120124 0.0286,-0.183254 0.0548,-0.08874 0.0932,-0.07321 0.16903,0.06847 0.0796,0.14865 0.0741,0.183253 -0.0286,0.183253 -0.0697,0 -0.14574,-0.03081 -0.16903,-0.06847 z"
       id="path327" />
    <path
       style="fill:#000000;stroke-width:0.0858292"
       d="m 411.67801,37.665772 c 0,-0.07081 0.0374,-0.128744 0.0832,-0.128744 0.0457,0 0.0609,0.05793 0.0337,0.128744 -0.0272,0.07081 -0.0646,0.128743 -0.0831,0.128743 -0.0185,0 -0.0337,-0.05793 -0.0337,-0.128743 z"
       id="path325" />
    <path
       style="fill:#000000;stroke-width:0.0858292"
       d="m 412.19299,38.066307 c 0,-0.331164 0.0656,-0.372502 0.3542,-0.22325 0.28836,0.149112 0.31081,0.254371 0.0806,0.377584 -0.29487,0.157802 -0.4348,0.108129 -0.4348,-0.154334 z"
       id="path323" />
    <path
       style="fill:#000000;stroke-width:0.0858292"
       d="m 411.42052,38.137832 c 0,-0.160214 0.0228,-0.183103 0.103,-0.102995 0.0801,0.08011 0.0801,0.125882 0,0.20599 -0.0801,0.08011 -0.103,0.05722 -0.103,-0.102995 z"
       id="path321" />
    <path
       style="fill:#000000;stroke-width:0.0858292"
       d="m 409.49838,38.100212 c -0.0287,-0.114375 -0.0123,-0.312815 0.0364,-0.440977 l 0.0886,-0.233023 0.21307,0.20018 c 0.2466,0.23165 0.45988,0.134167 0.3162,-0.14452 -0.10198,-0.19782 -0.0458,-0.37399 0.11936,-0.37399 0.0985,0 0.10514,0.03642 0.0318,0.173431 -0.11598,0.216671 -0.0708,0.290983 0.25982,0.42795 0.1444,0.05982 0.24855,0.150756 0.23144,0.202085 -0.0444,0.133295 -0.60397,0.234509 -0.6736,0.121845 -0.0365,-0.05916 -0.14709,-0.02679 -0.31368,0.09181 l -0.25722,0.183159 z"
       id="path319" />
    <path
       style="fill:#000000;stroke-width:0.0858292"
       d="m 407.85861,38.223661 c -0.07,-0.113254 0.0326,-0.273972 0.13467,-0.210906 0.10426,0.06443 0.10359,0.296735 0,0.296735 -0.0444,0 -0.10463,-0.03862 -0.13381,-0.08583 z"
       id="path317" />
    <path
       style="fill:#000000;stroke-width:0.0858292"
       d="m 409.20613,39.064787 c -0.14497,-0.144987 -0.12794,-0.298211 0.0403,-0.362789 0.18518,-0.07106 0.29753,0.111878 0.19097,0.310959 -0.0982,0.183492 -0.0994,0.183757 -0.23131,0.05183 z"
       id="path315" />
    <path
       style="fill:#000000;stroke-width:0.0858292"
       d="m 412.02133,39.135475 c 0,-0.07961 0.0596,-0.167611 0.13244,-0.195561 0.20827,-0.07992 0.22844,0.01371 0.0397,0.184476 -0.15714,0.1422 -0.17219,0.143168 -0.17219,0.01108 z"
       id="path313" />
    <path
       style="fill:#000000;stroke-width:0.0858292"
       d="m 396.74202,39.122789 c -0.0597,-0.07195 -0.0871,-0.152326 -0.0608,-0.178613 0.0766,-0.07658 0.41579,0.138021 0.36024,0.227906 -0.0726,0.117443 -0.17509,0.10057 -0.29946,-0.04929 z"
       id="path311" />
    <path
       style="fill:#000000;stroke-width:0.0858292"
       d="m 408.14378,39.093341 -0.27543,-0.246093 0.28131,-0.633656 c 0.30638,-0.690198 0.7602,-1.449032 0.8666,-1.449032 0.0981,0 0.16184,0.420241 0.11678,0.769413 -0.11316,0.876632 -0.10889,0.866327 -0.3343,0.809752 -0.28297,-0.07102 -0.27597,0.111302 0.009,0.241255 0.17973,0.08189 0.20977,0.140157 0.16474,0.31954 -0.12564,0.500623 -0.40799,0.564938 -0.82895,0.188821 z"
       id="path309" />
    <path
       style="fill:#000000;stroke-width:0.0858292"
       d="m 409.62085,39.224995 c -0.003,-0.225908 0.0309,-0.317817 0.10455,-0.293289 0.1598,0.0532 0.17198,0.260049 0.0266,0.452304 -0.12139,0.16061 -0.12863,0.151826 -0.13121,-0.159015 z"
       id="path307" />
    <path
       style="fill:#000000;stroke-width:0.0858292"
       d="m 410.14441,39.909367 c -0.16592,-0.17662 -0.17705,-0.231518 -0.087,-0.429145 0.11849,-0.260084 0.41565,-0.303533 0.62746,-0.09174 0.18732,0.187336 0.16847,0.367456 -0.0583,0.556602 -0.247,0.206052 -0.25566,0.205408 -0.48219,-0.03572 z"
       id="path305" />
    <path
       style="fill:#000000;stroke-width:0.0858292"
       d="m 409.41963,40.313953 c -0.0324,-0.03245 -0.059,-0.130144 -0.059,-0.217086 0,-0.136665 0.0233,-0.143539 0.17188,-0.05074 0.1741,0.108718 0.18879,0.245948 0.032,0.298226 -0.0472,0.01575 -0.11238,0.0021 -0.14484,-0.0304 z"
       id="path303" />
    <path
       style="fill:#000000;stroke-width:0.0858292"
       d="m 410.05404,40.405146 c 0.004,-0.09999 0.0244,-0.120321 0.0519,-0.05185 0.0247,0.06196 0.0217,0.135986 -0.007,0.164505 -0.0285,0.02852 -0.0488,-0.02218 -0.0451,-0.112651 z"
       id="path301" />
    <path
       style="fill:#000000;stroke-width:0.0858292"
       d="m 417.77188,40.53835 c 0,-0.231127 0.23611,-0.312954 0.40775,-0.141315 0.12539,0.125386 0.1171,0.144502 -0.0981,0.22631 -0.30902,0.117487 -0.30969,0.117305 -0.30969,-0.08499 z"
       id="path299" />
    <path
       style="fill:#000000;stroke-width:0.0858292"
       d="m 408.67638,40.586817 c -0.0607,-0.07308 -0.0708,-0.131603 -0.0228,-0.131603 0.0475,0 0.10415,-0.09332 0.12595,-0.207382 0.0287,-0.149906 -0.0102,-0.231551 -0.14019,-0.294592 -0.15216,-0.0738 -0.12263,-0.08811 0.19193,-0.09302 l 0.37178,-0.0058 -0.18566,-0.300402 -0.18566,-0.300402 h 0.31864 0.31864 l -0.0516,0.317992 c -0.0589,0.362741 -0.40034,1.069694 -0.53904,1.115921 -0.051,0.017 -0.14183,-0.02832 -0.20191,-0.100702 z"
       id="path297" />
    <path
       style="fill:#000000;stroke-width:0.0858292"
       d="m 409.35762,40.837808 c -0.15396,-0.185506 0.005,-0.315658 0.20473,-0.167954 0.0873,0.06449 0.13333,0.158449 0.10222,0.208796 -0.0788,0.127494 -0.17823,0.114265 -0.30695,-0.04084 z"
       id="path295" />
    <path
       style="fill:#000000;stroke-width:0.0858292"
       d="m 409.84202,41.019739 c 0.0535,-0.139475 0.28994,-0.250937 0.36759,-0.173297 0.0539,0.05391 -0.23035,0.295406 -0.34772,0.295406 -0.0367,0 -0.0457,-0.05495 -0.0198,-0.122109 z"
       id="path293" />
    <path
       style="fill:#000000;stroke-width:0.0858292"
       d="m 417.77188,41.141848 c 0,-0.04721 0.0386,-0.08583 0.0858,-0.08583 0.0472,0 0.0858,0.03862 0.0858,0.08583 0,0.04721 -0.0386,0.08583 -0.0858,0.08583 -0.0472,0 -0.0858,-0.03862 -0.0858,-0.08583 z"
       id="path291" />
    <path
       style="fill:#000000;stroke-width:0.0858292"
       d="m 409.00636,42.021597 c -0.10675,-0.136131 -0.10371,-0.139167 0.0324,-0.03241 0.0826,0.06479 0.15021,0.132378 0.15021,0.150201 0,0.07064 -0.0705,0.02519 -0.18261,-0.117795 z"
       id="path289" />
    <path
       style="fill:#000000;stroke-width:0.0858292"
       d="m 410.91987,42.198405 c -0.12386,-0.04944 -0.44347,-0.730447 -0.44347,-0.944939 0,-0.08938 0.0551,-0.11723 0.17166,-0.08675 0.0944,0.0247 0.17166,0.0111 0.17166,-0.03021 0,-0.04131 0.0568,-0.05331 0.12617,-0.02669 0.0832,0.03193 0.12134,0.155217 0.11201,0.362081 -0.008,0.172517 0.0169,0.419879 0.0548,0.549696 0.0681,0.232902 0.0315,0.266362 -0.19282,0.176808 z"
       id="path287" />
    <path
       style="fill:#000000;stroke-width:0.0858292"
       d="m 408.62603,42.303272 c -0.0917,-0.06931 -0.1215,-0.127242 -0.0663,-0.128744 0.16307,-0.0044 0.3718,0.09556 0.3718,0.178112 0,0.112484 -0.11633,0.09368 -0.30545,-0.04937 z"
       id="path285" />
    <path
       style="fill:#000000;stroke-width:0.0858292"
       d="m 417.49152,42.676122 c 0.0582,-0.05866 0.12745,-0.08503 0.1539,-0.0586 0.0263,0.02642 -0.0212,0.07442 -0.10587,0.106651 -0.12233,0.04658 -0.13217,0.03672 -0.048,-0.04805 z"
       id="path283" />
    <path
       style="fill:#000000;stroke-width:0.0858292"
       d="m 409.10142,44.272539 c -0.16586,-0.199843 -0.0475,-0.237503 0.12998,-0.04137 0.0857,0.0947 0.11595,0.172184 0.0672,0.172184 -0.0487,0 -0.13749,-0.05887 -0.19719,-0.130817 z"
       id="path281" />
    <path
       style="fill:#000000;stroke-width:0.0858292"
       d="m 415.64042,45.942949 c -0.24914,-0.09986 -0.20443,-0.26629 0.0929,-0.345803 0.22737,-0.06081 0.32202,0.03186 0.32202,0.31524 0,0.138059 -0.12389,0.147186 -0.41488,0.03056 z"
       id="path279" />
    <path
       style="fill:#000000;stroke-width:0.0858292"
       d="m 414.89661,46.119939 c 0.0292,-0.04721 0.0917,-0.08583 0.13888,-0.08583 0.0472,0 0.062,0.03862 0.0328,0.08583 -0.0292,0.04721 -0.0917,0.08583 -0.13888,0.08583 -0.0472,0 -0.062,-0.03862 -0.0328,-0.08583 z"
       id="path277" />
    <path
       style="fill:#000000;stroke-width:0.0858292"
       d="m 416.1805,46.285887 c -0.0311,-0.05035 -0.0382,-0.109947 -0.0156,-0.132445 0.0225,-0.0225 0.0638,0.0187 0.0917,0.09154 0.058,0.151239 0.009,0.177843 -0.076,0.04091 z"
       id="path275" />
    <path
       style="fill:#000000;stroke-width:0.0858292"
       d="m 407.69865,46.934823 c -0.0299,-0.0779 2.7e-4,-0.12825 0.0768,-0.12825 0.13881,0 0.1704,0.134119 0.0492,0.209015 -0.0422,0.02613 -0.099,-0.01022 -0.12603,-0.08076 z"
       id="path273" />
    <path
       style="fill:#000000;stroke-width:0.0858292"
       d="m 413.59509,47.873668 c -0.0762,-0.198652 0.0924,-0.33001 0.22251,-0.173286 0.10997,0.13249 0.0602,0.307799 -0.0874,0.307799 -0.0459,0 -0.1067,-0.06053 -0.13507,-0.134513 z"
       id="path271" />
    <path
       style="fill:#000000;stroke-width:0.0858292"
       d="m 414.82695,48.172708 c -0.0609,-0.232858 -0.0346,-0.27629 0.1428,-0.236487 0.10946,0.02454 0.11246,0.06056 0.0196,0.23274 l -0.11,0.203691 z"
       id="path269" />
    <path
       style="fill:#000000;stroke-width:0.0858292"
       d="m 394.51218,48.480242 c 0,-0.07081 0.0374,-0.128744 0.0831,-0.128744 0.0457,0 0.0609,0.05794 0.0337,0.128744 -0.0272,0.07081 -0.0646,0.128743 -0.0831,0.128743 -0.0185,0 -0.0337,-0.05793 -0.0337,-0.128743 z"
       id="path267" />
    <path
       style="fill:#000000;stroke-width:0.0858292"
       d="m 395.11127,48.563997 c -0.0597,-0.07195 -0.0819,-0.157485 -0.0493,-0.190082 0.0716,-0.07159 0.32789,0.07863 0.37491,0.219744 0.0489,0.146688 -0.19792,0.124203 -0.32561,-0.02966 z"
       id="path265" />
    <path
       style="fill:#000000;stroke-width:0.0858292"
       d="m 413.97823,50.56589 c 0.0801,-0.08011 0.12588,-0.08011 0.20599,0 0.0801,0.08011 0.0572,0.102995 -0.10299,0.102995 -0.16021,0 -0.18311,-0.02288 -0.103,-0.102995 z"
       id="path263" />
    <path
       style="fill:#000000;stroke-width:0.0858292"
       d="m 414.87464,50.733257 c 0.0193,-0.05901 0.17675,-0.119254 0.34973,-0.133882 0.25571,-0.02162 0.3049,-0.0016 0.26314,0.107286 -0.0639,0.16656 -0.66745,0.192751 -0.61287,0.02661 z"
       id="path261" />
    <path
       style="fill:#000000;stroke-width:0.0858292"
       d="m 412.79379,51.044608 c 0,-0.114051 0.0233,-0.119914 0.12874,-0.03241 0.0708,0.05877 0.12875,0.12143 0.12875,0.139253 0,0.01784 -0.0579,0.03241 -0.12875,0.03241 -0.0708,0 -0.12874,-0.06266 -0.12874,-0.139253 z"
       id="path259" />
    <path
       style="fill:#000000;stroke-width:0.0858292"
       d="m 394.82446,51.312604 c -0.0528,-0.137458 0.0196,-0.160691 0.23858,-0.07664 0.18783,0.07207 0.17048,0.205389 -0.0268,0.205389 -0.0893,0 -0.1847,-0.05794 -0.21187,-0.128744 z"
       id="path257" />
    <path
       style="fill:#000000;stroke-width:0.0858292"
       d="m 392.79919,51.891951 c -0.003,-0.308754 0.0228,-0.364774 0.16806,-0.364774 0.20945,0 0.20945,0.04656 0,0.429146 l -0.16447,0.300402 -0.003,-0.364774 z"
       id="path255" />
    <path
       style="fill:#000000;stroke-width:0.0858292"
       d="m 412.02133,52.602735 c 0,-0.07678 0.0503,-0.10674 0.12874,-0.07665 0.0708,0.02717 0.12875,0.0839 0.12875,0.126051 0,0.04215 -0.0579,0.07665 -0.12875,0.07665 -0.0708,0 -0.12874,-0.05672 -0.12874,-0.126051 z"
       id="path253" />
    <path
       style="fill:#000000;stroke-width:0.0858292"
       d="m 414.2627,53.936456 c -0.0738,-0.04561 -0.0826,-0.08984 -0.0249,-0.125477 0.049,-0.03027 0.1149,-0.01322 0.1465,0.0379 0.0788,0.12755 0.0161,0.172704 -0.12161,0.08758 z"
       id="path251" />
    <path
       style="fill:#000000;stroke-width:0.0858292"
       d="m 411.84967,53.787346 c 0,-0.251621 0.0153,-0.248271 0.16305,0.03576 0.0833,0.16004 0.0779,0.193116 -0.0313,0.193116 -0.0855,0 -0.13177,-0.08032 -0.13177,-0.228877 z"
       id="path249" />
    <path
       style="fill:#000000;stroke-width:0.0858292"
       d="m 393.40721,54.282208 c -0.0977,-0.06191 -0.0909,-0.120464 0.04,-0.342003 0.17984,-0.304438 0.19953,-0.311326 0.42295,-0.147958 0.14009,0.102447 0.14875,0.151051 0.0612,0.343316 -0.10313,0.226329 -0.30784,0.283612 -0.52407,0.146645 z"
       id="path247" />
    <path
       style="fill:#000000;stroke-width:0.0858292"
       d="m 410.33436,54.398753 c -0.0648,-0.168764 0.0118,-0.246252 0.17981,-0.181808 0.0755,0.02895 0.10951,0.106254 0.0804,0.182261 -0.0651,0.169556 -0.19502,0.16933 -0.26017,-5.36e-4 z"
       id="path245" />
    <path
       style="fill:#000000;stroke-width:0.0858292"
       d="m 413.92282,56.296047 c 0.0164,-0.07874 0.0683,-0.141122 0.11549,-0.138628 0.12741,0.0067 0.10399,0.198749 -0.0297,0.243297 -0.0722,0.02406 -0.10436,-0.01518 -0.0858,-0.104669 z"
       id="path243" />
    <path
       style="fill:#000000;stroke-width:0.0858292"
       d="m 414.33872,56.505269 c 0,-0.04721 0.0409,-0.08583 0.0909,-0.08583 0.05,0 0.067,0.03862 0.0378,0.08583 -0.0292,0.04721 -0.0701,0.08583 -0.0909,0.08583 -0.0209,0 -0.0378,-0.03862 -0.0378,-0.08583 z"
       id="path241" />
    <path
       style="fill:#000000;stroke-width:0.0858292"
       d="m 411.67801,57.101007 c 0,-0.0972 0.0386,-0.152851 0.0858,-0.123678 0.0472,0.02917 0.0858,0.1087 0.0858,0.176725 0,0.06802 -0.0386,0.123678 -0.0858,0.123678 -0.0472,0 -0.0858,-0.07953 -0.0858,-0.176725 z"
       id="path239" />
    <path
       style="fill:#000000;stroke-width:0.0858292"
       d="m 412.27882,57.497371 c 0,-0.282308 0.1171,-0.336346 0.29734,-0.137195 0.17091,0.188864 0.11139,0.346701 -0.13076,0.346701 -0.1194,0 -0.16658,-0.05934 -0.16658,-0.209506 z"
       id="path237" />
    <path
       style="fill:#000000;stroke-width:0.0858292"
       d="m 410.176,57.77744 c -0.0944,-0.05273 -0.18222,-0.103966 -0.19513,-0.11385 -0.0501,-0.03832 0.0888,-0.300029 0.15919,-0.300029 0.041,0 0.13438,0.115869 0.2076,0.257487 0.14199,0.274565 0.10318,0.309905 -0.17166,0.156392 z"
       id="path235" />
    <path
       style="fill:#000000;stroke-width:0.0858292"
       d="m 408.85986,57.889128 c -0.0876,-0.0555 -0.0737,-0.08328 0.0588,-0.117943 0.10337,-0.02703 0.19186,0.0028 0.21914,0.07392 0.0508,0.132327 -0.1008,0.156333 -0.27796,0.04402 z"
       id="path233" />
    <path
       style="fill:#000000;stroke-width:0.0858292"
       d="m 409.53228,57.964365 c 0,-0.04721 0.0409,-0.08583 0.0909,-0.08583 0.05,0 0.067,0.03862 0.0378,0.08583 -0.0292,0.04721 -0.0701,0.08583 -0.0909,0.08583 -0.0209,0 -0.0378,-0.03862 -0.0378,-0.08583 z"
       id="path231" />
    <path
       style="fill:#000000;stroke-width:0.0858292"
       d="m 453.34807,58.640911 c -0.95219,-0.07352 -1.75496,-0.288598 -2.6607,-0.712852 -1.79796,-0.842182 -2.54368,-2.103295 -2.80782,-4.748456 -0.11834,-1.184804 -0.0145,-2.412419 0.36027,-4.263215 0.14258,-0.703899 0.24949,-1.288291 0.23761,-1.298652 -0.0118,-0.01035 -0.50441,0.602754 -1.09448,1.362474 -2.84953,3.668768 -4.69875,5.558554 -6.73759,6.885422 -1.30458,0.849007 -2.38748,1.276514 -3.47608,1.372288 -2.59355,0.228177 -4.54946,-1.971732 -4.44708,-5.00185 0.0147,-0.437327 1.9e-4,-0.785388 -0.0324,-0.773469 -0.0326,0.01191 -0.82477,0.755512 -1.76033,1.652427 -2.58727,2.480379 -3.79861,3.448846 -5.22882,4.180419 -1.24635,0.637531 -1.81808,0.795693 -2.86485,0.792536 -1.05084,-0.0032 -1.5674,-0.156821 -2.37813,-0.707391 -0.90277,-0.613042 -2.03268,-2.041712 -2.56278,-3.240356 -0.48032,-1.08608 -0.59064,-1.688775 -0.58836,-3.213852 0,-0.782972 0.0669,-1.953451 0.14709,-2.61779 0.0797,-0.660885 0.18158,-1.665086 0.2264,-2.231558 0.0985,-1.245172 0.32162,-1.964383 1.0786,-3.476082 1.03078,-2.058403 3.30212,-5.784186 4.89597,-8.031019 2.46101,-3.469245 4.79782,-5.745343 8.36494,-8.147538 0.70079,-0.471937 2.50492,-1.419049 2.89981,-1.522314 0.10453,-0.02733 0.19004,-0.111246 0.19004,-0.186475 0,-0.07523 0.0428,-0.13678 0.095,-0.13678 0.0523,0 0.0753,0.0513 0.0513,0.114006 -0.0352,0.09178 0.0425,0.08887 0.39849,-0.01491 0.29351,-0.08556 0.84644,-0.131123 1.64387,-0.135463 1.05559,-0.0057 1.27982,0.01912 1.84533,0.204571 1.81003,0.593598 3.23938,2.25407 3.82639,4.445125 0.12966,0.483862 0.2654,0.879749 0.30172,0.879749 0.096,0 0.87262,-1.316394 1.18997,-2.016985 0.14966,-0.330442 0.50478,-1.180151 0.78914,-1.888242 0.80618,-2.007541 1.60611,-3.624536 1.82173,-3.682407 0.51519,-0.138268 0.97362,0.09618 1.69349,0.866052 1.65395,1.768837 2.68162,4.230645 2.48545,5.953956 -0.0498,0.437806 -0.45224,1.148322 -4.90972,8.668746 -5.67385,9.572586 -5.41446,9.126937 -6.01698,10.337579 -0.59361,1.192776 -0.88624,1.930566 -1.05604,2.662778 -0.21173,0.913034 -0.0396,1.328278 0.55075,1.328278 0.93433,0 2.58346,-1.469929 4.86276,-4.334373 2.98994,-3.757504 5.84719,-7.590941 6.67386,-8.954023 0.22605,-0.372738 1.55069,-3.12603 2.94367,-6.118427 1.64787,-3.539943 3.25092,-6.821989 4.58854,-9.394413 1.13074,-2.17453 2.05588,-3.976055 2.05588,-4.003391 0,-0.06111 -0.58217,0.06244 -1.1587,0.245892 -0.62913,0.200191 -1.70926,0.757765 -2.35416,1.215234 -0.55207,0.391596 -1.93888,1.716302 -2.64482,2.526358 -0.47654,0.546796 -0.69133,0.546796 -0.96234,0 -0.2747,-0.554293 -0.33301,-1.572656 -0.13394,-2.338845 0.18037,-0.694133 0.69285,-1.689958 1.20415,-2.339771 0.71601,-0.909995 3.31792,-2.805034 5.19151,-3.781134 0.49567,-0.258228 1.7021,-0.768099 2.68096,-1.13305 l 1.77977,-0.663542 0.70115,-1.341206 c 0.78649,-1.504507 3.15368,-5.6724067 4.00339,-7.0488437 1.04237,-1.6884556 2.24135,-3.2652367 3.049,-4.00970014 1.02207,-0.94210926 2.09477,-0.51639389 2.70842,1.07488694 0.39447,1.0228611 0.52957,1.5924235 0.58589,2.4700536 0.0956,1.4896993 -0.28068,2.5710959 -1.7239,4.9542984 -0.77756,1.2839779 -1.54192,2.7179099 -1.48117,2.7786519 0.0488,0.04879 2.12577,-0.35603 2.94281,-0.573577 3.03117,-0.807087 6.52487,-2.5144247 8.16726,-3.9912416 0.24985,-0.2246632 0.76544,-0.8675827 1.14574,-1.4287151 0.38033,-0.5611323 0.77053,-1.062549 0.86715,-1.1142557 0.21728,-0.1162798 0.88275,-0.059423 1.21673,0.1039579 0.34147,0.1670504 0.49786,0.6460227 0.46222,1.4155859 -0.0413,0.8920842 -0.46308,1.6985726 -1.40701,2.6904682 -0.39959,0.4199058 -1.00554,0.9884324 -1.34658,1.2633944 -0.34104,0.274962 -1.45046,1.17951 -2.46539,2.01011 -3.22347,2.638027 -4.44289,3.494934 -6.22261,4.372709 -1.2265,0.60493 -1.58004,0.725278 -3.89206,1.324918 -1.76328,0.45732 -2.77574,0.774118 -3.22307,1.008485 -0.18529,0.09708 -0.70174,1.011285 -2.46647,4.366036 -4.29352,8.161989 -6.29138,12.395846 -8.74569,18.533798 -1.33253,3.332516 -1.92362,5.169108 -2.34797,7.29548 -0.28667,1.436453 -0.35313,2.325074 -0.229,3.061054 0.17337,1.027877 0.56824,1.422702 1.47406,1.473885 0.77018,0.04352 1.45153,-0.188392 2.44066,-0.830727 1.60401,-1.041617 2.93254,-2.255649 5.77166,-5.274245 3.84816,-4.091388 5.03236,-5.563254 7.26507,-9.02987 3.41804,-5.307016 4.84176,-6.980052 8.13151,-9.555522 2.52523,-1.976957 3.92698,-2.644142 5.75197,-2.737763 1.97357,-0.101244 3.21887,0.485758 3.85379,1.816547 0.36426,0.763494 0.44845,1.311795 0.39629,2.580454 -0.14146,3.440068 -2.20149,7.35338 -5.25235,9.977625 -2.18727,1.881435 -5.20511,3.387807 -8.12201,4.054171 l -0.82434,0.188325 -0.44776,1.41318 c -0.81698,2.578467 -0.89152,2.93281 -0.9,4.279067 -0.007,1.088679 0.0105,1.235422 0.18478,1.56141 0.6604,1.2355 2.47182,1.274909 4.74284,0.103185 1.56485,-0.807384 2.98696,-1.955736 5.11488,-4.130312 3.84759,-3.931925 7.33072,-8.618364 11.72303,-15.772982 2.20112,-3.585374 2.85508,-4.715607 3.99782,-6.909248 1.89124,-3.630437 2.82117,-5.05176 3.83061,-5.854603 0.52597,-0.418326 0.81974,-0.444303 1.32901,-0.117503 1.4095,0.904478 2.26101,2.706295 1.99952,4.231136 -0.11074,0.645876 -0.29072,1.050378 -0.80467,1.808821 -0.55848,0.824139 -0.75305,1.32223 -0.75399,1.930386 0,0.717945 0.20495,1.297268 1.07263,3.01578 0.39521,0.782746 0.80365,1.674221 0.90767,1.98106 0.2352,0.693961 0.3196,2.160176 0.16924,2.940245 -0.0967,0.501977 -3.42815,7.979616 -5.45822,12.251519 -0.39257,0.826105 -0.79438,1.743971 -0.89295,2.039703 -0.37775,1.133637 -0.44097,2.531899 -0.12005,2.655048 0.23774,0.09123 1.49718,-0.216708 2.14546,-0.524572 2.2292,-1.058641 4.81885,-3.767169 7.63893,-7.989577 1.20598,-1.805675 2.54687,-4.052339 3.27846,-5.493067 0.43148,-0.849709 0.97901,-1.803228 1.21676,-2.118935 0.69806,-0.927011 1.52902,-1.422267 2.01484,-1.2009 0.27742,0.126383 0.55674,0.587672 0.55714,0.920043 0,0.943373 -0.99817,3.038897 -2.57699,5.403813 -0.22061,0.330442 -0.88708,1.380079 -1.48104,2.332525 -2.75579,4.419106 -4.57153,6.851185 -6.67593,8.942083 -2.37116,2.35593 -4.6039,3.769657 -6.73504,4.264449 -1.30211,0.302317 -2.81466,0.133277 -3.75891,-0.420088 -0.8716,-0.510791 -1.60844,-1.635724 -1.96783,-3.004206 -0.25113,-0.956223 -0.26988,-3.256705 -0.0354,-4.347224 0.32728,-1.522335 1.13622,-3.726646 2.15761,-5.879298 0.6037,-1.272353 1.92566,-3.708541 2.49095,-4.590431 0.8959,-1.39769 1.34629,-2.669402 1.17066,-3.305439 -0.10098,-0.36582 -1.81365,-2.82555 -1.90179,-2.73139 -0.0362,0.03865 -0.18654,0.363218 -0.33414,0.72126 -0.47182,1.144492 -1.39695,2.648731 -2.87235,4.670421 -0.37897,0.519266 -1.51762,2.160749 -2.53033,3.64774 -3.75036,5.5067 -5.5606,7.791738 -8.26283,10.429955 -3.26515,3.187792 -6.65605,5.261288 -9.694,5.927784 -0.89329,0.195983 -2.53284,0.196321 -3.25421,8.04e-4 -2.50589,-0.67967 -3.94763,-2.858095 -4.20104,-6.347593 -0.045,-0.620121 -0.052,-1.552349 -0.0156,-2.071615 0.0365,-0.519267 0.0493,-0.963433 0.0286,-0.987036 -0.0206,-0.0236 -0.0815,0.03066 -0.13491,0.12058 -1.39996,2.354264 -4.7606,5.518598 -8.35842,7.870178 -2.37683,1.553518 -3.90359,2.03031 -5.98645,1.869499 z M 427.7503,52.390117 c 0.93814,-0.463241 3.24349,-2.442135 4.38936,-3.767783 1.48863,-1.722178 2.54827,-3.311487 4.81582,-7.222988 0.69782,-1.203754 1.48275,-2.536252 1.74426,-2.961107 1.69888,-2.759941 2.23516,-4.264628 1.86521,-5.233331 -0.18733,-0.490519 -0.46633,-0.684472 -1.15706,-0.804351 l -0.55084,-0.0956 -0.95117,0.520929 c -4.40856,2.414452 -7.98659,6.129233 -11.48193,11.920797 -0.80809,1.338935 -1.16615,2.051275 -1.55314,3.089851 -0.77058,2.067994 -0.76763,3.646312 0.008,4.403894 0.42673,0.416706 0.67094,0.488602 1.56161,0.459771 0.6265,-0.02028 0.81151,-0.06408 1.3097,-0.310082 z m 51.04296,-11.293094 c 1.51947,-0.625823 3.47305,-1.97215 4.96991,-3.425107 2.10383,-2.042106 3.18702,-3.951719 3.18702,-5.618616 0,-0.634103 -0.0113,-0.673571 -0.22001,-0.76867 -0.19776,-0.0901 -0.28241,-0.05996 -0.83684,0.298021 -2.40158,1.550643 -5.67164,5.426763 -7.86538,9.323166 -0.34211,0.607623 -0.28214,0.622608 0.7653,0.191206 z"
       id="path229" />
    <path
       style="fill:#000000;stroke-width:0.0858292"
       d="m 408.97088,58.988615 c -0.0311,-0.05035 -0.036,-0.112149 -0.0107,-0.137337 0.0615,-0.06148 0.22887,0.04685 0.22887,0.148114 0,0.109687 -0.14819,0.102365 -0.21811,-0.01078 z"
       id="path227" />
    <path
       style="fill:#000000;stroke-width:0.0858292"
       d="m 412.79983,59.218224 -0.20854,-0.117706 0.27859,-0.144075 c 0.40091,-0.20731 0.73929,-0.150681 0.73929,0.123712 0,0.184082 -0.0427,0.217502 -0.3004,0.235174 -0.16523,0.01135 -0.39425,-0.03236 -0.50894,-0.0971 z"
       id="path225" />
    <path
       style="fill:#000000;stroke-width:0.0858292"
       d="m 411.70269,59.683684 c -0.21412,-0.173391 -0.17464,-0.260212 0.11836,-0.260212 0.14103,0 0.20028,0.04929 0.20028,0.166591 0,0.239088 -0.10198,0.269053 -0.31864,0.09362 z"
       id="path223" />
    <path
       style="fill:#000000;stroke-width:0.0858292"
       d="m 408.84565,60.153019 c -0.0901,-0.1086 -0.0733,-0.128743 0.10771,-0.128743 0.11802,0 0.26267,0.05793 0.32143,0.128743 0.0901,0.108601 0.0733,0.128744 -0.10771,0.128744 -0.11802,0 -0.26266,-0.05793 -0.32143,-0.128744 z"
       id="path221" />
    <path
       style="fill:#000000;stroke-width:0.0858292"
       d="m 390.13489,61.060518 c 0,-0.122829 0.0551,-0.177951 0.17796,-0.177951 0.21994,0 0.19499,0.284082 -0.0288,0.327168 -0.103,0.01982 -0.14921,-0.02639 -0.14921,-0.149217 z"
       id="path219" />
    <path
       style="fill:#000000;stroke-width:0.0858292"
       d="m 394.74105,62.198616 c -0.10343,-0.103427 -0.0598,-0.266723 0.0861,-0.322737 0.14503,-0.05565 0.28208,0.07572 0.2845,0.272669 0,0.112186 -0.27162,0.149064 -0.37062,0.05007 z"
       id="path217" />
    <path
       style="fill:#000000;stroke-width:0.0858292"
       d="m 404.10359,41.435643 c -0.0354,-0.0357 -0.0644,-0.143452 -0.0644,-0.239436 0,-0.126322 0.026,-0.148595 0.0939,-0.08064 0.0516,0.05163 0.0806,0.159379 0.0644,0.239439 -0.0164,0.08006 -0.0585,0.116347 -0.0939,0.08064 z"
       id="path215" />
    <path
       style="fill:#000000;stroke-width:0.0858292"
       d="m 398.05263,51.641992 c -0.14945,-0.0603 -0.13443,-0.200644 0.0215,-0.200644 0.0708,0 0.12874,0.05794 0.12874,0.128744 0,0.07081 -0.01,0.125694 -0.0215,0.121968 -0.0118,-0.0037 -0.0697,-0.02626 -0.12874,-0.05007 z"
       id="path213" />
    <path
       style="fill:#000000;stroke-width:0.0858292"
       d="m 401.17322,65.472526 c -2.51475,-0.660597 -4.10221,-3.59154 -4.83598,-5.795689 -2.39756,-7.671253 -0.0959,-15.666581 1.71397,-23.194524 1.50933,-6.913145 4.38873,-13.42089 6.83847,-20.034529 1.98979,-4.890368 4.08646,-9.8253663 7.18368,-14.127509 2.01446,-3.05043358 7.09263,-2.36841783 7.94454,1.2604746 0.71801,3.0405853 -1.82683,5.3154553 -2.81137,7.9584914 -1.20519,2.587234 -2.71702,5.094795 -3.5967,7.796013 -0.7035,2.524209 -2.3843,4.67095 -2.84438,7.297467 -1.13548,1.936328 -1.5699,4.457305 -1.63595,5.701093 -1.74431,0.724433 -0.0499,1.673945 0.24091,0.596741 1.79964,1.195104 0.45041,0.92343 -0.59264,1.699779 -0.95752,-1.642641 -1.60931,2.125782 -0.0999,2.162327 -0.61125,2.173398 -1.44661,-1.6939 -1.65141,0.828699 -0.32232,0.635608 0.0742,2.046243 0.39277,0.548864 0.30556,0.674655 -0.9976,3.301513 0.37537,1.850113 -0.12317,0.662534 1.55191,1.029963 1.34773,1.366059 -1.06473,0.951701 -1.74948,1.031211 -0.42424,2.001282 0.49627,1.849331 -2.84648,3.142761 -0.4835,4.448118 -1.26198,-0.798498 2.12836,-1.16637 0.14388,-1.132358 -0.41027,-1.775137 1.89111,0.118705 0.8728,-1.576928 1.16392,1.464583 0.23744,-2.190286 0.90339,-0.641474 2.47683,-4.361922 4.46967,-8.987114 6.68331,-13.489379 3.37828,-7.340307 7.03476,-14.553395 11.21496,-21.4722313 1.64847,-2.7451334 3.19106,-5.7308671 5.69688,-7.7872533 3.47159,-1.81829071 5.59172,2.4818325 2.85632,4.7836515 -5.03232,8.8860881 -10.69112,17.4259531 -15.31513,26.5364731 1.70408,0.268715 -1.84671,1.90507 -1.69896,3.101858 -0.0549,2.185847 -2.96615,3.624016 -2.86548,6.089921 -1.6589,2.117242 -3.01607,4.419837 -3.94108,7.022615 -1.12639,2.618015 -2.51309,5.102788 -3.74598,7.559114 -1.20098,3.081541 -2.27646,6.928493 -5.59961,8.445955 -0.71702,0.260959 -1.5189,0.405755 -2.26671,0.196766 z m -2.92452,-3.323187 c -1.598,-1.031954 0.62028,0.722046 0,0 z m -0.0842,-1.001817 c -0.74559,-0.518432 -0.18796,0.598916 0,0 z m 5.3168,-0.995688 c -0.53375,-0.806019 -0.428,0.560172 0,0 z m -5.23277,-1.066245 c -1.24659,-1.149526 -0.40322,1.272857 0,0 z m -0.43196,-2.408662 c -0.13072,-0.320411 -0.30668,0.360416 0,0 z m 11.17804,-0.107286 c -0.50191,-0.872218 -0.91378,0.666657 0,0 z m -11.9505,-0.321859 c -0.11299,-0.325441 -0.19265,0.332378 0,0 z M 409.38305,55.0257 c -0.11139,-1.541162 -0.83705,0.959369 0,0 z m -0.7873,-0.730532 c -0.58708,-1.181836 -0.77535,1.094139 0,0 z m 0.89936,-0.366957 c 0.42648,-0.869482 -1.03113,0.222252 0,0 z m -11.738,-1.244612 c -0.24179,0.132681 -0.0797,0.36737 0,0 z m 0.5838,-0.920392 c 1.75518,-3.304584 -2.39476,0.811864 0,0 z m 10.96899,-1.278624 c -0.52078,-0.265885 0.0905,0.855554 0,0 z m -9.7338,-0.03027 c -0.30859,-0.36714 -0.32482,0.370419 0,0 z m -2.91819,-0.514976 c 0.0952,-0.542789 -0.68804,0.595912 0,0 z m 0.89667,-0.05024 c -0.39349,-0.198006 0.001,0.440515 0,0 z m 1.96691,-0.03509 c -0.35839,-0.329544 -0.0403,0.416349 0,0 z m -2.80095,-0.703373 c -0.38918,-0.724894 -0.3704,0.507245 0,0 z m 2.42346,-0.203868 c -0.6395,-0.632789 0.0253,0.819596 0,0 z m 2.27579,-0.573806 c 0.40659,-1.172574 -1.04543,0.621977 0,0 z m -0.64208,-0.541499 c -0.31634,-0.376621 -0.14637,0.439027 0,0 z m -1.10688,-0.706988 c -0.85063,-0.304632 0.39501,0.508629 0,0 z m -1.09885,-0.339353 c -0.15531,-2.054398 -2.01831,0.579967 0,0 z m 2.48955,-0.0335 c -0.13432,-1.400018 -1.46913,0.489192 0,0 z m 1.64229,-1.962028 c -1.46416,0.686988 0.62754,2.448495 0.0378,0.194591 l -0.0297,-0.153138 z m 3.00794,1.040759 c 1.72537,-0.581731 -0.55375,-2.311363 -0.15889,-0.705781 -0.31568,0.272017 -0.67116,1.446071 0.15889,0.705781 z m -0.63195,0.0092 c -0.30316,-0.172425 0.34525,0.477664 0,0 z m 2.57027,-0.452228 c 1.20061,-1.084905 -1.50558,0.687223 0,0 z m -5.94555,-0.824215 c 0.43952,-1.059063 2.1395,0.306581 0.69858,-0.982406 -0.48291,-0.01094 -2.36837,1.407429 -0.69858,0.982406 z m -1.24528,-0.159774 c 0.0633,-0.608102 -0.3294,0.647611 0,0 z m 5.95553,-0.663344 c -0.0249,-0.53455 1.16534,-1.869488 -0.38131,-2.001909 -0.54791,0.379531 -0.87093,3.060389 0.38131,2.001909 z m -9.49939,-0.109119 c -0.20713,-0.337059 -0.20713,0.33706 0,0 z m 10.47116,-0.171658 c -0.22512,-0.586108 -0.40025,0.726 0,0 z m -5.29037,-0.214573 c -0.32636,-0.487649 -0.0841,0.446867 0,0 z m -2.47717,-0.04291 c -0.55684,-0.44801 -0.27509,0.382216 0,0 z m 3.49596,-0.407689 c -1.87247,-1.106029 3.26105,-1.121666 0.69028,-2.436687 0.0663,2.390978 -1.07829,0.148709 -1.5674,0.451802 -0.42681,0.528632 1.26851,3.371329 0.87712,1.984885 z m -1.61764,0.02655 c -0.32268,-0.301598 0.13989,0.562034 0,0 z m 0.76431,-0.133917 c -0.48517,-0.739856 -0.0568,0.767117 0,0 z m -0.53981,-0.762367 c -0.42427,-1.363093 -0.50777,1.038329 0,0 z m 5.86741,-0.310412 c -0.0913,-0.445872 -0.32094,0.484337 0,0 z m -1.20045,-0.197214 c 0.003,-0.812325 -0.59171,0.33877 0,0 z m 0.9781,-0.240812 c -0.70221,-0.806484 -0.12726,0.935725 0,0 z m 1.09607,-0.02832 -0.28372,8.05e-4 z m -0.56143,-0.135181 c -0.28762,-0.595212 -0.32916,0.678868 0,0 z m -1.28875,-0.879022 c -0.51639,-0.728566 0.0164,1.071379 0,0 z m -4.76038,0.03074 c 0.34124,-1.036556 -0.92164,0.433862 0,0 z m -2.36213,-0.187936 c -0.45984,-0.556337 -0.42116,0.40587 0,0 z m 1.4982,-0.716378 c -0.43447,-0.654593 -0.45774,0.405119 0,0 z m 1.50582,-0.0062 c -0.11299,-0.32544 -0.19265,0.332378 0,0 z m -0.0582,-0.549047 c -0.32847,-0.715695 -0.57874,0.423639 0,0 z m -1.79903,-1.38211 c -0.10299,-0.534058 -0.27268,0.493725 0,0 z"
       id="path123" />
  </g>
</svg>
