<?xml version="1.0" encoding="UTF-8" standalone="no"?>
<!-- Created with Inkscape (http://www.inkscape.org/) -->

<svg
   version="1.1"
   id="svg9"
   width="475"
   height="300"
   viewBox="0 0 475 300"
   sodipodi:docname="stv-schriftzug-vereinfacht.svg"
   inkscape:version="1.2.1 (9c6d41e410, 2022-07-14)"
   xmlns:inkscape="http://www.inkscape.org/namespaces/inkscape"
   xmlns:sodipodi="http://sodipodi.sourceforge.net/DTD/sodipodi-0.dtd"
   xmlns="http://www.w3.org/2000/svg"
   xmlns:svg="http://www.w3.org/2000/svg">
  <defs
     id="defs13" />
  <sodipodi:namedview
     id="namedview11"
     pagecolor="#ffffff"
     bordercolor="#000000"
     borderopacity="0.25"
     inkscape:showpageshadow="2"
     inkscape:pageopacity="0.0"
     inkscape:pagecheckerboard="0"
     inkscape:deskcolor="#d1d1d1"
     showgrid="false"
     inkscape:zoom="4.6654118"
     inkscape:cx="155.29176"
     inkscape:cy="121.53268"
     inkscape:window-width="2560"
     inkscape:window-height="1369"
     inkscape:window-x="-8"
     inkscape:window-y="-8"
     inkscape:window-maximized="1"
     inkscape:current-layer="g15" />
  <g
     inkscape:groupmode="layer"
     inkscape:label="Image"
     id="g15">
    <path
       style="fill:#000000;stroke-width:0.32"
       d="m 11.454892,47.630675 v -6.57645 l 7.5203,0.0964 c 4.1362,0.053 7.5161,0.0245 7.511,-0.0636 -0.01,-0.088 -2.8278,-3.976 -6.2726,-8.64 -3.4448,-4.664 -7.9788,-10.8168 -10.0756,-13.6729 l -3.8123997,-5.1929 3.1519,-5.6870995 3.1519997,-5.6871 13.1727,-0.0835 13.1727,-0.0836 v 6.55776 6.5577595 l -7.5082,0.0858 -7.5083,0.0858 9.2803,12.42418 9.2804,12.42419 -5.0014,7.01582 -5.0014,7.01582 h -10.5307 -10.5307 z"
       id="path647" />
    <path
       style="fill:#000000;stroke-width:0.32"
       d="M 321.85489,28.447105 V 2.3671055 l 9.52,0.006 9.52,0.006 2.4557,3.75388 c 1.3505,2.06463 5.2508,8.0018695 8.6671,13.1938695 3.4164,5.192 7.8807,11.98832 9.9207,15.10294 l 3.7091,5.66295 -5.0163,7.20676 -5.0163,7.20676 -16.88,0.0103 -16.88,0.0103 z m 23.46,5.36 c -2.7526,-4.18 -6.2253,-9.472 -7.7173,-11.76 -1.4919,-2.288 -2.8364,-4.2968 -2.9877,-4.464 -0.1538,-0.1701 -0.275,5.00964 -0.275,11.76 v 12.064 h 7.9923 7.9923 z"
       id="path645" />
    <path
       style="fill:#000000;stroke-width:0.32"
       d="m 271.06019,50.761395 c -2.857,-2.06486 -5.197,-3.84297 -5.2,-3.95137 0,-0.10839 2.6587,-3.61777 5.9147,-7.79862 3.256,-4.18084 5.92,-7.69533 5.92,-7.80998 0,-0.11465 -1.2103,-1.41247 -2.6896,-2.88406 l -2.6896,-2.67562 4.1963,-5.24395 4.1962,-5.24394 2.6524,2.63865 c 2.6272,2.61348 2.6583,2.63262 3.2587,2.00663 0.5394,-0.56233 9.0618,-11.4050895 12.3668,-15.7337995 l 1.2688,-1.66178 7.76,-0.0182 7.76,-0.0182 v 26.0799995 26.08 h -6.7378 -6.7379 l -7.2621,-7.03228 -7.2622,-7.03229 -0.8,0.89369 c -0.44,0.49153 -2.95,3.65606 -5.5778,7.03229 -2.6279,3.37623 -4.8599,6.13602 -4.96,6.13288 -0.1002,-0.003 -2.5198,-1.69515 -5.3769,-3.76 z m 32.0747,-22.15445 c 0,-4.57598 -0.072,-8.31379 -0.16,-8.30624 -0.088,0.008 -1.834,2.14363 -3.8799,4.74683 l -3.72,4.73309 3.72,3.55606 c 2.0459,1.95583 3.7919,3.56375 3.8799,3.57315 0.088,0.009 0.16,-3.7269 0.16,-8.30289 z"
       id="path643" />
    <path
       style="fill:#000000;stroke-width:0.32"
       d="m 200.33489,48.735275 c -1.98,-3.18241 -3.6,-6.13149 -3.6,-6.55351 v -0.76731 l 12.6153,-0.0837 12.6153,-0.0837 -4.3753,-5.93478 c -13.6279,-18.48536 -15.7353,-21.37683 -15.7353,-21.58987 0,-0.12876 1.3839,-2.73639 3.0753,-5.7947295 l 3.0754,-5.56063 h 13.2346 13.2346 l -0.07,6.48 -0.07,6.4799995 h -7.4403 c -4.0921,0 -7.4397,0.072 -7.4392,0.16 7e-4,0.088 4.1003,5.632 9.1104,12.32 5.0102,6.688 9.113,12.304 9.1174,12.48 0,0.176 -2.1945,3.41601 -4.8862,7.20001 l -4.8942,6.88 -11.984,0.0772 -11.9839,0.0772 z"
       id="path641" />
    <path
       style="fill:#000000;stroke-width:0.32"
       d="m 75.774892,50.651855 c -2.904,-2.1145 -5.2458,-3.97424 -5.204,-4.13275 0.042,-0.15851 2.7501,-3.71356 6.0183,-7.9001 l 5.9422,-7.6119 -2.7382,-2.65334 c -1.5061,-1.45934 -2.7383,-2.73837 -2.7383,-2.84227 0,-0.1798 6.9666,-9.027 7.8862,-10.01515 0.3798,-0.40805 0.7956,-0.11521 3.1215,2.1986 l 2.6833,2.66935 1.8745,-2.37311 c 1.031,-1.30522 4.2505,-5.42447 7.1545,-9.1538895 l 5.279998,-6.78078 7.76,-0.005 7.76,-0.005 v 26.0799995 26.08001 l -6.96,-0.0105 -6.96,-0.0105 -7.039998,-6.85537 c -3.872,-3.77045 -7.1381,-6.86174 -7.2579,-6.86953 -0.1199,-0.008 -2.5495,2.97384 -5.3992,6.62584 -2.8497,3.652 -5.3437,6.81309 -5.5421,7.02464 -0.2761,0.29437 -1.5999,-0.5176 -5.6408,-3.45992 z m 31.929198,-26.54315 -0.089,-4.14014 -3.7988,4.82573 -3.7987,4.82572 3.7987,3.60732 3.7988,3.60732 0.089,-4.29291 c 0.049,-2.3611 0.049,-6.15596 0,-8.43304 z"
       id="path639" />
    <path
       style="fill:#000000;stroke-width:0.32"
       d="m 251.13529,36.230565 3e-4,-20.90346 -6.0803,0.0934 -6.0804,0.0934 v -6.5733795 -6.57338 h 19.36 19.36 v 6.57139 6.5713895 l -6.8,-0.0359 -6.8,-0.0359 -0.087,17.22453 -0.087,17.22454 -5.9705,3.52 c -3.2838,1.936 -6.1608,3.56656 -6.3934,3.62346 -0.3471,0.085 -0.4227,-3.63724 -0.4224,-20.80001 z"
       id="path637" />
    <path
       style="fill:#000000;stroke-width:0.32"
       d="m 169.45819,55.257395 c -0.087,-1.01766 -0.083,-13.40629 0.01,-27.53029 l 0.165,-25.6799995 h 6.1922 6.1922 v 19.8332395 19.83323 l 6.3116,0.0868 6.3117,0.0868 3.6046,6.08001 c 1.9826,3.344 3.6063,6.18813 3.6084,6.3203 0,0.13216 -6.2655,0.2295 -13.9278,0.21631 l -13.9315,-0.024 -1.5085,0.87663 c -0.8297,0.48215 -1.8143,1.07344 -2.188,1.31397 -0.6601,0.42483 -0.6841,0.38441 -0.8372,-1.41294 z"
       id="path635" />
    <path
       style="fill:#000000;stroke-width:0.32"
       d="m 153.93689,53.306785 -6.158,-3.73967 v -8.88001 -8.88 h -4.32 -4.32 v 11.20001 11.2 h -6.4 -6.4 V 28.127105 2.0471055 h 6.4 6.4 v 9.2799995 9.28 h 4.32 4.32 v -9.28 -9.2799995 h 6.3951 6.3951 l 0.085,9.1999995 0.085,9.2 3.44,0.0908 c 2.1379,0.0564 3.44,0.21837 3.44,0.42778 0,0.18532 -1.584,2.40634 -3.52,4.93559 l -3.52,4.59864 v 13.29359 c 0,7.31147 -0.108,13.28443 -0.24,13.27326 -0.132,-0.0112 -3.0111,-1.70318 -6.398,-3.76 z"
       id="path633" />
    <path
       style="fill:#000000;stroke-width:0.32"
       d="m 55.934892,36.145995 v -20.97889 h -6.24 -6.24 v -6.5599995 -6.56 h 19.52 19.52 v 6.55376 6.5537595 l -6.8912,0.0862 -6.8912,0.0862 0.01,16.96 c 0,9.328 -0.098,17.10941 -0.2288,17.29201 -0.1747,0.24359 -8.5122,5.25911 -12.3181,7.41012 -0.132,0.0746 -0.24,-9.30485 -0.24,-20.84324 z"
       id="path631" />
    <path
       style="fill:#000000;stroke-width:0.32"
       d="m 369.45719,36.390055 -0.082,-20.94378 -6.08,-0.0596 -6.08,-0.0596 -0.087,-6.4799995 -0.087,-6.48 h 18.4066 18.4066 v 6.57396 6.5739595 l -5.7577,-0.094 -5.7576,-0.094 -0.082,17.25667 -0.082,17.25668 -2.24,1.33641 c -1.232,0.73502 -4.075,2.42103 -6.3177,3.74669 l -4.0778,2.41028 z"
       id="path629" />
    <path
       style="fill:#000000;stroke-width:0.32"
       d="m 40.684692,88.155215 c -0.2881,-0.33654 -0.7187,-0.53714 -0.9568,-0.44576 -0.2557,0.0981 -0.433,-0.0491 -0.433,-0.35936 0,-0.40259 0.1318,-0.45495 0.5636,-0.22388 0.6487,0.34717 1.8809,1.6409 1.5629,1.6409 -0.117,0 -0.4485,-0.27535 -0.7367,-0.6119 z"
       id="path627" />
    <path
       style="fill:#000000;stroke-width:0.32"
       d="m 36.734892,89.407115 c 0,-0.5837 0.1328,-0.9157 0.32,-0.8 0.176,0.10877 0.32,0.46877 0.32,0.8 0,0.33123 -0.144,0.69123 -0.32,0.8 -0.1872,0.1157 -0.32,-0.2163 -0.32,-0.8 z"
       id="path625" />
    <path
       style="fill:#000000;stroke-width:0.32"
       d="m 48.894892,93.257155 c 0,-0.17047 0.216,-0.22707 0.48,-0.12576 0.264,0.10131 0.48,0.24079 0.48,0.30996 0,0.0692 -0.216,0.12576 -0.48,0.12576 -0.264,0 -0.48,-0.13948 -0.48,-0.30996 z"
       id="path623" />
    <path
       style="fill:#000000;stroke-width:0.32"
       d="m 24.465392,93.404435 c -0.4537,-0.33176 -0.5138,-0.56402 -0.262,-1.01384 0.2953,-0.52778 0.3601,-0.49524 0.678,0.3409 0.4248,1.11738 0.3523,1.23473 -0.416,0.67294 z"
       id="path621" />
    <path
       style="fill:#000000;stroke-width:0.32"
       d="m 31.188192,94.953785 c -0.4324,-0.43248 -0.2227,-2.02667 0.2667,-2.02667 0.3352,0 0.48,0.33778 0.48,1.12 0,1.05895 -0.2684,1.3849 -0.7467,0.90667 z"
       id="path619" />
    <path
       style="fill:#000000;stroke-width:0.32"
       d="m 57.134892,96.904165 c -0.132,-0.13405 -0.2356,-0.68772 -0.2303,-1.23038 0.01,-0.8353 0.061,-0.89934 0.3411,-0.41747 0.3658,0.62853 0.2712,2.03578 -0.1108,1.64785 z"
       id="path617" />
    <path
       style="fill:#000000;stroke-width:0.32"
       d="m 44.954892,97.840445 c -0.453,-0.45296 -0.1966,-1.07333 0.4435,-1.07333 0.4473,0 0.6297,0.17378 0.56,0.53348 -0.1142,0.58896 -0.6605,0.88284 -1.0035,0.53985 z"
       id="path615" />
    <path
       style="fill:#000000;stroke-width:0.32"
       d="m 37.908192,98.153785 c -0.1173,-0.11734 -0.2133,-0.36214 -0.2133,-0.544 0,-0.20052 0.1491,-0.18162 0.3787,0.048 0.2082,0.20826 0.3042,0.45306 0.2133,0.544 -0.091,0.0909 -0.2613,0.0693 -0.3787,-0.048 z"
       id="path613" />
    <path
       style="fill:#000000;stroke-width:0.32"
       d="m 40.459492,100.38509 c -0.2886,-0.2886 -0.2556,-2.908695 0.039,-3.090715 0.134,-0.0828 0.5083,0.0431 0.8319,0.27971 0.5154,0.37684 0.5418,0.57125 0.2132,1.56716 -0.3929,1.190315 -0.7396,1.588195 -1.084,1.243845 z"
       id="path611" />
    <path
       style="fill:#000000;stroke-width:0.32"
       d="m 42.088192,101.37379 c -0.1283,-0.12834 -0.2333,-0.45414 -0.2333,-0.724 0,-0.36019 0.095,-0.396 0.356,-0.13467 0.1958,0.1958 0.3008,0.5216 0.2333,0.724 -0.067,0.2024 -0.2276,0.263 -0.356,0.13467 z"
       id="path609" />
    <path
       style="fill:#000000;stroke-width:0.32"
       d="m 42.369092,105.86095 c -0.1068,-0.2784 -0.1878,-0.9624 -0.18,-1.52 l 0.014,-1.01383 0.6386,1.20994 c 0.6006,1.13805 0.5963,1.83006 -0.011,1.83006 -0.1468,0 -0.3543,-0.22778 -0.4612,-0.50617 z"
       id="path607" />
    <path
       style="fill:#000000;stroke-width:0.32"
       d="m 26.174892,106.84712 c 0,-0.264 0.1395,-0.48 0.31,-0.48 0.1704,0 0.227,0.216 0.1257,0.48 -0.1013,0.264 -0.2408,0.48 -0.3099,0.48 -0.069,0 -0.1258,-0.216 -0.1258,-0.48 z"
       id="path605" />
    <path
       style="fill:#000000;stroke-width:0.32"
       d="m 97.214892,112.24794 c 0,-0.42522 0.087,-0.44708 0.48,-0.12082 0.264,0.2191 0.48,0.45273 0.48,0.51918 0,0.0665 -0.216,0.12082 -0.48,0.12082 -0.264,0 -0.48,-0.23363 -0.48,-0.51918 z"
       id="path603" />
    <path
       style="fill:#000000;stroke-width:0.32"
       d="m 91.239492,114.81804 c -0.1075,-0.28 0.041,-1.00394 0.329,-1.60875 0.5201,-1.09071 0.5321,-1.09566 1.4734,-0.60889 l 0.949,0.49076 -0.6596,1.11798 c -0.6996,1.18577 -1.7528,1.49234 -2.0918,0.6089 z"
       id="path601" />
    <path
       style="fill:#000000;stroke-width:0.32"
       d="m 27.014892,115.07184 c -0.087,-0.1404 -0.029,-0.4632 0.1278,-0.71732 0.2159,-0.34926 0.3757,-0.37186 0.655,-0.0926 0.2032,0.2032 0.2727,0.52599 0.1544,0.71733 -0.2526,0.40886 -0.7136,0.4544 -0.9372,0.0926 z"
       id="path599" />
    <path
       style="fill:#000000;stroke-width:0.32"
       d="m 94.334892,116.34519 c 0,-0.80619 0.5071,-1.18589 0.7475,-0.55963 0.096,0.25012 -0.033,0.62693 -0.2865,0.83735 -0.376,0.31203 -0.461,0.26082 -0.461,-0.27772 z"
       id="path597" />
    <path
       style="fill:#000000;stroke-width:0.32"
       d="m 22.654892,116.92712 c 0,-0.176 0.1525,-0.32 0.3389,-0.32 0.1864,0 0.2499,0.144 0.1411,0.32 -0.1088,0.176 -0.2613,0.32 -0.3389,0.32 -0.078,0 -0.1411,-0.144 -0.1411,-0.32 z"
       id="path595" />
    <path
       style="fill:#000000;stroke-width:0.32"
       d="m 116.53959,118.39043 c -0.6395,-1.66632 1.0085,-2.90222 1.7373,-1.30286 0.6165,1.35311 0.4797,1.75959 -0.592,1.75959 -0.5451,0 -1.0469,-0.20008 -1.1453,-0.45673 z"
       id="path593" />
    <path
       style="fill:#000000;stroke-width:0.32"
       d="m 153.42539,119.66346 c -0.1189,-0.30993 -0.024,-0.4047 0.2858,-0.28577 0.255,0.0979 0.4637,0.30654 0.4637,0.46371 0,0.46004 -0.5552,0.32821 -0.7495,-0.17794 z"
       id="path591" />
    <path
       style="fill:#000000;stroke-width:0.32"
       d="m 149.63869,119.69906 c -0.4987,-0.3792 -0.4956,-0.4331 0.045,-0.77099 0.668,-0.41716 0.9707,-0.22619 0.9707,0.61238 0,0.68344 -0.2704,0.72565 -1.0162,0.15861 z"
       id="path589" />
    <path
       style="fill:#000000;stroke-width:0.32"
       d="m 35.774892,120.50045 c 0,-0.81286 0.3412,-1.07413 0.8506,-0.65137 0.6394,0.53068 0.5191,1.23804 -0.2106,1.23804 -0.4073,0 -0.64,-0.21333 -0.64,-0.58667 z"
       id="path587" />
    <path
       style="fill:#000000;stroke-width:0.32"
       d="m 184.13829,120.8832 c -0.4304,-0.46416 -1.1907,-1.65216 -1.6895,-2.64 -0.8049,-1.59427 -0.9072,-2.13764 -0.9104,-4.83607 0,-2.69767 0.099,-3.24891 0.9075,-4.89523 1.8192,-3.70489 7.0133,-8.22672 9.4455,-8.22298 4.2746,0.007 7.4035,3.45057 7.4035,8.14906 0,4.86127 -3.3658,10.40042 -7.52,12.3757 -1.5959,0.75883 -2.3365,0.91299 -4.387,0.9132 -2.2548,2.3e-4 -2.5344,-0.0724 -3.2496,-0.84368 z"
       id="path585" />
    <path
       style="fill:#000000;stroke-width:0.32"
       d="m 28.328192,121.5338 c -0.1283,-0.12837 -0.2333,-0.45417 -0.2333,-0.72403 0,-0.36019 0.095,-0.396 0.356,-0.13467 0.1958,0.1958 0.3008,0.5216 0.2333,0.724 -0.067,0.2024 -0.2276,0.263 -0.356,0.13467 z"
       id="path583" />
    <path
       style="fill:#000000;stroke-width:0.32"
       d="m 110.54539,121.5834 c -0.1189,-0.30993 -0.024,-0.4047 0.2858,-0.28577 0.255,0.0979 0.4637,0.30654 0.4637,0.46371 0,0.46004 -0.5552,0.32821 -0.7495,-0.17794 z"
       id="path581" />
    <path
       style="fill:#000000;stroke-width:0.32"
       d="m 96.427592,122.7077 c -0.2858,-0.46242 0.2469,-1.10742 0.7704,-0.93291 0.2497,0.0832 0.2244,0.30389 -0.083,0.72448 -0.3284,0.44911 -0.5053,0.50276 -0.6872,0.20843 z"
       id="path579" />
    <path
       style="fill:#000000;stroke-width:0.32"
       d="m 104.89489,123.46606 c 0,-0.51372 0.7217,-1.41896 1.1313,-1.41896 0.6363,0 0.5894,0.43159 -0.1165,1.0704 -0.5914,0.53523 -1.0148,0.68065 -1.0148,0.34856 z"
       id="path577" />
    <path
       style="fill:#000000;stroke-width:0.32"
       d="m 86.176492,123.32963 c -0.1079,-0.1746 -0.049,-0.5706 0.1314,-0.88 0.281,-0.48254 0.3289,-0.4374 0.3373,0.31747 0.01,0.92024 -0.1379,1.09788 -0.4687,0.56253 z"
       id="path575" />
    <path
       style="fill:#000000;stroke-width:0.32"
       d="m 93.201692,123.62581 c -0.116,-0.18771 -0.1423,-0.40992 -0.058,-0.4938 0.084,-0.0839 0.2378,0.0697 0.342,0.34129 0.2164,0.56387 0.032,0.66306 -0.2835,0.15251 z"
       id="path573" />
    <path
       style="fill:#000000;stroke-width:0.32"
       d="m 157.56069,123.80201 c -0.5755,-0.43542 -0.5805,-0.50197 -0.08,-1.05502 0.2938,-0.32465 0.5342,-0.6732 0.5342,-0.77454 0,-0.10134 -0.767,-0.61713 -1.7044,-1.14619 -1.9328,-1.09077 -2.5956,-1.94086 -3.1118,-3.99109 -1.025,-4.07057 3.6393,-12.23481 9.0412,-15.82556 1.1326,-0.75287 1.2929,-0.77326 3.6271,-0.46136 1.3431,0.17948 2.4785,0.37414 2.5231,0.43259 2.2906,3.00225 3.4248,5.82552 3.4248,8.52472 0,3.99709 -2.1732,6.73179 -9.5334,11.99658 -2.1413,1.53173 -3.9413,2.78038 -4,2.77478 -0.059,-0.006 -0.383,-0.2193 -0.7208,-0.47491 z"
       id="path571" />
    <path
       style="fill:#000000;stroke-width:0.32"
       d="m 38.934092,124.0471 c -0.398,-0.50754 -0.3867,-0.51886 0.1208,-0.12082 0.308,0.24155 0.56,0.49355 0.56,0.56 0,0.26337 -0.2628,0.0939 -0.6808,-0.43918 z"
       id="path569" />
    <path
       style="fill:#000000;stroke-width:0.32"
       d="m 99.988192,125.03377 c -0.3887,-0.3887 -0.2211,-0.72957 0.266698,-0.54239 0.264,0.10131 0.48,0.31279 0.48,0.46996 0,0.33548 -0.4408,0.37825 -0.746698,0.0724 z"
       id="path567" />
    <path
       style="fill:#000000;stroke-width:0.32"
       d="m 159.93489,125.28134 c 0,-0.2946 0.7575,-0.67424 1.3454,-0.67424 0.2016,0 0.1758,0.18937 -0.065,0.48 -0.4348,0.52383 -1.28,0.6521 -1.28,0.19424 z"
       id="path565" />
    <path
       style="fill:#000000;stroke-width:0.32"
       d="m 94.654892,125.10599 c 0,-0.25362 0.144,-0.55012 0.32,-0.65889 0.176,-0.10877 0.32,0.0987 0.32,0.46111 0,0.36239 -0.144,0.65889 -0.32,0.65889 -0.176,0 -0.32,-0.2075 -0.32,-0.46111 z"
       id="path563" />
    <path
       style="fill:#000000;stroke-width:0.32"
       d="m 108.60179,126.0018 c -0.1685,-0.43919 -0.1217,-0.45899 0.2858,-0.12082 0.5553,0.46084 0.613,0.64608 0.2015,0.64608 -0.1571,0 -0.3764,-0.23637 -0.4873,-0.52526 z"
       id="path561" />
    <path
       style="fill:#000000;stroke-width:0.32"
       d="m 28.414892,126.0471 c 0,-0.26667 0.2845,-0.48 0.64,-0.48 0.3556,0 0.64,0.21333 0.64,0.48 0,0.26667 -0.2844,0.48 -0.64,0.48 -0.3555,0 -0.64,-0.21333 -0.64,-0.48 z"
       id="path559" />
    <path
       style="fill:#000000;stroke-width:0.32"
       d="m 114.81979,126.67567 c 0.01,-0.55089 0.5938,-1.25659 0.8387,-1.01168 0.1311,0.13109 -0.01,0.48178 -0.3026,0.7793 -0.2976,0.29753 -0.5388,0.40209 -0.5361,0.23238 z"
       id="path557" />
    <path
       style="fill:#000000;stroke-width:0.32"
       d="m 87.614892,125.7393 c 0,-1.06689 0.05,-1.12788 0.6594,-0.80181 0.7954,0.42568 0.7273,1.69223 -0.099,1.84981 -0.4496,0.0857 -0.56,-0.12093 -0.56,-1.048 z"
       id="path555" />
    <path
       style="fill:#000000;stroke-width:0.32"
       d="m 17.534892,127.1671 c 0,-0.176 0.1525,-0.32 0.3389,-0.32 0.1864,0 0.2499,0.144 0.1411,0.32 -0.1088,0.176 -0.2613,0.32 -0.3389,0.32 -0.078,0 -0.1411,-0.144 -0.1411,-0.32 z"
       id="path553" />
    <path
       style="fill:#000000;stroke-width:0.32"
       d="m 92.721892,127.1429 c -0.3262,-0.60956 -0.3,-0.63457 0.3177,-0.30395 0.3703,0.19816 0.5887,0.49706 0.4854,0.66422 -0.2729,0.44156 -0.4058,0.38192 -0.8031,-0.36027 z"
       id="path551" />
    <path
       style="fill:#000000;stroke-width:0.32"
       d="m 86.888192,127.77772 c -0.3117,-0.18146 -0.4832,-0.46508 -0.3811,-0.63027 0.2987,-0.4834 0.7397,-0.34821 1.1078,0.33967 0.3764,0.70322 0.1426,0.7967 -0.7267,0.2906 z"
       id="path549" />
    <path
       style="fill:#000000;stroke-width:0.32"
       d="m 154.82509,129.32712 c 0.01,-0.396 0.2158,-0.99156 0.467,-1.32346 0.4383,-0.57893 0.4726,-0.56896 0.8437,0.24537 0.3343,0.73368 0.3035,0.91185 -0.2271,1.31329 -0.8568,0.64829 -1.0954,0.5965 -1.0836,-0.2352 z"
       id="path547" />
    <path
       style="fill:#000000;stroke-width:0.32"
       d="m 102.80169,130.34583 c -0.116,-0.18771 -0.1423,-0.40992 -0.058,-0.4938 0.084,-0.0839 0.2378,0.0697 0.342,0.34129 0.2164,0.56387 0.032,0.66306 -0.2835,0.15251 z"
       id="path545" />
    <path
       style="fill:#000000;stroke-width:0.32"
       d="m 87.614892,130.20712 c 0,-0.264 0.2336,-0.48 0.5192,-0.48 0.4252,0 0.4471,0.0869 0.1208,0.48 -0.2191,0.264 -0.4527,0.48 -0.5192,0.48 -0.066,0 -0.1208,-0.216 -0.1208,-0.48 z"
       id="path543" />
    <path
       style="fill:#000000;stroke-width:0.32"
       d="m 141.69489,130.96059 c 0,-1.27645 0.7547,-2.20681 1.3263,-1.63515 0.239,0.23894 0.093,0.70147 -0.4935,1.56473 l -0.8328,1.22552 z"
       id="path541" />
    <path
       style="fill:#000000;stroke-width:0.32"
       d="m 41.965292,131.47332 c -0.1042,-0.27159 -0.1031,-0.58011 0,-0.6856 0.2767,-0.27669 1.1939,0.55744 0.9849,0.89566 -0.2731,0.44191 -0.7782,0.33443 -0.9872,-0.21006 z"
       id="path539" />
    <path
       style="fill:#000000;stroke-width:0.32"
       d="m 157.69489,132.75945 c 0,-0.10126 0.225,-0.61915 0.4999,-1.15086 0.4074,-0.78776 0.5851,-0.89606 0.96,-0.58493 0.6779,0.56262 0.5699,0.87025 -0.4999,1.42346 -0.528,0.27304 -0.96,0.41359 -0.96,0.31233 z"
       id="path537" />
    <path
       style="fill:#000000;stroke-width:0.32"
       d="m 145.72139,132.97007 c -0.1378,-0.22304 -0.1642,-0.49195 -0.059,-0.59757 0.2864,-0.28639 0.5987,0.13481 0.444,0.59886 -0.1084,0.32517 -0.1838,0.32492 -0.3854,-0.001 z"
       id="path535" />
    <path
       style="fill:#000000;stroke-width:0.32"
       d="m 82.568092,133.1636 c -0.1756,-0.21806 -0.4267,-0.89783 -0.5579,-1.5106 l -0.2387,-1.11411 0.8417,1.00031 c 0.4629,0.55017 0.8417,1.15102 0.8417,1.33523 0,0.54191 -0.5411,0.71836 -0.8868,0.28917 z"
       id="path533" />
    <path
       style="fill:#000000;stroke-width:0.32"
       d="m 86.334892,134.52712 c 0,-0.352 0.067,-0.64 0.1487,-0.64 0.082,0 0.3029,0.288 0.4913,0.64 0.2734,0.51082 0.2434,0.64 -0.1487,0.64 -0.278,0 -0.4913,-0.27793 -0.4913,-0.64 z"
       id="path531" />
    <path
       style="fill:#000000;stroke-width:0.32"
       d="m 94.654892,135.02325 c 0,-0.75542 0.3728,-1.46129 0.6735,-1.27541 0.4614,0.28516 0.3291,1.33445 -0.1935,1.535 -0.2845,0.10916 -0.48,0.003 -0.48,-0.25959 z"
       id="path529" />
    <path
       style="fill:#000000;stroke-width:0.32"
       d="m 156.40369,135.95356 c -0.3013,-0.36304 -0.3153,-0.58794 -0.053,-0.85044 0.424,-0.42403 1.344,0.1942 1.344,0.90318 0,0.59195 -0.7828,0.55998 -1.2913,-0.0527 z"
       id="path527" />
    <path
       style="fill:#000000;stroke-width:0.32"
       d="m 98.988592,136.14923 c -0.1013,-0.16384 -0.038,-0.38834 0.1411,-0.49888 0.1789,-0.11055 0.3252,0.0235 0.3252,0.29788 0,0.56209 -0.192,0.64485 -0.4663,0.201 z"
       id="path525" />
    <path
       style="fill:#000000;stroke-width:0.32"
       d="m 80.099592,136.45471 c -0.1062,-0.17183 0.024,-0.71183 0.2883,-1.2 l 0.4814,-0.88759 0.013,1.2 c 0.012,1.13974 -0.3634,1.56573 -0.7825,0.88759 z"
       id="path523" />
    <path
       style="fill:#000000;stroke-width:0.32"
       d="m 145.77489,137.0609 c -0.3349,-0.19474 -0.56,-0.7083 -0.56,-1.2779 v -0.95232 l 0.9798,0.5067 c 0.702,0.36298 0.9516,0.69855 0.88,1.18315 -0.1192,0.80813 -0.5391,0.98267 -1.2998,0.54037 z"
       id="path521" />
    <path
       style="fill:#000000;stroke-width:0.32"
       d="m 82.494892,138.20712 c 0,-0.264 0.2115,-0.48 0.47,-0.48 0.2862,0 0.3979,0.18761 0.2857,0.48 -0.1013,0.264 -0.3128,0.48 -0.4699,0.48 -0.1572,0 -0.2858,-0.216 -0.2858,-0.48 z"
       id="path519" />
    <path
       style="fill:#000000;stroke-width:0.32"
       d="m 38.720892,139.10816 c -0.5752,-1.04163 -0.5019,-1.63406 0.1248,-1.00743 0.2809,0.28091 0.4546,0.77976 0.386,1.10857 -0.1152,0.55166 -0.1546,0.54385 -0.5108,-0.10114 z"
       id="path517" />
    <path
       style="fill:#000000;stroke-width:0.32"
       d="m 94.045892,139.84449 c -0.2833,-0.34133 -0.2556,-0.4855 0.1208,-0.62996 0.3357,-0.12881 0.4882,0.009 0.4882,0.44263 0,0.74597 -0.1158,0.78159 -0.609,0.18733 z"
       id="path515" />
    <path
       style="fill:#000000;stroke-width:0.32"
       d="m 25.435792,140.14766 c -0.3429,-0.25996 -0.4474,-0.52057 -0.2561,-0.63878 0.1777,-0.10983 0.4794,0.0924 0.6704,0.44928 0.4059,0.75831 0.3622,0.77827 -0.4143,0.1895 z"
       id="path513" />
    <path
       style="fill:#000000;stroke-width:0.32"
       d="m 27.614892,140.92712 c -0.1088,-0.176 -0.045,-0.32 0.1411,-0.32 0.1864,0 0.3389,0.144 0.3389,0.32 0,0.176 -0.063,0.32 -0.1411,0.32 -0.078,0 -0.2301,-0.144 -0.3389,-0.32 z"
       id="path511" />
    <path
       style="fill:#000000;stroke-width:0.32"
       d="m 89.114892,141.36045 c -0.4396,-0.43963 -0.2116,-1.11864 0.34,-1.01241 0.308,0.0593 0.56,0.30987 0.56,0.5568 0,0.50523 -0.5646,0.79104 -0.9,0.45561 z"
       id="path509" />
    <path
       style="fill:#000000;stroke-width:0.32"
       d="m 138.30249,142.07814 c -0.095,-0.24693 0.1618,-1.07493 0.5701,-1.84 l 0.7423,-1.39102 0.1,1.38365 c 0.1274,1.77028 -0.9171,3.13687 -1.4119,1.84737 z"
       id="path507" />
    <path
       style="fill:#000000;stroke-width:0.32"
       d="m 24.254892,142.52712 c 0,-0.59733 0.085,-0.68267 0.384,-0.384 0.2987,0.29867 0.2987,0.46933 0,0.768 -0.2987,0.29867 -0.384,0.21333 -0.384,-0.384 z"
       id="path505" />
    <path
       style="fill:#000000;stroke-width:0.32"
       d="m 80.286792,142.19645 c -0.8279,-1.5884 -0.83,-1.75126 -0.032,-2.54933 1.1831,-1.18308 2.4218,-0.74154 2.8998,1.03361 0.2546,0.94552 0.2502,1.3833 -0.016,1.64709 -0.2692,0.26632 -0.4502,0.20504 -0.6994,-0.23681 -0.6043,-1.07154 -1.6517,-1.96071 -1.7968,-1.52537 -0.073,0.21918 0.098,0.65352 0.38,0.96519 0.5639,0.62314 0.6747,1.49851 0.2247,1.77658 -0.1584,0.0979 -0.5904,-0.40199 -0.96,-1.11096 z"
       id="path503" />
    <path
       style="fill:#000000;stroke-width:0.32"
       d="m 86.228192,144.23379 c -0.3897,-0.38974 -0.2205,-1.06667 0.2667,-1.06667 0.2667,0 0.48,0.28444 0.48,0.64 0,0.63752 -0.341,0.83236 -0.7467,0.42667 z"
       id="path501" />
    <path
       style="fill:#000000;stroke-width:0.32"
       d="m 77.614892,144.10149 c -0.6586,-0.38359 -0.7015,-0.9776 -0.1757,-2.43165 0.5762,-1.59347 0.8957,-1.28767 0.8957,0.85728 0,1.056 -0.036,1.91562 -0.08,1.91027 -0.044,-0.005 -0.332,-0.15651 -0.64,-0.3359 z"
       id="path499" />
    <path
       style="fill:#000000;stroke-width:0.32"
       d="m 136.40859,145.07696 c -0.1243,-0.20108 -0.075,-0.51618 0.1087,-0.70021 0.43,-0.43005 1.4327,-0.0549 1.2577,0.47054 -0.1781,0.53494 -1.0836,0.68714 -1.3664,0.22967 z"
       id="path497" />
    <path
       style="fill:#000000;stroke-width:0.32"
       d="m 16.769092,145.22095 c -0.3786,-0.98662 -0.2225,-2.04459 0.2736,-1.85422 0.581,0.22295 0.8928,1.13807 0.6252,1.83531 -0.255,0.66471 -0.6478,0.67297 -0.8988,0.0189 z"
       id="path495" />
    <path
       style="fill:#000000;stroke-width:0.32"
       d="m 32.958892,146.30312 c -0.4444,-0.44446 -0.5095,-1.42064 -0.1111,-1.66686 0.5572,-0.34442 1.4134,0.63489 1.1848,1.35524 -0.2502,0.78805 -0.5192,0.86613 -1.0737,0.31162 z"
       id="path493" />
    <path
       style="fill:#000000;stroke-width:0.32"
       d="m 84.414892,146.68712 c 0,-0.76296 0.4914,-0.84884 0.7658,-0.13383 0.2744,0.71522 0.2528,0.77383 -0.2858,0.77383 -0.2667,0 -0.48,-0.28444 -0.48,-0.64 z"
       id="path491" />
    <path
       style="fill:#000000;stroke-width:0.32"
       d="m 22.334892,147.18601 c 0,-1.04215 0.5229,-1.31555 0.9588,-0.50124 0.3966,0.7412 0.1866,1.28235 -0.4977,1.28235 -0.2755,0 -0.4611,-0.31434 -0.4611,-0.78111 z"
       id="path489" />
    <path
       style="fill:#000000;stroke-width:0.32"
       d="m 17.058092,147.6419 c 0.1106,-0.17887 0.3351,-0.24237 0.4989,-0.14111 0.4439,0.27431 0.3611,0.46633 -0.201,0.46633 -0.2744,0 -0.4084,-0.14635 -0.2979,-0.32522 z"
       id="path487" />
    <path
       style="fill:#000000;stroke-width:0.32"
       d="m 75.171592,148.95659 c -0.2935,-0.18586 -0.3725,-0.56278 -0.2339,-1.1151 0.2366,-0.9428 0.4311,-1.00054 1.2583,-0.37351 0.4993,0.37858 0.5222,0.53454 0.163,1.10982 -0.4676,0.74875 -0.5578,0.77752 -1.1874,0.37879 z"
       id="path485" />
    <path
       style="fill:#000000;stroke-width:0.32"
       d="m 94.868192,149.35381 c -0.1173,-0.11734 -0.2133,-0.4104 -0.2133,-0.65126 0,-0.34078 0.144,-0.36088 0.649,-0.0906 0.3569,0.19102 0.5644,0.48409 0.4611,0.65125 -0.2194,0.35498 -0.5945,0.39288 -0.8968,0.0906 z"
       id="path483" />
    <path
       style="fill:#000000;stroke-width:0.32"
       d="m 77.274892,150.64047 c -0.453,-0.45296 -0.1966,-1.07333 0.4435,-1.07333 0.4473,0 0.6297,0.17378 0.56,0.53348 -0.1142,0.58896 -0.6605,0.88284 -1.0035,0.53985 z"
       id="path481" />
    <path
       style="fill:#000000;stroke-width:0.32"
       d="m 89.854892,150.86603 c 0,-0.51762 0.1398,-1.02751 0.3106,-1.13309 0.3717,-0.22974 0.7993,1.25282 0.5006,1.73601 -0.3971,0.64263 -0.8112,0.33488 -0.8112,-0.60292 z"
       id="path479" />
    <path
       style="fill:#000000;stroke-width:0.32"
       d="m 82.978092,151.48192 c 0.1106,-0.17887 0.3351,-0.24237 0.4989,-0.14111 0.4439,0.27431 0.3611,0.46633 -0.201,0.46633 -0.2744,0 -0.4084,-0.14635 -0.2979,-0.32522 z"
       id="path477" />
    <path
       style="fill:#000000;stroke-width:0.32"
       d="m 131.62859,152.14925 c -0.1013,-0.16384 -0.053,-0.37901 0.1076,-0.47816 0.1604,-0.0992 0.3742,0.0349 0.4751,0.29789 0.199,0.51844 -0.2818,0.66716 -0.5827,0.18027 z"
       id="path475" />
    <path
       style="fill:#000000;stroke-width:0.32"
       d="m 29.374892,151.99381 c 0,-0.27867 0.228,-0.50667 0.5067,-0.50667 0.2786,0 0.4496,0.171 0.38,0.38 -0.1978,0.59335 -0.8867,0.69176 -0.8867,0.12667 z"
       id="path473" />
    <path
       style="fill:#000000;stroke-width:0.32"
       d="m 129.73919,152.92711 c 0.1013,-0.264 0.2974,-0.48 0.4357,-0.48 0.1383,0 0.3344,0.216 0.4357,0.48 0.1247,0.32487 -0.016,0.48 -0.4357,0.48 -0.4196,0 -0.5604,-0.15513 -0.4357,-0.48 z"
       id="path471" />
    <path
       style="fill:#000000;stroke-width:0.32"
       d="m 79.400992,152.90191 c -0.1067,-0.27787 -0.1091,-1.41327 -0.01,-2.5231 l 0.1884,-2.01787 -0.9445,-0.1889 c -0.8968,-0.17934 -0.9446,-0.27088 -0.9446,-1.80816 0,-1.44501 0.06,-1.58644 0.56,-1.31426 0.5399,0.29405 2.0941,1.87795 2.9061,2.96163 0.2964,0.3956 0.3101,0.90563 0.056,2.08 -0.6371,2.94233 -1.3449,4.03796 -1.8159,2.81066 z"
       id="path469" />
    <path
       style="fill:#000000;stroke-width:0.32"
       d="m 31.294892,153.38825 c 0,-0.18638 0.144,-0.24988 0.32,-0.14111 0.176,0.10877 0.32,0.26127 0.32,0.33889 0,0.0776 -0.144,0.14111 -0.32,0.14111 -0.176,0 -0.32,-0.1525 -0.32,-0.33889 z"
       id="path467" />
    <path
       style="fill:#000000;stroke-width:0.32"
       d="m 72.956292,153.42785 c 0.4182,-0.66967 0.8986,-0.5851 0.8986,0.15819 0,0.25361 -0.2892,0.46111 -0.6427,0.46111 -0.5554,0 -0.5902,-0.0841 -0.2559,-0.6193 z"
       id="path465" />
    <path
       style="fill:#000000;stroke-width:0.32"
       d="m 98.334892,154.36715 c -0.1088,-0.176 0.035,-0.32 0.32,-0.32 0.2848,0 0.4288,0.144 0.32,0.32 -0.1088,0.176 -0.2528,0.32 -0.32,0.32 -0.067,0 -0.2112,-0.144 -0.32,-0.32 z"
       id="path463" />
    <path
       style="fill:#000000;stroke-width:0.32"
       d="m 29.054892,154.06604 c 0,-0.80484 0.5166,-1.12217 0.7665,-0.47088 0.3065,0.79888 0.2296,1.09199 -0.2865,1.09199 -0.264,0 -0.48,-0.2795 -0.48,-0.62111 z"
       id="path461" />
    <path
       style="fill:#000000;stroke-width:0.32"
       d="m 75.134892,155.80715 c -0.2222,-0.26776 -0.2569,-0.48 -0.078,-0.48 0.176,0 0.4993,0.216 0.7184,0.48 0.2222,0.26776 0.2568,0.48 0.078,0.48 -0.176,0 -0.4993,-0.216 -0.7184,-0.48 z"
       id="path459" />
    <path
       style="fill:#000000;stroke-width:0.32"
       d="m 94.979792,156.36715 c 0,-0.308 0.1234,-0.74682 0.2683,-0.97515 0.2103,-0.33159 0.346,-0.31548 0.6742,0.08 0.3285,0.39573 0.331,0.59153 0.013,0.97515 -0.5333,0.64267 -0.9611,0.60684 -0.9551,-0.08 z"
       id="path457" />
    <path
       style="fill:#000000;stroke-width:0.32"
       d="m 83.676892,157.36253 c -0.2962,-0.29621 0.061,-0.75537 0.5868,-0.75537 0.2695,0 0.377,0.19324 0.2669,0.48 -0.1953,0.50899 -0.5164,0.61258 -0.8537,0.27537 z"
       id="path455" />
    <path
       style="fill:#000000;stroke-width:0.32"
       d="m 89.108192,158.63383 c -0.4057,-0.40571 -0.2108,-0.74668 0.4267,-0.74668 0.3556,0 0.64,0.21333 0.64,0.48 0,0.48717 -0.6769,0.6564 -1.0667,0.26667 z"
       id="path453" />
    <path
       style="fill:#000000;stroke-width:0.32"
       d="m 76.974892,158.66383 c -0.4711,-0.47764 -0.2276,-2.0131 0.5308,-3.34843 l 0.7709,-1.35709 0.6915,1.35543 c 0.3803,0.74549 0.6168,1.43012 0.5255,1.52142 -0.091,0.0913 -0.5976,0.0155 -1.1251,-0.16834 -0.9543,-0.33267 -0.9595,-0.32794 -1.0563,0.95302 -0.053,0.70804 -0.2053,1.17784 -0.3373,1.04399 z"
       id="path451" />
    <path
       style="fill:#000000;stroke-width:0.32"
       d="m 71.472792,158.87603 c -0.2556,-0.41352 0.1518,-1.34068 0.4956,-1.12816 0.3811,0.2355 0.3689,1.41928 -0.015,1.41928 -0.1656,0 -0.382,-0.131 -0.481,-0.29112 z"
       id="path449" />
    <path
       style="fill:#000000;stroke-width:0.32"
       d="m 93.928192,159.29382 c -0.1283,-0.12834 -0.2333,-0.45414 -0.2333,-0.724 0,-0.36019 0.095,-0.396 0.356,-0.13467 0.1958,0.1958 0.3008,0.5216 0.2333,0.724 -0.068,0.2024 -0.2276,0.263 -0.356,0.13467 z"
       id="path447" />
    <path
       style="fill:#000000;stroke-width:0.32"
       d="m 139.29529,160.12781 c -0.2449,-0.39634 0.7661,-2.15932 1.3715,-2.39166 1.3294,-0.51013 1.4159,1.38395 0.099,2.162 -1.0812,0.63872 -1.2054,0.65811 -1.4702,0.22966 z"
       id="path445" />
    <path
       style="fill:#000000;stroke-width:0.32"
       d="m 71.508192,161.19382 c -0.1173,-0.11734 -0.2133,-0.4104 -0.2133,-0.65126 0,-0.34078 0.144,-0.36088 0.649,-0.0906 0.3569,0.19102 0.5644,0.48409 0.4611,0.65125 -0.2194,0.35498 -0.5945,0.39288 -0.8968,0.0906 z"
       id="path443" />
    <path
       style="fill:#000000;stroke-width:0.32"
       d="m 30.974892,161.08715 c 0,-0.176 0.1525,-0.32 0.3389,-0.32 0.1864,0 0.2499,0.144 0.1411,0.32 -0.1088,0.176 -0.2613,0.32 -0.3389,0.32 -0.078,0 -0.1411,-0.144 -0.1411,-0.32 z"
       id="path441" />
    <path
       style="fill:#000000;stroke-width:0.32"
       d="m 85.712792,161.26865 c -0.325,-0.39155 -0.3454,-0.622 -0.079,-0.8886 0.2666,-0.2666 0.412,-0.22432 0.5606,0.163 0.3272,0.85271 0.014,1.32363 -0.4818,0.7256 z"
       id="path439" />
    <path
       style="fill:#000000;stroke-width:0.32"
       d="m 75.042292,161.40626 c -0.293,-0.41829 -0.4605,-0.83264 -0.3724,-0.92078 0.2748,-0.2748 1.1867,0.83649 1.0422,1.27005 -0.091,0.27183 -0.3177,0.15342 -0.6698,-0.34927 z"
       id="path437" />
    <path
       style="fill:#000000;stroke-width:0.32"
       d="m 127.61489,161.55106 c 0,-0.59526 0.4589,-1.30026 1.522,-2.33809 0.8371,-0.81722 1.8284,-1.91785 2.2028,-2.44585 0.8505,-1.19944 1.2583,-0.8845 0.7701,0.59476 -0.4917,1.48996 -2.2602,3.74743 -3.4965,4.46333 l -0.9984,0.57809 z"
       id="path435" />
    <path
       style="fill:#000000;stroke-width:0.32"
       d="m 125.69489,162.10045 c 0,-0.45032 0.3602,-0.6578 0.8295,-0.47775 0.2457,0.0943 0.3672,0.30039 0.2698,0.45795 -0.2234,0.36139 -1.0993,0.37717 -1.0993,0.0198 z"
       id="path433" />
    <path
       style="fill:#000000;stroke-width:0.32"
       d="m 77.694892,162.04715 c 0.1884,-0.352 0.5535,-0.64 0.8113,-0.64 0.2578,0 0.4687,0.288 0.4687,0.64 0,0.4717 -0.2133,0.64 -0.8112,0.64 -0.7121,0 -0.7694,-0.0782 -0.4688,-0.64 z"
       id="path431" />
    <path
       style="fill:#000000;stroke-width:0.32"
       d="m 91.454892,163.46826 c 0,-0.27438 0.144,-0.40988 0.32,-0.30111 0.176,0.10877 0.32,0.33327 0.32,0.49889 0,0.16561 -0.144,0.30111 -0.32,0.30111 -0.176,0 -0.32,-0.2245 -0.32,-0.49889 z"
       id="path429" />
    <path
       style="fill:#000000;stroke-width:0.32"
       d="m 71.678892,164.54315 c -0.6118,-0.6118 -0.4447,-0.93932 0.256,-0.50174 0.6465,0.40377 0.8555,0.88574 0.384,0.88574 -0.1408,0 -0.4288,-0.1728 -0.64,-0.384 z"
       id="path427" />
    <path
       style="fill:#000000;stroke-width:0.32"
       d="m 85.533492,164.92489 c -0.1095,-0.17724 0.032,-0.41103 0.3149,-0.51953 0.6127,-0.23511 0.9542,0.024 0.6597,0.5005 -0.2658,0.42995 -0.7152,0.43872 -0.9746,0.019 z"
       id="path425" />
    <path
       style="fill:#000000;stroke-width:0.32"
       d="m 74.174892,164.64633 c 0,-0.37355 0.1355,-0.67918 0.3011,-0.67918 0.5544,0 0.657,0.56323 0.1754,0.96292 -0.3965,0.32908 -0.4765,0.28146 -0.4765,-0.28374 z"
       id="path423" />
    <path
       style="fill:#000000;stroke-width:0.32"
       d="m 124.09489,165.27301 c 0,-0.36021 2.0117,-1.30586 2.778,-1.30586 0.6275,0 0.1977,0.62047 -0.6491,0.93701 -1.6214,0.60613 -2.1289,0.69405 -2.1289,0.36885 z"
       id="path421" />
    <path
       style="fill:#000000;stroke-width:0.32"
       d="m 83.649092,165.70098 c -0.4266,-1.11178 -0.2445,-1.42304 0.6058,-1.03561 0.899,0.40961 0.9691,0.6047 0.416,1.15778 -0.5161,0.51612 -0.7894,0.48346 -1.0218,-0.12217 z"
       id="path419" />
    <path
       style="fill:#000000;stroke-width:0.32"
       d="m 93.654092,165.96715 c -0.3981,-0.50754 -0.3867,-0.51886 0.1208,-0.12082 0.308,0.24155 0.56,0.49355 0.56,0.56 0,0.26337 -0.2628,0.0939 -0.6808,-0.43918 z"
       id="path417" />
    <path
       style="fill:#000000;stroke-width:0.32"
       d="m 69.868492,165.59351 c -0.2715,-0.52502 -0.4936,-1.04045 -0.4936,-1.14541 0,-0.36843 1.58,0.96335 1.59,1.34016 0.022,0.82492 -0.6288,0.70935 -1.0964,-0.19475 z"
       id="path415" />
    <path
       style="fill:#000000;stroke-width:0.32"
       d="m 75.443492,166.57974 c 0.2108,-0.41107 0.471,-0.65964 0.5783,-0.55238 0.1073,0.10727 -0.065,0.4436 -0.3833,0.74741 -0.5529,0.52807 -0.5615,0.51949 -0.195,-0.19503 z"
       id="path413" />
    <path
       style="fill:#000000;stroke-width:0.32"
       d="m 126.07889,167.74315 c -0.8274,-0.82739 -0.2358,-2.50212 0.88,-2.4911 1.2092,0.0119 1.3851,0.50765 0.6066,1.70894 -0.8312,1.28258 -0.9327,1.33602 -1.4866,0.78216 z"
       id="path411" />
    <path
       style="fill:#000000;stroke-width:0.32"
       d="m 15.294892,168.18048 c 0,-0.45088 0.3605,-0.65772 0.8313,-0.47705 0.6678,0.25627 0.5424,0.74372 -0.1913,0.74372 -0.352,0 -0.64,-0.12 -0.64,-0.26667 z"
       id="path409" />
    <path
       style="fill:#000000;stroke-width:0.32"
       d="m 78.654892,169.18013 c -1.3702,-0.50383 -1.9285,-1.7445 -1.4022,-3.11611 0.1765,-0.45982 0.3193,-0.44378 1.3233,0.14856 l 1.1254,0.66403 -0.213,-1.33186 c -0.2116,-1.32357 -0.2075,-1.3305 0.6573,-1.11345 0.4786,0.12012 1.311,0.52589 1.8497,0.90171 1.7202,1.20004 1.9413,1.91449 0.5033,1.62689 -1.1184,-0.22367 -2.9478,0.73214 -2.2394,1.16999 0.2249,0.13897 0.3204,0.4832 0.2123,0.76497 -0.1958,0.51011 -0.9031,0.62119 -1.8167,0.28527 z"
       id="path407" />
    <path
       style="fill:#000000;stroke-width:0.32"
       d="m 74.374492,169.23503 c -0.2034,-0.53025 0.5195,-0.97457 1.0511,-0.646 0.4232,0.26158 0.076,1.13811 -0.4507,1.13811 -0.2263,0 -0.4965,-0.22145 -0.6004,-0.49211 z"
       id="path405" />
    <path
       style="fill:#000000;stroke-width:0.32"
       d="m 28.237692,170.01926 c -0.1183,-0.19134 -0.055,-0.50814 0.1411,-0.704 0.2615,-0.26149 0.3561,-0.16905 0.3561,0.34788 0,0.77264 -0.1662,0.8917 -0.4972,0.35612 z"
       id="path403" />
    <path
       style="fill:#000000;stroke-width:0.32"
       d="m 121.36719,170.35473 c -0.3302,-0.53427 0.5902,-1.33097 1.2466,-1.07908 0.3039,0.11661 0.508,0.4459 0.4535,0.73176 -0.1176,0.61785 -1.3742,0.87457 -1.7001,0.34732 z"
       id="path401" />
    <path
       style="fill:#000000;stroke-width:0.32"
       d="m 72.574892,170.16796 c 0,-0.42522 0.087,-0.44708 0.48,-0.12082 0.264,0.2191 0.48,0.45273 0.48,0.51918 0,0.0665 -0.216,0.12082 -0.48,0.12082 -0.264,0 -0.48,-0.23363 -0.48,-0.51918 z"
       id="path399" />
    <path
       style="fill:#000000;stroke-width:0.32"
       d="m 70.188592,170.70925 c -0.2186,-0.35367 0.2862,-0.73557 0.5817,-0.44008 0.3042,0.30425 0.2475,0.73797 -0.096,0.73797 -0.1656,0 -0.384,-0.13405 -0.4852,-0.29789 z"
       id="path397" />
    <path
       style="fill:#000000;stroke-width:0.32"
       d="m 83.774392,171.64684 c -0.3813,-0.23566 -0.3838,-0.40163 -0.016,-1.08797 0.5048,-0.94328 0.977,-0.80397 0.977,0.28827 0,0.90163 -0.339,1.18383 -0.9605,0.7997 z"
       id="path395" />
    <path
       style="fill:#000000;stroke-width:0.32"
       d="m 118.41489,172.39521 c -0.22,-0.0888 -0.4,-0.57112 -0.4,-1.07188 0,-0.93006 0.5297,-1.66339 1.625,-2.24954 0.557,-0.29811 0.614,-0.21488 0.6044,0.88209 -0.01,1.00206 -0.8774,2.72903 -1.3207,2.626 -0.06,-0.0139 -0.2887,-0.0979 -0.5087,-0.18667 z"
       id="path393" />
    <path
       style="fill:#000000;stroke-width:0.32"
       d="m 73.918892,172.54314 c -0.5226,-0.52263 -0.4826,-0.896 0.096,-0.896 0.2667,0 0.48,0.28444 0.48,0.64 0,0.74593 -0.06,0.77241 -0.576,0.256 z"
       id="path391" />
    <path
       style="fill:#000000;stroke-width:0.32"
       d="m 76.734892,172.75588 c 0,-0.70697 0.081,-0.76805 0.6281,-0.47512 0.6862,0.36727 0.556,1.28638 -0.1823,1.28638 -0.2638,0 -0.4458,-0.33116 -0.4458,-0.81126 z"
       id="path389" />
    <path
       style="fill:#000000;stroke-width:0.32"
       d="m 89.534892,173.38825 c 0,-0.27438 0.1464,-0.40843 0.3252,-0.29788 0.1789,0.11054 0.2424,0.33504 0.1411,0.49888 -0.2743,0.44385 -0.4663,0.36109 -0.4663,-0.201 z"
       id="path387" />
    <path
       style="fill:#000000;stroke-width:0.32"
       d="m 71.374892,174.95521 c -0.22,-0.0888 -0.4,-0.51447 -0.4,-0.946 0,-0.68543 0.081,-0.7413 0.64,-0.44207 0.352,0.18838 0.64,0.62545 0.64,0.97126 0,0.63592 -0.155,0.70934 -0.88,0.41681 z"
       id="path385" />
    <path
       style="fill:#000000;stroke-width:0.32"
       d="m 68.902492,175.28904 c -0.2849,-0.28495 -0.4515,-0.58461 -0.3702,-0.66592 0.2228,-0.22278 1.4826,0.52098 1.4826,0.87528 0,0.46975 -0.5337,0.3693 -1.1124,-0.20936 z"
       id="path383" />
    <path
       style="fill:#000000;stroke-width:0.32"
       d="m 79.406392,175.6582 c 0.1147,-0.29887 0.2085,-0.67563 0.2085,-0.83723 0,-0.47158 0.5545,-0.33823 0.7539,0.18129 0.1094,0.28519 -0.088,0.61987 -0.4943,0.83723 -0.5813,0.31111 -0.6473,0.28557 -0.4681,-0.18129 z"
       id="path381" />
    <path
       style="fill:#000000;stroke-width:0.32"
       d="m 113.40319,176.17291 c -0.2903,-0.46977 0.1411,-1.32577 0.6682,-1.32577 0.2984,0 0.431,0.25184 0.3658,0.69493 -0.1108,0.75263 -0.7266,1.12831 -1.034,0.63084 z"
       id="path379" />
    <path
       style="fill:#000000;stroke-width:0.32"
       d="m 81.534892,175.96714 c 0,-0.264 0.2115,-0.48 0.47,-0.48 0.2862,0 0.3979,0.18761 0.2857,0.48 -0.1013,0.264 -0.3128,0.48 -0.4699,0.48 -0.1572,0 -0.2858,-0.216 -0.2858,-0.48 z"
       id="path377" />
    <path
       style="fill:#000000;stroke-width:0.32"
       d="m 70.974892,177.72714 c -0.2734,-0.51082 -0.2433,-0.64 0.1488,-0.64 0.2779,0 0.4912,0.27793 0.4912,0.64 0,0.352 -0.067,0.64 -0.1487,0.64 -0.082,0 -0.3029,-0.288 -0.4913,-0.64 z"
       id="path375" />
    <path
       style="fill:#000000;stroke-width:0.32"
       d="m 17.854892,179.02603 c 0,-0.53646 0.5675,-0.6693 0.7564,-0.17705 0.1115,0.29045 -10e-4,0.47816 -0.2864,0.47816 -0.2585,0 -0.47,-0.1355 -0.47,-0.30111 z"
       id="path373" />
    <path
       style="fill:#000000;stroke-width:0.32"
       d="m 77.454892,179.43521 c -0.22,-0.0888 -0.4,-0.4374 -0.4,-0.77474 0,-0.65715 0.7885,-0.81331 1.5794,-0.31282 0.3808,0.24093 0.3878,0.37709 0.041,0.7951 -0.4376,0.52733 -0.5634,0.55748 -1.2202,0.29246 z"
       id="path371" />
    <path
       style="fill:#000000;stroke-width:0.32"
       d="m 87.163192,181.61291 c -0.2903,-0.46977 0.1411,-1.32577 0.6682,-1.32577 0.2984,0 0.431,0.25184 0.3658,0.69493 -0.1108,0.75263 -0.7266,1.12831 -1.034,0.63084 z"
       id="path369" />
    <path
       style="fill:#000000;stroke-width:0.32"
       d="m 14.958292,182.66706 c -0.3802,-0.45803 -0.3456,-0.50793 0.2846,-0.41065 0.3945,0.0609 0.7225,0.25113 0.7287,0.42273 0.019,0.53859 -0.5621,0.53166 -1.0133,-0.0121 z"
       id="path367" />
    <path
       style="fill:#000000;stroke-width:0.32"
       d="m 75.454892,184.58825 c 0,-0.27438 0.1464,-0.40843 0.3252,-0.29788 0.1789,0.11054 0.2424,0.33504 0.1411,0.49888 -0.2743,0.44385 -0.4663,0.36109 -0.4663,-0.201 z"
       id="path365" />
    <path
       style="fill:#000000;stroke-width:0.32"
       d="m 69.707192,184.79005 c -0.529,-0.98836 -0.4092,-1.94291 0.2437,-1.94291 0.3168,0 0.7435,-0.16745 0.9481,-0.37211 0.2828,-0.28281 0.4518,-0.16262 0.704,0.50083 0.479,1.25989 0.434,1.40204 -0.6158,1.94494 -0.884,0.45711 -0.9701,0.44832 -1.28,-0.13075 z"
       id="path363" />
    <path
       style="fill:#000000;stroke-width:0.32"
       d="m 84.414892,185.10603 c 0,-1.32582 0.5121,-1.48613 0.9288,-0.29076 0.4485,1.28642 0.4613,1.23187 -0.2888,1.23187 -0.4949,0 -0.64,-0.21333 -0.64,-0.94111 z"
       id="path361" />
    <path
       style="fill:#000000;stroke-width:0.32"
       d="m 62.974892,186.20714 c 0,-0.264 0.1395,-0.48 0.31,-0.48 0.1704,0 0.227,0.216 0.1257,0.48 -0.1013,0.264 -0.2408,0.48 -0.3099,0.48 -0.069,0 -0.1258,-0.216 -0.1258,-0.48 z"
       id="path359" />
    <path
       style="fill:#000000;stroke-width:0.32"
       d="m 69.059792,187.10208 c 0.01,-0.99138 0.409,-1.37166 0.9942,-0.94378 0.4611,0.33712 0.4357,0.43647 -0.242,0.94766 -0.7271,0.54843 -0.7569,0.54828 -0.7522,-0.004 z"
       id="path357" />
    <path
       style="fill:#000000;stroke-width:0.32"
       d="m 75.734092,187.40714 c -0.398,-0.50754 -0.3867,-0.51886 0.1208,-0.12082 0.308,0.24155 0.56,0.49355 0.56,0.56 0,0.26337 -0.2628,0.0939 -0.6808,-0.43918 z"
       id="path355" />
    <path
       style="fill:#000000;stroke-width:0.32"
       d="m 73.854892,187.96714 c 0,-0.41956 0.1551,-0.56038 0.48,-0.43572 0.264,0.10131 0.48,0.29738 0.48,0.43572 0,0.13834 -0.216,0.33441 -0.48,0.43572 -0.3249,0.12466 -0.48,-0.0162 -0.48,-0.43572 z"
       id="path353" />
    <path
       style="fill:#000000;stroke-width:0.32"
       d="m 65.934892,188.38131 c -0.6153,-0.11851 -0.72,-0.34147 -0.72,-1.53299 0,-1.2519 0.1057,-1.44704 1.0349,-1.91058 0.9629,-0.48038 1.0631,-0.47775 1.44,0.0377 0.4847,0.66289 0.5188,1.69111 0.093,2.81085 -0.3096,0.81431 -0.4592,0.86248 -1.8479,0.595 z"
       id="path351" />
    <path
       style="fill:#000000;stroke-width:0.32"
       d="m 112.45459,188.5195 c -0.3009,-1.12238 -0.2457,-1.24344 0.517,-1.13462 0.9208,0.13137 1.1075,1.07974 0.2979,1.51302 -0.5194,0.278 -0.6559,0.2146 -0.8149,-0.3784 z"
       id="path349" />
    <path
       style="fill:#000000;stroke-width:0.32"
       d="m 79.049692,190.01085 c 0.2095,-0.45997 0.436,-0.67122 0.5033,-0.46945 0.1701,0.51017 -0.1719,1.30574 -0.5612,1.30574 -0.2028,0 -0.1813,-0.31147 0.058,-0.83629 z"
       id="path347" />
    <path
       style="fill:#000000;stroke-width:0.32"
       d="m 74.317692,190.49926 c -0.1183,-0.19134 -0.09,-0.47334 0.064,-0.62668 0.3784,-0.37845 1.2114,0.17245 0.9355,0.61878 -0.2795,0.4523 -0.7225,0.4558 -0.9993,0.008 z"
       id="path345" />
    <path
       style="fill:#000000;stroke-width:0.32"
       d="m 107.67869,190.73812 c -0.2474,-0.64481 0.2814,-1.29119 0.8712,-1.06487 0.4369,0.16768 0.4552,0.30225 0.1153,0.84663 -0.4709,0.75402 -0.7566,0.81722 -0.9865,0.21824 z"
       id="path343" />
    <path
       style="fill:#000000;stroke-width:0.32"
       d="m 77.374892,191.16714 c 0,-0.176 0.1525,-0.32 0.3389,-0.32 0.1864,0 0.2499,0.144 0.1411,0.32 -0.1088,0.176 -0.2613,0.32 -0.3389,0.32 -0.078,0 -0.1411,-0.144 -0.1411,-0.32 z"
       id="path341" />
    <path
       style="fill:#000000;stroke-width:0.32"
       d="m 108.76119,191.83018 c -0.3547,-0.22453 -0.2151,-0.43284 0.64,-0.95507 0.9401,-0.57411 1.1087,-0.59788 1.2008,-0.16925 0.2616,1.21842 -0.7327,1.8257 -1.8408,1.12432 z"
       id="path339" />
    <path
       style="fill:#000000;stroke-width:0.32"
       d="m 72.060192,192.31214 c -0.096,-0.25024 0,-0.77727 0.2087,-1.17116 0.3394,-0.63413 0.4171,-0.65581 0.6782,-0.18925 0.1865,0.33324 0.1681,0.76374 -0.05,1.17117 -0.4078,0.76204 -0.6005,0.8056 -0.837,0.18924 z"
       id="path337" />
    <path
       style="fill:#000000;stroke-width:0.32"
       d="m 79.934892,192.58825 c 0,-0.27438 0.1464,-0.40843 0.3252,-0.29788 0.1789,0.11054 0.2424,0.33504 0.1411,0.49888 -0.2743,0.44385 -0.4663,0.36109 -0.4663,-0.201 z"
       id="path335" />
    <path
       style="fill:#000000;stroke-width:0.32"
       d="m 74.174892,192.58825 c 0,-0.27438 0.144,-0.40988 0.32,-0.30111 0.176,0.10877 0.32,0.33327 0.32,0.49889 0,0.16561 -0.144,0.30111 -0.32,0.30111 -0.176,0 -0.32,-0.2245 -0.32,-0.49889 z"
       id="path333" />
    <path
       style="fill:#000000;stroke-width:0.32"
       d="m 66.962292,192.41555 c 0.1217,-0.42263 0.6063,-1.56041 1.077,-2.52841 0.65,-1.337 1.0479,-1.78698 1.6556,-1.87226 0.44,-0.0617 0.9106,-0.27774 1.0458,-0.48 0.3169,-0.47418 1.8342,1.18963 1.8342,2.01128 0,0.81184 -1.8587,1.59324 -2.2646,0.95205 -0.1571,-0.24809 -0.2878,-0.71507 -0.2905,-1.03774 0,-0.32772 -0.1814,-0.52622 -0.4049,-0.44971 -0.2688,0.092 -0.3653,0.66469 -0.2942,1.74551 0.098,1.48599 0.045,1.62379 -0.6903,1.80835 -0.4378,0.10989 -1.042,0.29419 -1.3427,0.40956 -0.4529,0.17382 -0.5087,0.0781 -0.3254,-0.55863 z"
       id="path331" />
    <path
       style="fill:#000000;stroke-width:0.32"
       d="m 73.681792,193.70585 c -0.1161,-0.18771 -0.1423,-0.40992 -0.058,-0.4938 0.084,-0.0839 0.2377,0.0697 0.342,0.34129 0.2163,0.56387 0.032,0.66306 -0.2836,0.15251 z"
       id="path329" />
    <path
       style="fill:#000000;stroke-width:0.32"
       d="m 71.814892,194.11186 c -0.087,-0.1404 -0.039,-0.44786 0.1067,-0.68323 0.2045,-0.33087 0.3475,-0.27296 0.6302,0.25528 0.2966,0.55422 0.2764,0.68323 -0.1067,0.68323 -0.2598,0 -0.5434,-0.11488 -0.6302,-0.25528 z"
       id="path327" />
    <path
       style="fill:#000000;stroke-width:0.32"
       d="m 75.454892,194.52714 c 0,-0.264 0.1395,-0.48 0.31,-0.48 0.1704,0 0.227,0.216 0.1257,0.48 -0.1013,0.264 -0.2408,0.48 -0.3099,0.48 -0.069,0 -0.1258,-0.216 -0.1258,-0.48 z"
       id="path325" />
    <path
       style="fill:#000000;stroke-width:0.32"
       d="m 77.374892,196.02047 c 0,-1.23469 0.2445,-1.38881 1.3206,-0.83235 1.0751,0.55594 1.1588,0.94838 0.3005,1.40776 -1.0994,0.58834 -1.6211,0.40314 -1.6211,-0.57541 z"
       id="path323" />
    <path
       style="fill:#000000;stroke-width:0.32"
       d="m 74.494892,196.28714 c 0,-0.59733 0.085,-0.68267 0.384,-0.384 0.2987,0.29867 0.2987,0.46933 0,0.768 -0.2987,0.29867 -0.384,0.21333 -0.384,-0.384 z"
       id="path321" />
    <path
       style="fill:#000000;stroke-width:0.32"
       d="m 67.328492,196.14688 c -0.1071,-0.42643 -0.046,-1.16628 0.1357,-1.64411 l 0.3303,-0.86879 0.7944,0.74634 c 0.9194,0.86367 1.7146,0.50022 1.1789,-0.53882 -0.3802,-0.73754 -0.1706,-1.39436 0.445,-1.39436 0.3671,0 0.392,0.1358 0.1186,0.64661 -0.4324,0.80782 -0.2641,1.08488 0.9687,1.59554 0.5384,0.22302 0.9267,0.56207 0.8629,0.75344 -0.1656,0.49697 -2.2518,0.87433 -2.5114,0.45428 -0.1363,-0.22056 -0.5484,-0.0999 -1.1695,0.34231 l -0.959,0.68288 z"
       id="path319" />
    <path
       style="fill:#000000;stroke-width:0.32"
       d="m 61.214892,196.60714 c -0.2609,-0.42225 0.1217,-1.02146 0.5021,-0.78633 0.3887,0.24021 0.3862,1.10633 0,1.10633 -0.1656,0 -0.3901,-0.144 -0.4989,-0.32 z"
       id="path317" />
    <path
       style="fill:#000000;stroke-width:0.32"
       d="m 66.238892,199.74314 c -0.5405,-0.54056 -0.477,-1.11183 0.1504,-1.3526 0.6904,-0.26492 1.1093,0.41712 0.712,1.15936 -0.3661,0.68412 -0.3705,0.68511 -0.8624,0.19324 z"
       id="path315" />
    <path
       style="fill:#000000;stroke-width:0.32"
       d="m 76.734892,200.00669 c 0,-0.2968 0.2222,-0.62491 0.4938,-0.72912 0.7765,-0.29797 0.8517,0.0511 0.1482,0.68779 -0.5859,0.53017 -0.642,0.53378 -0.642,0.0413 z"
       id="path313" />
    <path
       style="fill:#000000;stroke-width:0.32"
       d="m 19.768492,199.95939 c -0.2226,-0.26826 -0.3246,-0.56792 -0.2266,-0.66593 0.2855,-0.28552 1.5502,0.51459 1.3431,0.84971 -0.2706,0.43787 -0.6528,0.37496 -1.1165,-0.18378 z"
       id="path311" />
    <path
       style="fill:#000000;stroke-width:0.32"
       d="m 62.278092,199.8496 -1.0269,-0.91752 1.0488,-2.36248 c 1.1423,-2.57329 2.8343,-5.40248 3.231,-5.40248 0.3656,0 0.6034,1.5668 0.4354,2.86863 -0.4219,3.26838 -0.406,3.22996 -1.2464,3.01903 -1.055,-0.26478 -1.0289,0.41497 0.034,0.89948 0.6701,0.30533 0.7821,0.52255 0.6142,1.19135 -0.4684,1.86649 -1.5211,2.10628 -3.0906,0.70399 z"
       id="path309" />
    <path
       style="fill:#000000;stroke-width:0.32"
       d="m 67.785092,200.34045 c -0.01,-0.84226 0.1152,-1.18493 0.3898,-1.09348 0.5958,0.19836 0.6412,0.96955 0.099,1.68634 -0.4526,0.59881 -0.4796,0.56606 -0.4892,-0.59286 z"
       id="path307" />
    <path
       style="fill:#000000;stroke-width:0.32"
       d="m 69.737092,202.89202 c -0.6186,-0.6585 -0.6601,-0.86318 -0.3244,-1.6 0.4418,-0.96968 1.5497,-1.13167 2.3394,-0.34204 0.6984,0.69845 0.6281,1.37 -0.2172,2.0752 -0.9209,0.76823 -0.9532,0.76583 -1.7978,-0.13316 z"
       id="path305" />
    <path
       style="fill:#000000;stroke-width:0.32"
       d="m 67.034892,204.40045 c -0.121,-0.121 -0.22,-0.48522 -0.22,-0.80937 0,-0.50953 0.087,-0.53516 0.6408,-0.18918 0.6491,0.40534 0.7039,0.91698 0.1192,1.11189 -0.176,0.0587 -0.419,0.008 -0.54,-0.11334 z"
       id="path303" />
    <path
       style="fill:#000000;stroke-width:0.32"
       d="m 69.400192,204.74045 c 0.015,-0.37278 0.091,-0.4486 0.1933,-0.19333 0.092,0.231 0.081,0.507 -0.025,0.61333 -0.1063,0.10634 -0.182,-0.0827 -0.1681,-0.42 z"
       id="path301" />
    <path
       style="fill:#000000;stroke-width:0.32"
       d="m 98.174892,205.23708 c 0,-0.86172 0.8803,-1.1668 1.5202,-0.52687 0.467498,0.46748 0.436598,0.53875 -0.3656,0.84376 -1.1521,0.43803 -1.1546,0.43735 -1.1546,-0.31689 z"
       id="path299" />
    <path
       style="fill:#000000;stroke-width:0.32"
       d="m 64.263792,205.41778 c -0.2262,-0.27246 -0.2641,-0.49066 -0.085,-0.49066 0.177,0 0.3883,-0.34793 0.4696,-0.77319 0.1069,-0.5589 -0.038,-0.8633 -0.5227,-1.09834 -0.5673,-0.27513 -0.4572,-0.32849 0.7156,-0.34681 l 1.3861,-0.0217 -0.6922,-1.12 -0.6922,-1.12 h 1.188 1.188 l -0.1924,1.18558 c -0.2195,1.35242 -1.4926,3.98818 -2.0097,4.16053 -0.1901,0.0634 -0.5288,-0.10559 -0.7528,-0.37545 z"
       id="path297" />
    <path
       style="fill:#000000;stroke-width:0.32"
       d="m 66.803692,206.35356 c -0.574,-0.69163 0.018,-1.17688 0.7633,-0.62619 0.3256,0.24044 0.4971,0.59075 0.3811,0.77846 -0.2938,0.47534 -0.6645,0.42602 -1.1444,-0.15227 z"
       id="path295" />
    <path
       style="fill:#000000;stroke-width:0.32"
       d="m 68.609692,207.03186 c 0.1995,-0.52001 1.081,-0.93558 1.3705,-0.64611 0.201,0.20101 -0.8588,1.10137 -1.2964,1.10137 -0.1368,0 -0.1702,-0.20487 -0.074,-0.45526 z"
       id="path293" />
    <path
       style="fill:#000000;stroke-width:0.32"
       d="m 98.174892,207.48712 c 0,-0.176 0.144,-0.32 0.32,-0.32 0.176,0 0.32,0.144 0.32,0.32 0,0.176 -0.144,0.32 -0.32,0.32 -0.176,0 -0.32,-0.144 -0.32,-0.32 z"
       id="path291" />
    <path
       style="fill:#000000;stroke-width:0.32"
       d="m 65.494092,210.76712 c -0.398,-0.50754 -0.3867,-0.51886 0.1208,-0.12082 0.308,0.24155 0.56,0.49355 0.56,0.56 0,0.26337 -0.2628,0.0939 -0.6808,-0.43918 z"
       id="path289" />
    <path
       style="fill:#000000;stroke-width:0.32"
       d="m 72.628292,211.42632 c -0.4618,-0.18432 -1.6534,-2.72335 -1.6534,-3.52305 0,-0.33325 0.2055,-0.43707 0.64,-0.32343 0.352,0.0921 0.64,0.0414 0.64,-0.11263 0,-0.154 0.2117,-0.19877 0.4704,-0.0995 0.3102,0.11905 0.4524,0.5787 0.4176,1.34996 -0.029,0.6432 0.063,1.56545 0.2043,2.04945 0.2537,0.86834 0.1176,0.99309 -0.7189,0.6592 z"
       id="path287" />
    <path
       style="fill:#000000;stroke-width:0.32"
       d="m 64.076092,211.8173 c -0.3417,-0.2584 -0.453,-0.4744 -0.2474,-0.48 0.608,-0.0165 1.3862,0.35627 1.3862,0.66406 0,0.41938 -0.4337,0.34928 -1.1388,-0.18406 z"
       id="path285" />
    <path
       style="fill:#000000;stroke-width:0.32"
       d="m 97.129592,213.20741 c 0.217,-0.21869 0.4752,-0.31701 0.5738,-0.21849 0.098,0.0985 -0.079,0.27746 -0.3947,0.39763 -0.4561,0.17365 -0.4928,0.1369 -0.1791,-0.17914 z"
       id="path283" />
    <path
       style="fill:#000000;stroke-width:0.32"
       d="m 65.848492,219.15939 c -0.6184,-0.74508 -0.1771,-0.88549 0.4846,-0.15423 0.3196,0.35308 0.4323,0.64196 0.2506,0.64196 -0.1817,0 -0.5126,-0.21948 -0.7352,-0.48773 z"
       id="path281" />
    <path
       style="fill:#000000;stroke-width:0.32"
       d="m 90.228092,225.38724 c -0.9289,-0.37231 -0.7622,-0.99282 0.3462,-1.28927 0.8477,-0.2267 1.2006,0.11879 1.2006,1.17532 0,0.51473 -0.4619,0.54876 -1.5468,0.11395 z"
       id="path279" />
    <path
       style="fill:#000000;stroke-width:0.32"
       d="m 87.454892,226.04712 c 0.1088,-0.176 0.3418,-0.32 0.5178,-0.32 0.176,0 0.231,0.144 0.1222,0.32 -0.1088,0.176 -0.3418,0.32 -0.5178,0.32 -0.176,0 -0.231,-0.144 -0.1222,-0.32 z"
       id="path277" />
    <path
       style="fill:#000000;stroke-width:0.32"
       d="m 92.241692,226.66583 c -0.116,-0.18771 -0.1423,-0.40992 -0.058,-0.4938 0.084,-0.0839 0.2378,0.0697 0.342,0.34129 0.2164,0.56387 0.032,0.66306 -0.2835,0.15251 z"
       id="path275" />
    <path
       style="fill:#000000;stroke-width:0.32"
       d="m 60.618492,229.08528 c -0.1115,-0.29045 10e-4,-0.47816 0.2865,-0.47816 0.5175,0 0.6353,0.50004 0.1834,0.77928 -0.1575,0.0974 -0.369,-0.0381 -0.4699,-0.30112 z"
       id="path273" />
    <path
       style="fill:#000000;stroke-width:0.32"
       d="m 82.602392,232.58561 c -0.2842,-0.74064 0.3447,-1.23039 0.8296,-0.64607 0.41,0.49397 0.2243,1.14758 -0.326,1.14758 -0.1712,0 -0.3978,-0.22568 -0.5036,-0.50151 z"
       id="path271" />
    <path
       style="fill:#000000;stroke-width:0.32"
       d="m 87.195192,233.70053 c -0.227,-0.86817 -0.1292,-1.0301 0.5324,-0.8817 0.4081,0.0915 0.4193,0.2258 0.073,0.86773 l -0.4101,0.75943 z"
       id="path269" />
    <path
       style="fill:#000000;stroke-width:0.32"
       d="m 11.454892,234.84712 c 0,-0.264 0.1395,-0.48 0.31,-0.48 0.1704,0 0.227,0.216 0.1257,0.48 -0.1013,0.264 -0.2408,0.48 -0.3099,0.48 -0.069,0 -0.1258,-0.216 -0.1258,-0.48 z"
       id="path267" />
    <path
       style="fill:#000000;stroke-width:0.32"
       d="m 13.688492,235.15939 c -0.2226,-0.26826 -0.3054,-0.58716 -0.1838,-0.70869 0.2669,-0.2669 1.2225,0.29316 1.3978,0.81928 0.1823,0.5469 -0.7379,0.46307 -1.214,-0.11059 z"
       id="path265" />
    <path
       style="fill:#000000;stroke-width:0.32"
       d="m 84.030892,242.62312 c 0.2987,-0.29867 0.4693,-0.29867 0.768,0 0.2987,0.29867 0.2133,0.384 -0.384,0.384 -0.5973,0 -0.6827,-0.0853 -0.384,-0.384 z"
       id="path263" />
    <path
       style="fill:#000000;stroke-width:0.32"
       d="m 87.372992,243.24712 c 0.072,-0.22 0.659,-0.44462 1.3039,-0.49916 0.9534,-0.0806 1.1368,-0.006 0.9811,0.4 -0.2383,0.62099 -2.4885,0.71864 -2.285,0.0992 z"
       id="path261" />
    <path
       style="fill:#000000;stroke-width:0.32"
       d="m 79.614892,244.40794 c 0,-0.42522 0.087,-0.44708 0.48,-0.12082 0.264,0.2191 0.48,0.45273 0.48,0.51918 0,0.0665 -0.216,0.12082 -0.48,0.12082 -0.264,0 -0.48,-0.23363 -0.48,-0.51918 z"
       id="path259" />
    <path
       style="fill:#000000;stroke-width:0.32"
       d="m 12.619192,245.40712 c -0.1967,-0.51249 0.073,-0.59911 0.8895,-0.28576 0.7003,0.26869 0.6356,0.76576 -0.1,0.76576 -0.3331,0 -0.6886,-0.216 -0.7899,-0.48 z"
       id="path257" />
    <path
       style="fill:#000000;stroke-width:0.32"
       d="m 5.0682923,247.56712 c -0.011,-1.15114 0.085,-1.36 0.6266,-1.36 0.7809,0 0.7809,0.1736 0,1.6 l -0.6132,1.12 -0.013,-1.36 z"
       id="path255" />
    <path
       style="fill:#000000;stroke-width:0.32"
       d="m 76.734892,250.21716 c 0,-0.28627 0.1876,-0.39796 0.48,-0.28576 0.264,0.10131 0.48,0.31279 0.48,0.46996 0,0.15716 -0.216,0.28576 -0.48,0.28576 -0.264,0 -0.48,-0.21148 -0.48,-0.46996 z"
       id="path253" />
    <path
       style="fill:#000000;stroke-width:0.32"
       d="m 85.091492,255.18972 c -0.2751,-0.17003 -0.3079,-0.33494 -0.093,-0.46782 0.1826,-0.11287 0.4284,-0.0493 0.5462,0.14129 0.2939,0.47555 0.06,0.6439 -0.4534,0.32653 z"
       id="path251" />
    <path
       style="fill:#000000;stroke-width:0.32"
       d="m 76.094892,254.63379 c 0,-0.93813 0.057,-0.92564 0.6079,0.13333 0.3105,0.59668 0.2905,0.72 -0.1166,0.72 -0.3189,0 -0.4913,-0.29946 -0.4913,-0.85333 z"
       id="path249" />
    <path
       style="fill:#000000;stroke-width:0.32"
       d="m 7.3351923,256.4788 c -0.3644,-0.23084 -0.3389,-0.44913 0.149,-1.2751 0.6705,-1.13505 0.7439,-1.16073 1.5769,-0.55164 0.5223,0.38196 0.5546,0.56317 0.228,1.28 -0.3845,0.84383 -1.1477,1.0574 -1.9539,0.54674 z"
       id="path247" />
    <path
       style="fill:#000000;stroke-width:0.32"
       d="m 70.445292,256.91332 c -0.2414,-0.62921 0.044,-0.91811 0.6704,-0.67784 0.2813,0.10792 0.4083,0.39615 0.2996,0.67953 -0.2426,0.63216 -0.7271,0.63132 -0.97,-0.002 z"
       id="path245" />
    <path
       style="fill:#000000;stroke-width:0.32"
       d="m 83.824292,263.98707 c 0.061,-0.29357 0.2546,-0.52615 0.4306,-0.51685 0.475,0.0251 0.3877,0.741 -0.1106,0.90709 -0.2691,0.0897 -0.3891,-0.0566 -0.32,-0.39024 z"
       id="path243" />
    <path
       style="fill:#000000;stroke-width:0.32"
       d="m 85.374892,264.76712 c 0,-0.176 0.1525,-0.32 0.3389,-0.32 0.1864,0 0.2499,0.144 0.1411,0.32 -0.1088,0.176 -0.2613,0.32 -0.3389,0.32 -0.078,0 -0.1411,-0.144 -0.1411,-0.32 z"
       id="path241" />
    <path
       style="fill:#000000;stroke-width:0.32"
       d="m 75.454892,266.98823 c 0,-0.36238 0.144,-0.56988 0.32,-0.46111 0.176,0.10877 0.32,0.40527 0.32,0.65889 0,0.25361 -0.144,0.46111 -0.32,0.46111 -0.176,0 -0.32,-0.2965 -0.32,-0.65889 z"
       id="path239" />
    <path
       style="fill:#000000;stroke-width:0.32"
       d="m 77.694892,268.46601 c 0,-1.05254 0.4366,-1.25401 1.1086,-0.51151 0.6372,0.70415 0.4153,1.29262 -0.4875,1.29262 -0.4452,0 -0.6211,-0.22125 -0.6211,-0.78111 z"
       id="path237" />
    <path
       style="fill:#000000;stroke-width:0.32"
       d="m 69.854892,269.5102 c -0.352,-0.19661 -0.6794,-0.38762 -0.7275,-0.42447 -0.1867,-0.14287 0.3311,-1.11861 0.5935,-1.11861 0.1527,0 0.501,0.432 0.774,0.96 0.5294,1.02367 0.3847,1.15543 -0.64,0.58308 z"
       id="path235" />
    <path
       style="fill:#000000;stroke-width:0.32"
       d="m 64.947892,269.92661 c -0.3265,-0.20694 -0.2748,-0.31051 0.2193,-0.43973 0.3854,-0.10079 0.7153,0.0105 0.817,0.2756 0.1893,0.49336 -0.3758,0.58286 -1.0363,0.16413 z"
       id="path233" />
    <path
       style="fill:#000000;stroke-width:0.32"
       d="m 67.454892,270.20712 c 0,-0.176 0.1525,-0.32 0.3389,-0.32 0.1864,0 0.2499,0.144 0.1411,0.32 -0.1088,0.176 -0.2613,0.32 -0.3389,0.32 -0.078,0 -0.1411,-0.144 -0.1411,-0.32 z"
       id="path231" />
    <path
       style="fill:#000000;stroke-width:0.32"
       d="m 230.81489,272.72951 c -3.5501,-0.27409 -6.5431,-1.07599 -9.92,-2.65775 -6.7034,-3.13994 -9.4837,-7.84179 -10.4685,-17.70384 -0.4412,-4.41735 -0.054,-8.99431 1.3432,-15.8947 0.5316,-2.62437 0.9302,-4.80318 0.8859,-4.84181 -0.044,-0.0386 -1.8806,2.24727 -4.0806,5.07976 -10.624,13.6784 -17.5185,20.72416 -25.12,25.67117 -4.8639,3.16538 -8.9013,4.75927 -12.96,5.11635 -9.6696,0.85072 -16.9619,-7.35128 -16.5802,-18.64858 0.055,-1.6305 7e-4,-2.92819 -0.1208,-2.88375 -0.1216,0.0444 -3.075,2.8168 -6.5631,6.1608 -9.6462,9.24769 -14.1625,12.85846 -19.4948,15.58601 -4.6468,2.37693 -6.7784,2.96661 -10.6811,2.95484 -3.9179,-0.0118 -5.8438,-0.58468 -8.8665,-2.63739 -3.3658,-2.28563 -7.5785,-7.61219 -9.554898,-12.08114 -1.7908,-4.04927 -2.2021,-6.29632 -2.1936,-11.98232 0,-2.91918 0.2496,-7.28312 0.5484,-9.76 0.2972,-2.464 0.677,-6.208 0.8441,-8.32 0.3671,-4.64242 1.1991,-7.32388 4.021398,-12.96 3.8431,-7.67442 12.3114,-21.56539 18.2538,-29.94234 9.1755,-12.93451 17.8879,-21.42057 31.1873,-30.37676 2.6128,-1.75954 9.3392,-5.29069 10.8115,-5.6757 0.3897,-0.10191 0.7085,-0.41476 0.7085,-0.69524 0,-0.28048 0.1594,-0.50996 0.3542,-0.50996 0.1949,0 0.2809,0.19127 0.1912,0.42505 -0.1313,0.34219 0.1583,0.33134 1.4857,-0.0556 1.0943,-0.31899 3.1558,-0.48887 6.1289,-0.50505 3.9356,-0.0214 4.7716,0.0713 6.88,0.76271 6.7484,2.21313 12.0775,8.40393 14.2661,16.57292 0.4834,1.804 0.9895,3.28 1.1249,3.28 0.3578,0 3.2534,-4.90796 4.4366,-7.52 0.558,-1.232 1.882,-4.4 2.9422,-7.04 3.0057,-7.48479 5.9881,-13.51349 6.792,-13.72925 1.9208,-0.51551 3.63,0.35858 6.3139,3.22893 6.1665,6.59482 9.998,15.77327 9.2666,22.19835 -0.1858,1.63229 -1.6861,4.28133 -18.3051,32.32 -21.154,35.68982 -20.1869,34.02829 -22.4333,38.54197 -2.2132,4.44707 -3.3042,7.1978 -3.9373,9.92773 -0.7894,3.4041 -0.1475,4.95227 2.0534,4.95227 3.4835,0 9.632,-5.48039 18.13,-16.16 11.1475,-14.00924 21.8003,-28.30158 24.8824,-33.38361 0.8428,-1.38969 5.7815,-11.65489 10.975,-22.81155 6.1438,-13.1981 12.1205,-25.43467 17.1076,-35.02553 4.2158,-8.10738 7.665,-14.82407 7.665,-14.92599 0,-0.22782 -2.1705,0.2328 -4.32,0.91677 -2.3456,0.74638 -6.3727,2.8252 -8.7771,4.5308 -2.0583,1.46 -7.2288,6.39895 -9.8608,9.41911 -1.7767,2.03864 -2.5775,2.03864 -3.5879,0 -1.0242,-2.06659 -1.2416,-5.86339 -0.4994,-8.72 0.6725,-2.58796 2.5832,-6.30073 4.4895,-8.72345 2.6695,-3.39277 12.3703,-10.45811 19.3557,-14.09734 1.848,-0.96276 6.346,-2.86373 9.9955,-4.22439 l 6.6356,-2.47391 2.6141,-5.000465 c 2.9323,-5.60931 11.758,-21.14864 14.926,-26.28046 3.8863,-6.29513 8.3565,-12.1739 11.3677,-14.94951 3.8106,-3.5125 7.81,-1.92529 10.0979,4.00754 1.4707,3.81357 1.9744,5.93709 2.1844,9.20919 0.3564,5.5541 -1.0465,9.58591 -6.4273,18.47129 -2.899,4.7871 -5.7488,10.13328 -5.5223,10.35975 0.1819,0.18191 7.9256,-1.3274 10.9718,-2.13849 11.3012,-3.00909 24.3269,-9.37462 30.4503,-14.88069 0.9315,-0.83762 2.8538,-3.23464 4.2717,-5.32673 1.418,-2.09209 2.8728,-3.96154 3.233,-4.15432 0.8101,-0.43353 3.2912,-0.22155 4.5364,0.38759 1.2731,0.62282 1.8562,2.40859 1.7233,5.27778 -0.1541,3.32599 -1.7265,6.33285 -5.2458,10.03097 -1.4898,1.56555 -3.749,3.68521 -5.0205,4.71036 -1.2715,1.02515 -5.4078,4.39761 -9.1918,7.494365 -12.0182,9.83545 -16.5646,13.03029 -23.2,16.30293 -4.5728,2.25538 -5.8909,2.70408 -14.5109,4.93974 -6.5741,1.70504 -10.3489,2.88617 -12.0167,3.75997 -0.6908,0.36196 -2.6163,3.77041 -9.1958,16.27805 -16.0077,30.43064 -23.4564,46.21588 -32.6069,69.10023 -4.9681,12.42474 -7.1719,19.27217 -8.754,27.2 -1.0688,5.35558 -1.3166,8.66866 -0.8538,11.41264 0.6464,3.83227 2.1186,5.30431 5.4958,5.49514 2.8715,0.16226 5.4118,-0.70239 9.0996,-3.09723 5.9803,-3.8835 10.9335,-8.40982 21.5187,-19.66416 14.3472,-15.25407 18.7623,-20.74168 27.0866,-33.66639 12.7436,-19.78634 18.0517,-26.02398 30.317,-35.6262 9.4149,-7.37076 14.6411,-9.85825 21.4453,-10.2073 7.3581,-0.37747 12.001,1.81107 14.3682,6.7727 1.3581,2.84656 1.672,4.89081 1.4775,9.6208 -0.5274,12.82573 -8.2079,27.41587 -19.5825,37.19994 -8.1549,7.01462 -19.4064,12.63088 -30.2816,15.11531 l -3.0734,0.70214 -1.6694,5.26881 c -3.046,9.61339 -3.3239,10.9345 -3.3555,15.9538 -0.026,4.05896 0.039,4.60607 0.6889,5.82146 2.4622,4.60636 9.2158,4.75329 17.6829,0.38471 5.8343,-3.0102 11.1364,-7.29164 19.07,-15.39919 14.3451,-14.65954 27.3314,-32.13216 43.7074,-58.80698 8.2065,-13.36748 10.6447,-17.58137 14.9052,-25.76 7.0512,-13.53549 10.5183,-18.83466 14.2818,-21.82793 1.961,-1.55966 3.0563,-1.65651 4.955,-0.43809 5.2551,3.3722 8.4298,10.08998 7.4549,15.7751 -0.4129,2.40804 -1.0839,3.91616 -3.0001,6.74389 -2.0822,3.07267 -2.8076,4.92972 -2.8111,7.19713 0,2.67674 0.7641,4.83665 3.9991,11.24384 1.4735,2.91834 2.9963,6.24206 3.3841,7.38606 0.8769,2.58732 1.1916,8.05386 0.631,10.96222 -0.3607,1.87154 -12.7813,29.75069 -20.3501,45.67778 -1.4636,3.08 -2.9617,6.50211 -3.3292,7.6047 -1.4084,4.22658 -1.6441,9.43977 -0.4476,9.89891 0.8864,0.34014 5.582,-0.80796 7.999,-1.95578 8.3112,-3.94697 17.9663,-14.04527 28.4805,-29.78783 4.4963,-6.73216 9.4956,-15.10848 12.2232,-20.48 1.6087,-3.168 3.6501,-6.72304 4.5365,-7.9001 2.6026,-3.45621 5.7007,-5.30269 7.512,-4.47736 1.0343,0.4712 2.0757,2.19104 2.0772,3.43023 0,3.51721 -3.7215,11.33003 -9.6079,20.14723 -0.8225,1.232 -3.3073,5.1454 -5.5218,8.69644 -10.2745,16.47591 -17.0442,25.54352 -24.8901,33.33909 -8.8405,8.7837 -17.1649,14.05455 -25.1105,15.8993 -4.8547,1.12714 -10.494,0.4969 -14.0145,-1.56623 -3.2496,-1.9044 -5.9968,-6.09853 -7.3367,-11.20069 -0.9363,-3.56512 -1.0062,-12.14209 -0.1321,-16.20791 1.2202,-5.67578 4.2362,-13.89419 8.0443,-21.92 2.2508,-4.74376 7.1795,-13.82669 9.2871,-17.11467 3.3402,-5.21106 5.0194,-9.95243 4.3646,-12.32379 -0.3765,-1.3639 -6.7619,-10.5346 -7.0905,-10.18354 -0.1349,0.1441 -0.6955,1.3542 -1.2458,2.6891 -1.7591,4.26705 -5.2083,9.87536 -10.7091,17.4129 -1.4129,1.936 -5.6582,8.056 -9.4339,13.6 -13.9826,20.53083 -20.7318,29.05022 -30.8066,38.88638 -12.1736,11.88516 -24.816,19.61585 -36.1425,22.10077 -3.3305,0.73069 -9.4433,0.73195 -12.1328,0.003 -9.3428,-2.53404 -14.7181,-10.65594 -15.6629,-23.66596 -0.1679,-2.31202 -0.194,-5.78768 -0.058,-7.72368 0.1359,-1.936 0.1839,-3.592 0.1066,-3.68 -0.077,-0.088 -0.3037,0.1143 -0.503,0.44956 -5.2195,8.77749 -17.7491,20.57519 -31.163,29.34267 -8.8616,5.79204 -14.5539,7.56968 -22.3195,6.97012 z m -95.4371,-23.30506 c 3.4977,-1.72712 12.0928,-9.1051 16.365,-14.04756 5.5501,-6.42086 9.5008,-12.34634 17.955,-26.92973 2.6017,-4.488 5.5282,-9.456 6.5032,-11.04 6.334,-10.28999 8.3334,-15.89997 6.9541,-19.51162 -0.6984,-1.82882 -1.7386,-2.55194 -4.3139,-2.99889 l -2.0537,-0.35643 -3.5463,1.9422 c -16.4366,9.00189 -29.7767,22.85184 -42.8085,44.44474 -3.0128,4.992 -4.3478,7.64784 -5.7906,11.52 -2.873,7.71018 -2.862,13.59468 0.031,16.4192 1.591,1.55362 2.5015,1.82167 5.8222,1.71418 2.3358,-0.0756 3.0256,-0.23891 4.883,-1.15609 z M 325.68309,207.32 c 5.6651,-2.33328 12.9487,-7.35284 18.5295,-12.76995 7.8438,-7.61366 11.8823,-14.73334 11.8823,-20.94809 0,-2.36415 -0.042,-2.5113 -0.8203,-2.86586 -0.7373,-0.33594 -1.0529,-0.22356 -3.12,1.11112 -8.9539,5.78132 -21.1458,20.2328 -29.3248,34.7599 -1.2755,2.26542 -1.0519,2.32129 2.8533,0.71288 z"
       id="path229" />
    <path
       style="fill:#000000;stroke-width:0.32"
       d="m 65.361792,274.02587 c -0.1161,-0.18771 -0.1341,-0.41813 -0.04,-0.51204 0.2292,-0.22922 0.8533,0.17466 0.8533,0.55222 0,0.40895 -0.5525,0.38165 -0.8132,-0.0402 z"
       id="path227" />
    <path
       style="fill:#000000;stroke-width:0.32"
       d="m 79.637392,274.88193 -0.7775,-0.43885 1.0387,-0.53716 c 1.4947,-0.77292 2.7563,-0.56179 2.7563,0.46124 0,0.68632 -0.1591,0.81092 -1.12,0.87681 -0.616,0.0423 -1.4699,-0.12067 -1.8975,-0.36204 z"
       id="path225" />
    <path
       style="fill:#000000;stroke-width:0.32"
       d="m 75.546892,276.61732 c -0.7983,-0.64646 -0.6511,-0.97016 0.4413,-0.97016 0.5258,0 0.7467,0.18376 0.7467,0.62111 0,0.8914 -0.3802,1.00312 -1.188,0.34905 z"
       id="path223" />
    <path
       style="fill:#000000;stroke-width:0.32"
       d="m 64.894892,278.36716 c -0.336,-0.4049 -0.2732,-0.48 0.4016,-0.48 0.44,0 0.9793,0.216 1.1984,0.48 0.336,0.4049 0.2732,0.48 -0.4016,0.48 -0.44,0 -0.9793,-0.216 -1.1984,-0.48 z"
       id="path221" />
    <path
       style="fill:#000000;stroke-width:0.32"
       d="m -4.8651077,281.75062 c 0,-0.45795 0.2055,-0.66346 0.6635,-0.66346 0.82,0 0.727,1.05915 -0.1072,1.21979 -0.384,0.0739 -0.5563,-0.0984 -0.5563,-0.55633 z"
       id="path219" />
    <path
       style="fill:#000000;stroke-width:0.32"
       d="m 12.308192,285.99383 c -0.3856,-0.38561 -0.2231,-0.99443 0.3211,-1.20327 0.5407,-0.20747 1.0517,0.28232 1.0607,1.0166 0,0.41827 -1.0127,0.55576 -1.3818,0.18667 z"
       id="path217" />
    <path
       style="fill:#000000;stroke-width:0.32"
       d="m 47.214892,208.58249 c -0.132,-0.13312 -0.24,-0.53484 -0.24,-0.8927 0,-0.47097 0.097,-0.55401 0.35,-0.30066 0.1925,0.19251 0.3005,0.59422 0.24,0.89271 -0.061,0.29848 -0.218,0.43378 -0.35,0.30065 z"
       id="path215" />
    <path
       style="fill:#000000;stroke-width:0.32"
       d="m 24.654892,246.63519 c -0.5572,-0.22483 -0.5012,-0.74807 0.08,-0.74807 0.264,0 0.48,0.216 0.48,0.48 0,0.264 -0.036,0.46863 -0.08,0.45474 -0.044,-0.0139 -0.26,-0.0979 -0.48,-0.18667 z"
       id="path213" />
    <path
       style="fill:#000000;stroke-width:0.32"
       d="M 36.289492,298.20007 C 26.913685,295.73714 20.995088,284.8096 18.259352,276.59179 9.32041,247.99078 17.901822,218.18151 24.649588,190.11481 30.2769,164.34028 41.012271,140.07722 50.145723,115.41935 57.564303,97.186412 65.381419,78.787081 76.928868,62.747247 84.43948,51.374205 103.37258,53.916989 106.5488,67.44672 109.22578,78.783044 99.737757,87.264524 96.067083,97.118653 91.573718,106.76473 85.937106,116.11376 82.65736,126.18481 c -2.622866,9.4111 -8.889474,17.41487 -10.6048,27.20741 -4.233452,7.21928 -5.853143,16.61833 -6.099391,21.25559 -6.503365,2.70093 -0.186104,6.24103 0.898203,2.22485 6.70966,4.45575 1.6793,3.44286 -2.209544,6.33735 -3.569981,-6.12432 -6.000081,7.92563 -0.372336,8.06188 -2.278939,8.10316 -5.393429,-6.31543 -6.156996,3.08967 -1.201738,2.36976 0.276761,7.62908 1.464371,2.04635 1.139239,2.51534 -3.719393,12.30915 1.399498,6.89784 -0.45922,2.47015 5.786063,3.84005 5.024802,5.09313 -3.969653,3.54826 -6.522651,3.8447 -1.581702,7.46145 1.850234,6.89493 -10.612651,11.71727 -1.802661,16.58408 -4.70508,-2.97707 7.935228,-4.34862 0.536425,-4.22181 -1.529617,-6.61831 7.050705,0.44257 3.254099,-5.87932 4.339504,5.46046 0.88526,-8.16612 3.368164,-2.39163 9.234447,-16.26271 16.664397,-33.50698 24.917592,-50.29294 12.595366,-27.36713 26.227976,-54.25995 41.813166,-80.055696 6.14604,-10.23478 11.89734,-21.366599 21.23986,-29.033498 12.94326,-6.779199 20.84781,9.253106 10.64932,17.835061 -18.76217,33.130323 -39.86006,64.969813 -57.09994,98.936893 6.35338,1.00186 -6.88516,7.10274 -6.3343,11.56477 -0.20457,8.14957 -11.058777,13.51155 -10.683483,22.70527 -6.184906,7.89379 -11.244901,16.47864 -14.693668,26.18267 -4.19956,9.76084 -9.369616,19.02491 -13.966257,28.18292 -4.477671,11.48902 -8.487421,25.83175 -20.877228,31.48936 -2.673306,0.97294 -5.662958,1.51279 -8.451062,0.73361 z m -10.9036,-12.38996 c -5.957858,-3.84747 2.31262,2.69203 0,0 z m -0.3138,-3.73511 c -2.779831,-1.93289 -0.700795,2.23296 0,0 z m 19.8228,-3.71226 c -1.98997,-3.00511 -1.595719,2.08851 0,0 z m -19.5095,-3.97532 c -4.64771,-4.28582 -1.503342,4.74564 0,0 z m -1.6105,-8.9803 c -0.487368,-1.1946 -1.143398,1.34375 0,0 z m 41.6755,-0.4 c -1.871295,-3.25192 -3.406885,2.48552 0,0 z m -44.5555,-1.2 c -0.421251,-1.21335 -0.718275,1.23922 0,0 z m 46.0036,-4.55633 c -0.415293,-5.74597 -3.120789,3.57685 0,0 z m -2.9353,-2.72367 c -2.188837,-4.40628 -2.890777,4.07932 0,0 z m 3.3531,-1.36814 c 1.590072,-3.24172 -3.844386,0.82863 0,0 z m -43.7632,-4.64033 c -0.901457,0.49468 -0.297325,1.36968 0,0 z m 2.1766,-3.43153 c 6.543917,-12.3206 -8.928486,3.0269 0,0 z m 40.8961,-4.76714 c -1.941658,-0.99131 0.337388,3.18979 0,0 z m -36.2909,-0.11286 c -1.150507,-1.36882 -1.211019,1.38105 0,0 z m -10.88,-1.92 c 0.355082,-2.0237 -2.565235,2.22176 0,0 z m 3.3431,-0.18733 c -1.467079,-0.73823 0.0041,1.64239 0,0 z m 7.3333,-0.13083 c -1.336196,-1.22865 -0.150441,1.55229 0,0 z m -10.4429,-2.62241 c -1.45097,-2.70265 -1.380942,1.89118 0,0 z m 9.0355,-0.76009 c -2.384281,-2.35925 0.09426,3.05573 0,0 z m 8.4849,-2.13934 c 1.515914,-4.37175 -3.897701,2.31894 0,0 z m -2.3939,-2.01889 c -1.179397,-1.40417 -0.545716,1.63684 0,0 z m -4.1268,-2.63589 c -3.171444,-1.13577 1.47273,1.89634 0,0 z m -4.0969,-1.26522 c -0.57904,-7.65949 -7.524942,2.16231 0,0 z m 9.2819,-0.1249 c -0.500788,-5.21974 -5.477446,1.82387 0,0 z m 6.123,-7.3151 c -5.458885,2.56132 2.339673,9.12881 0.140852,0.7255 l -0.110847,-0.57095 z m 11.2146,3.8803 c 6.432755,-2.16889 -2.064559,-8.61754 -0.592401,-2.63139 -1.176956,1.01417 -2.502306,5.39144 0.592401,2.63139 z m -2.3561,0.0344 c -1.130311,-0.64286 1.287188,1.78089 0,0 z m 9.5828,-1.68606 c 4.476312,-4.04489 -5.613311,2.5622 0,0 z m -22.167,-3.07295 c 1.638677,-3.94854 7.976783,1.14304 2.604561,-3.66274 -1.800465,-0.0408 -8.830094,5.24737 -2.604561,3.66274 z m -4.6428,-0.59569 c 0.236068,-2.26721 -1.228122,2.41451 0,0 z m 22.2042,-2.47317 c -0.09296,-1.99298 4.344768,-6.97008 -1.421642,-7.46379 -2.042793,1.41502 -3.247115,11.41016 1.421642,7.46379 z m -35.4169,-0.40683 c -0.772252,-1.25667 -0.772252,1.25667 0,0 z m 39.04,-0.64 c -0.839354,-2.18521 -1.492296,2.70677 0,0 z m -19.7243,-0.8 c -1.21677,-1.81812 -0.313656,1.66607 0,0 z m -9.2357,-0.16 c -2.07609,-1.67033 -1.025628,1.42503 0,0 z m 13.0341,-1.52 c -6.981208,-4.12365 12.158282,-4.18195 2.573603,-9.08479 0.247168,8.91437 -4.02023,0.55444 -5.843794,1.68447 -1.591298,1.97092 4.729405,12.56945 3.270191,7.40032 z m -6.0311,0.099 c -1.203051,-1.12446 0.521573,2.09545 0,0 z m 2.8496,-0.49929 c -1.808858,-2.75843 -0.211709,2.86007 0,0 z m -2.0126,-2.84236 c -1.581823,-5.08207 -1.89314,3.87124 0,0 z m 21.8757,-1.15732 c -0.340292,-1.66236 -1.196583,1.80577 0,0 z m -4.4757,-0.73528 c 0.01167,-3.02862 -2.206098,1.26305 0,0 z m 3.6467,-0.89783 c -2.618091,-3.00684 -0.474479,3.4887 0,0 z m 4.0865,-0.1056 -1.057795,0.003 z m -2.0932,-0.504 c -1.072335,-2.21915 -1.227208,2.53105 0,0 z m -4.8049,-3.27729 c -1.925259,-2.71634 0.06104,3.99446 0,0 z m -17.7483,0.11463 c 1.272275,-3.86463 -3.436169,1.61758 0,0 z m -8.8068,-0.70069 c -1.714452,-2.07421 -1.570236,1.51322 0,0 z m 5.5858,-2.6709 c -1.619875,-2.44054 -1.706606,1.51042 0,0 z m 5.6142,-0.023 c -0.421251,-1.21335 -0.718275,1.23922 0,0 z m -0.2169,-2.04703 c -1.224684,-2.66835 -2.157776,1.57947 0,0 z m -6.7074,-5.15297 c -0.383984,-1.99115 -1.016656,1.84077 0,0 z"
       id="path123" />
  </g>
</svg>
